<?xml version="1.0" encoding="UTF-8" standalone="no"?>
<!-- Created with Inkscape (http://www.inkscape.org/) -->

<svg
   width="512"
   height="512"
   viewBox="0 0 135.46666 135.46667"
   version="1.1"
   id="svg37484"
   inkscape:version="1.1.2 (b8e25be833, 2022-02-05)"
   sodipodi:docname="bladder.svg"
   xmlns:inkscape="http://www.inkscape.org/namespaces/inkscape"
   xmlns:sodipodi="http://sodipodi.sourceforge.net/DTD/sodipodi-0.dtd"
   xmlns="http://www.w3.org/2000/svg"
   xmlns:svg="http://www.w3.org/2000/svg">
  <sodipodi:namedview
     id="namedview37486"
     pagecolor="#ffffff"
     bordercolor="#666666"
     borderopacity="1.0"
     inkscape:pageshadow="2"
     inkscape:pageopacity="0.0"
     inkscape:pagecheckerboard="0"
     inkscape:document-units="mm"
     showgrid="false"
     units="px"
     inkscape:zoom="0.64052329"
     inkscape:cx="-358.30079"
     inkscape:cy="560.47923"
     inkscape:window-width="1920"
     inkscape:window-height="1009"
     inkscape:window-x="-8"
     inkscape:window-y="-8"
     inkscape:window-maximized="1"
     inkscape:current-layer="layer1" />
  <defs
     id="defs37481">
    <clipPath
       clipPathUnits="userSpaceOnUse"
       id="clipPath31914">
      <path
         id="path31916"
         style="fill:#ff0000;fill-opacity:1;fill-rule:nonzero;stroke:none;stroke-width:0.311682"
         d="m 39.026769,164.28358 c -0.0065,0.0673 -0.01387,0.16489 -0.01948,0.21854 -0.06203,0.59457 -0.183524,1.18131 -0.257502,1.77452 -0.08862,0.7108 -0.146213,1.1943 -0.201499,1.66372 0.324002,0.23077 0.646789,0.46163 0.969744,0.68607 -0.06895,-0.16218 -0.129142,-0.32697 -0.174102,-0.49614 -0.474925,-1.78693 0.141189,-0.29493 0.529616,0.73964 0.146378,0.0991 0.292632,0.19676 0.439518,0.29159 0.224458,0.14498 0.04317,0.53737 0.0036,0.80173 -0.01128,0.0755 -0.02525,0.15046 -0.03713,0.22584 0.103441,0.25571 0.182144,0.51759 0.211847,0.7926 0.257053,2.38106 -0.423208,3.0835 -1.430572,4.78541 -0.02855,0.0309 -0.05568,0.0632 -0.08401,0.0944 -0.07757,0.29005 -0.155012,0.58015 -0.231935,0.87052 0.07319,-0.0111 0.142538,-0.0233 0.217934,-0.0341 1.025031,-0.073 2.052044,0.009 3.076638,0.0597 -0.0025,-0.0361 0.171989,0.009 0.129666,0.007 -0.0432,-0.002 -0.08646,-0.005 -0.129666,-0.007 7.2e-5,9.4e-4 -9.35e-4,9.4e-4 -6.23e-4,0.002 0.385513,1.27199 0.787691,2.53869 1.194374,3.8041 0.164923,-0.10262 0.332196,-0.20155 0.50344,-0.29402 0.379897,-0.20517 1.049118,-0.45983 1.291167,-0.10228 1.390378,2.05381 2.694438,4.24717 3.460761,6.60559 l 0.325682,-0.85408 c 0.02238,-0.0846 -0.0201,-0.26269 0.06697,-0.25385 0.09,0.009 0.0424,0.1762 0.05418,0.26602 0.04076,0.32524 0.07622,0.65148 0.101665,0.97827 0.180152,2.31547 -0.622226,1.77108 -2.701648,5.40207 -1.634611,1.6338 -3.578374,2.92334 -5.66993,3.8942 -0.64197,0.84202 -1.35138,1.45372 -2.049064,1.34961 -5.980293,-0.89235 -6.328382,-2.09582 -6.026655,-4.6801 -0.621712,-0.22727 -1.244807,-0.4495 -1.874354,-0.63676 -0.184263,-0.75964 -0.475115,-1.50137 -0.552746,-2.27917 -0.06147,-0.61573 -0.0022,-1.24916 0.140622,-1.85122 0.05171,-0.21792 0.108493,-0.43479 0.169841,-0.65075 -0.307446,-0.11417 -0.639917,-0.23424 -1.023313,-0.361 -0.496899,-0.50144 -1.043429,-0.95815 -1.490839,-1.50422 -1.160432,-1.4163 -1.780672,-3.31562 -2.218906,-5.02831 -0.09893,-0.38663 -0.185039,-0.87159 0.04627,-1.19681 0.117495,-0.16521 0.247117,-0.32203 0.382296,-0.47543 9.35e-4,-0.0262 0.0012,-0.0524 -0.0019,-0.0785 -0.171808,-1.43284 -0.221409,0.0733 -0.234369,-2.26517 -0.0016,-0.2575 0.06414,-0.51153 0.09618,-0.76703 0.05875,-0.2833 0.120266,-0.56679 0.181411,-0.85043 -0.0051,-0.10702 -0.0039,-0.21077 0.0043,-0.31046 -0.223186,-0.62569 -0.473528,-1.25597 -0.917999,-2.30657 V 311.45517 H 157.87849 V 185.4061 c -1.03795,1.53017 -1.75729,3.35158 -3.17039,4.53887 -0.36168,0.30389 -0.77484,0.41385 -1.20715,0.40543 0.21835,0.25053 0.43301,0.50462 0.6404,0.76581 0.31807,0.40058 0.63365,0.80315 0.94418,1.20959 0.0331,0.0433 0.13238,0.16881 0.0864,0.1394 -0.19784,-0.1266 -0.36863,-0.29183 -0.55274,-0.43769 0.86797,0.73518 1.16535,0.88808 1.80556,2.09411 0.23414,0.44109 0.58754,0.94066 0.46387,1.42449 -0.43553,1.70389 -0.88835,3.54972 -2.06854,4.85359 -1.40828,1.55583 -3.55071,0.61784 -5.0344,0.21428 -1.52199,-0.91744 -0.89601,-0.4484 -2.20125,-1.90601 -0.1786,-1.6e-4 -0.35683,-0.008 -0.53388,-0.0359 -1.90545,-0.30012 -2.53026,-0.85942 -3.9642,-1.78122 -2.15389,-1.51947 -3.49674,-2.41516 -5.564,-4.08838 -1.25867,-1.01876 -2.49279,-2.06832 -3.71157,-3.13448 -0.0383,-0.0335 0.10348,0.0368 0.15158,0.0201 0.0788,-0.0273 0.27594,-0.0995 0.20515,-0.14367 -0.32957,-0.20555 -0.72778,-0.27277 -1.09149,-0.40908 h -6.3e-4 c -6.81813,-2.55732 -3.56061,-11.24513 3.25805,-8.68813 0.18716,0.0702 0.38222,0.12518 0.57284,0.18811 -0.13433,-0.65768 -0.26259,-1.34066 -0.41822,-2.13125 -0.27249,-3.07963 -0.51096,-6.19203 -0.25993,-9.2841 0.0324,-0.39846 0.14372,-0.78808 0.17714,-1.18646 0.0209,-0.24853 -0.013,-0.49815 -0.0146,-0.74755 -0.002,-0.31757 0.002,-0.63572 0.004,-0.95331 0.0131,-0.69905 0.0783,-1.37711 0.17532,-2.04906 z m 0.846777,4.58635 c -0.118476,-0.0802 -0.23719,-0.16129 -0.355514,-0.2435 0.180679,0.42491 0.422491,0.83161 0.622148,1.24855 0.0065,-0.074 0.01053,-0.14811 0.0067,-0.2222 -0.0019,-0.0383 -0.121322,-0.37798 -0.273329,-0.78285 z m 114.460834,-4.58635 c 0.0119,0.0199 0.024,0.0397 0.0359,0.0597 0.39962,0.10813 0.84453,0.22064 1.3417,0.33542 -0.021,-0.13599 -0.0365,-0.26192 -0.056,-0.39508 z M 26.822482,176.93165 c -0.07728,0.0607 -0.150105,0.11521 -0.216715,0.16193 -0.130205,0.5816 -0.260017,1.16308 -0.390213,1.74468 0.326842,-0.36341 0.694084,-0.6995 1.069579,-1.02879 -0.154151,-0.23436 -0.306735,-0.52792 -0.462651,-0.87782 z m 0.525356,0.68911 c -0.0051,0.0514 -0.01203,0.10194 -0.02132,0.15218 0.02556,-0.0223 0.05111,-0.0447 0.0767,-0.067 -0.01727,-0.0268 -0.03706,-0.0565 -0.0554,-0.0852 z m 11.971133,0.014 c -0.0036,-0.004 -0.09149,0.0678 -0.289768,0.22767 0.0066,0.0181 0.0134,0.0344 0.0201,0.0524 0.145543,-0.14827 0.273407,-0.2762 0.269676,-0.28003 z m -12.007659,0.21063 c -0.338739,1.5124 -2.356679,2.40992 0.725024,0.68789 -0.253543,-0.1181 -0.490955,-0.34154 -0.725024,-0.68789 z M 148.01431,180.586 c -0.86447,0.40902 -1.62181,0.78834 -1.02636,0.7932 0.51764,0.004 0.97146,-0.0146 1.37091,-0.0517 -0.0416,-0.14742 -0.0841,-0.29427 -0.12723,-0.44135 -0.0785,-0.103 -0.1505,-0.20135 -0.21732,-0.30011 z m -102.382566,3.56242 c -9.35e-4,2e-4 -0.0028,0.002 -0.0073,0.008 -0.04654,0.0599 -0.09153,0.12115 -0.13758,0.18141 0.01393,-0.0134 0.02877,-0.026 0.04261,-0.0396 0.03556,-0.0348 0.108063,-0.15116 0.102272,-0.14976 z m -9.760144,4.00073 c -0.01562,-2.5e-4 -0.16608,0.0855 -0.127837,0.0706 0.03326,-0.013 0.0671,-0.0271 0.100443,-0.0402 0.0083,-0.008 0.01664,-0.0162 0.02497,-0.0243 0.0042,-0.004 0.0046,-0.006 0.0025,-0.006 z m 113.44909,0.44439 c 0.19074,0.12395 0.36976,0.21559 0.51136,0.24472 -0.0787,-0.0719 -0.15755,-0.14355 -0.2362,-0.2155 -0.0935,-0.01 -0.18606,-0.0194 -0.27516,-0.0292 z m -114.111414,0.20028 c -0.08038,0.0393 -0.157574,0.0907 -0.23315,0.14853 0.007,0.0183 0.01424,0.0365 0.02132,0.0548 0.07065,-0.0677 0.141304,-0.13547 0.211844,-0.20332 z m -0.413343,0.30316 c -0.04083,0.0392 -0.08117,0.0807 -0.121141,0.12357 9.35e-4,0.0278 0.0025,0.054 0.0036,0.081 0.03684,-0.0352 0.07397,-0.0701 0.110794,-0.10532 0.0025,-0.0331 0.0046,-0.0661 0.0067,-0.0992 z m 116.051507,0.42064 c 0.009,0.004 0.0234,0.0132 0.031,0.0171 0.20318,0.10235 0.85879,0.30135 0.64528,0.22281 -0.22442,-0.0826 -0.45063,-0.16084 -0.67633,-0.23985 z m -107.774896,2.48007 c -0.0051,-0.005 -0.03241,0.0322 -0.0554,0.0609 -0.01106,0.0334 -0.02338,0.0664 -0.03409,0.0998 -0.01802,0.0564 0.07833,-0.0948 0.09009,-0.1528 9.35e-4,-0.004 3.12e-4,-0.007 -6.23e-4,-0.008 z m 106.220756,6.59584 c -0.30294,0.006 -0.60662,0.0393 -0.91009,0.0688 0.0158,0.0242 0.0305,0.0476 0.0457,0.0706 0.57653,0.0515 1.27255,-0.12887 1.18524,-0.13392 -0.10667,-0.006 -0.21383,-0.008 -0.32081,-0.005 z m -0.98314,0.0755 c -0.0544,0.005 -0.10881,0.009 -0.16314,0.014 0.0684,0.0194 0.14115,0.0332 0.21732,0.0426 -0.018,-0.0188 -0.0362,-0.0377 -0.0542,-0.0566 z m 0.26968,0.28125 c 0.0332,0.0468 0.0837,0.12236 0.10471,0.15036 0.11069,0.14777 0.27028,0.25164 0.40542,0.37743 -0.16823,-0.17762 -0.33958,-0.35228 -0.51013,-0.52779 z" />
    </clipPath>
  </defs>
  <g
     inkscape:label="Layer 1"
     inkscape:groupmode="layer"
     id="layer1">
    <path
       id="path23062" class="circle"
       style="fill:#808080;stroke-width:0.204645;fill-opacity:1"
       d="M 135.46667,67.733336 A 67.733336,67.733333 0 0 1 67.733333,135.46667 67.733336,67.733333 0 0 1 0,67.733336 67.733336,67.733333 0 0 1 67.733333,0 67.733336,67.733333 0 0 1 135.46667,67.733336 Z" />
    <path
       id="path32352"
       style="opacity:0.211137;fill:#000000;stroke:none;stroke-width:0.204645px;stroke-linecap:butt;stroke-linejoin:miter;stroke-opacity:1"
       d="m 66.323707,31.15165 -12.66962,1.013632 -11.402973,2.787092 -7.85526,4.30794 -5.57458,6.841625 -2.660787,7.855257 2.534086,7.221736 5.764837,12.859872 30.534105,30.534096 -1.389356,12.25594 17.299318,17.2993 A 67.733336,67.733333 0 0 0 135.24437,73.085526 L 103.25617,41.097327 86.595569,34.065445 Z" />
    <path
       d="m 87.708659,308.92347 c -0.11611,-1.39229 -0.62915,-5.37296 -1.14009,-8.84593 -1.06182,-7.21742 -1.15858,-10.90149 -0.42937,-16.34766 0.64998,-4.85437 0.4424,-10.60937 -0.50213,-13.92129 -2.04696,-7.17755 -5.94673,-11.65247 -13.5051,-15.49685 -4.29475,-2.18443 -6.4047,-3.61931 -11.579802,-7.87489 -4.26543,-3.50754 -8.620415,-7.84497 -10.230863,-10.18962 -0.55363,-0.80603 -1.005953,-1.51057 -1.005167,-1.56565 9.4e-4,-0.0551 1.515557,-0.11792 3.366151,-0.13965 2.860652,-0.0336 3.69309,-0.16744 5.556632,-0.89352 4.672722,-1.82059 5.38064,-2.02159 7.154843,-2.03149 1.422716,-0.008 2.517336,0.26624 4.903136,1.22814 6.44479,2.59839 10.47073,2.49136 17.51593,-0.46566 2.72259,-1.14273 5.42626,-1.00259 8.73025,0.45252 5.876741,2.58818 10.690941,2.47578 17.433041,-0.40703 1.32468,-0.56641 2.43288,-0.80251 3.75756,-0.80054 1.82833,0.003 2.49464,0.18997 7.202,2.02406 1.86354,0.72608 2.69598,0.85994 5.55663,0.89352 1.85059,0.0217 3.36536,0.0911 3.36615,0.15411 0.005,0.36763 -2.64078,3.66294 -4.52685,5.63906 -2.54982,2.67154 -8.43637,7.71305 -11.94605,10.23112 -1.3335,0.95675 -4.10398,2.59576 -6.15662,3.64226 -7.75395,3.9532 -11.629041,8.36851 -13.691411,15.60011 -0.94453,3.31192 -1.15211,9.06692 -0.50213,13.92129 0.72921,5.44617 0.63245,9.13024 -0.42937,16.34766 -0.51094,3.47297 -1.02398,7.45364 -1.14009,8.84593 l -0.21112,2.53145 h -3.66752 -3.66752 z m -14.54098,-42.73695 c -22.238924,-6.57445 -39.546918,-24.63177 -40.661516,-42.42189 -0.722247,-11.52779 6.152423,-21.35223 19.486988,-27.84844 6.592392,-3.21162 16.348548,-5.86596 26.129548,-7.10901 5.93334,-0.75407 20.99586,-0.75407 26.929201,0 31.41632,3.99266 48.67502,18.55308 45.25277,38.17777 -2.69884,15.47628 -17.10759,30.70484 -35.58246,37.60699 -3.47217,1.29719 -7.76888,2.5255 -8.00576,2.28862 -0.31789,-0.31789 1.57727,-2.42531 3.46348,-3.85141 1.05457,-0.79733 3.04467,-1.97535 4.42245,-2.61783 3.43727,-1.60286 7.35565,-4.25463 12.40933,-8.39804 11.76487,-9.64579 17.42236,-18.6142 18.00874,-28.54797 0.56284,-9.53507 -4.75204,-16.97434 -16.01408,-22.41493 -4.71542,-2.27798 -8.44658,-3.57575 -13.9343,-4.84665 -5.67846,-1.31507 -9.66534,-1.76937 -10.93015,-1.24546 -1.99813,0.82765 -2.55602,3.67104 -1.04708,5.33662 0.78767,0.86943 1.19307,1.00413 4.75366,1.5795 14.80726,2.39276 25.90121,8.14663 29.16824,15.1281 1.05997,2.2651 1.5183,5.76507 1.01034,7.71534 -0.26136,1.00347 -0.49546,1.18123 -2.77429,2.10654 -2.9439,1.19537 -5.01593,1.31224 -7.42848,0.41899 -0.89986,-0.33317 -2.61866,-0.97633 -3.81955,-1.42925 -4.34184,-1.63754 -9.5014,-1.3763 -14.09934,0.71389 -2.25532,1.02525 -2.77036,1.13847 -5.16665,1.13582 -2.37873,-0.003 -2.93441,-0.12406 -5.228511,-1.14243 -2.82789,-1.25535 -5.23618,-1.80356 -7.92296,-1.80356 -2.68678,0 -5.09507,0.54821 -7.92296,1.80356 -2.2941,1.01837 -2.84978,1.13979 -5.22851,1.14243 -2.39629,0.002 -2.91133,-0.11057 -5.16665,-1.13582 -4.59794,-2.09019 -9.757498,-2.35143 -14.099341,-0.71389 -1.200893,0.45292 -2.91969,1.09608 -3.819551,1.42925 -2.41255,0.89325 -4.484577,0.77638 -7.428475,-0.41899 -2.278834,-0.92531 -2.512937,-1.10307 -2.774297,-2.10654 -0.497076,-1.90851 -0.04913,-5.45129 0.962622,-7.61336 3.325115,-7.1056 14.280596,-12.81662 29.215962,-15.23008 3.56059,-0.57537 3.96599,-0.71007 4.75366,-1.5795 1.43797,-1.58725 0.97768,-4.42966 -0.85236,-5.26348 -1.07945,-0.49183 -2.21486,-0.47048 -5.80166,0.10911 -6.83265,1.10409 -13.295653,3.0471 -18.689407,5.61872 -4.910381,2.34115 -7.683269,4.21709 -10.622714,7.18656 -4.366664,4.41126 -6.315585,9.4866 -5.959467,15.51951 0.586468,9.9352 6.237354,18.90347 17.960985,28.50508 5.154623,4.22162 8.113619,6.242 11.817583,8.06894 3.50529,1.72895 6.37817,3.73552 7.65324,5.34542 1.51823,1.91692 1.44076,1.94261 -2.41828,0.80177 z m 19.93986,-66.33907 c 2.11336,-1.09286 2.04998,-4.46161 -0.1024,-5.4423 -1.60669,-0.73205 -3.3577,-0.20415 -4.10293,1.23697 -1.46984,2.84235 1.36298,5.67517 4.20533,4.20533 z m -55.938326,-6.36437 c -5.326369,-7.22432 -9.846697,-17.63081 -11.330557,-26.08468 -0.194889,-1.11032 -0.426983,-2.26536 -0.515764,-2.56675 -0.148442,-0.50391 0.199692,-0.54797 4.329519,-0.54797 h 4.49094 l 0.559407,2.71768 c 1.550745,7.53374 4.799047,14.94617 9.37004,21.38186 1.710302,2.408 1.830607,2.67977 1.316835,2.97474 -0.310985,0.17854 -1.903666,1.2053 -3.539289,2.28168 -1.635624,1.07639 -3.00737,1.95707 -3.048325,1.95707 -0.04096,0 -0.775718,-0.95114 -1.632806,-2.11363 z m 104.022667,0.11901 c -1.56462,-1.05573 -3.10606,-2.07038 -3.42544,-2.25478 -0.5343,-0.3085 -0.42883,-0.54606 1.32082,-2.97474 4.52163,-6.27646 7.82678,-13.80318 9.38458,-21.37121 l 0.55941,-2.71768 h 4.49094 c 4.12983,0 4.47796,0.0441 4.32952,0.54797 -0.0888,0.30139 -0.31464,1.42201 -0.5019,2.49027 -1.17373,6.69571 -4.41199,15.07084 -8.38466,21.68533 -1.66388,2.77034 -4.42888,6.60579 -4.72332,6.5519 -0.11286,-0.0207 -1.48534,-0.90133 -3.04995,-1.95706 z"
       id="path4734"
       inkscape:connector-curvature="0"
       clip-path="url(#clipPath31914)"
       transform="matrix(0.7089639,0,0,0.70896387,1.2723095,-103.98141)"
       style="fill:#ffffff" />
  </g>
</svg>
