<?xml version="1.0" encoding="UTF-8" standalone="no"?>
<!-- Created with Inkscape (http://www.inkscape.org/) -->

<svg
   xmlns:dc="http://purl.org/dc/elements/1.1/"
   xmlns:cc="http://creativecommons.org/ns#"
   xmlns:rdf="http://www.w3.org/1999/02/22-rdf-syntax-ns#"
   xmlns:svg="http://www.w3.org/2000/svg"
   xmlns="http://www.w3.org/2000/svg"
   xmlns:sodipodi="http://sodipodi.sourceforge.net/DTD/sodipodi-0.dtd"
   xmlns:inkscape="http://www.inkscape.org/namespaces/inkscape"
   width="150mm"
   height="150mm"
   viewBox="0 0 150 150"
   version="1.1"
   id="svg8"
   inkscape:version="0.92.2 (5c3e80d, 2017-08-06)"
   sodipodi:docname="kidney.svg">
  <defs
     id="defs2" />
  <sodipodi:namedview
     id="base"
     borderopacity="1.0"
     inkscape:pageopacity="0.0"
     inkscape:pageshadow="2"
     inkscape:zoom="0.98994949"
     inkscape:cx="322.94337"
     inkscape:cy="263.72668"
     inkscape:document-units="mm"
     inkscape:current-layer="layer1"
     showgrid="false"
     inkscape:window-width="1920"
     inkscape:window-height="1017"
     inkscape:window-x="-8"
     inkscape:window-y="-8"
     inkscape:window-maximized="1"
     units="mm"
     height="296mm" />
  <metadata
     id="metadata5">
    <rdf:RDF>
      <cc:Work
         rdf:about="">
        <dc:format>image/svg+xml</dc:format>
        <dc:type
           rdf:resource="http://purl.org/dc/dcmitype/StillImage" />
        <dc:title></dc:title>
      </cc:Work>
    </rdf:RDF>
  </metadata>
  <g
     inkscape:label="Layer 1"
     inkscape:groupmode="layer"
     id="layer1"
     transform="translate(0,-147)">
    <path
       style="stroke-width:0"
       d="m 78.232034,296.63721 c -8.804642,-0.88616 -16.23744,-4.26981 -22.591326,-10.28428 -10.373404,-9.8193 -16.322474,-26.42851 -12.850604,-35.87762 0.907787,-2.47066 2.714519,-4.80661 5.331333,-6.89302 5.021389,-4.00354 5.435378,-4.42101 6.471722,-6.52614 1.178796,-2.39445 1.489542,-2.34451 2.721954,0.43766 1.090038,2.46072 1.644811,5.18518 1.936397,9.50949 0.317007,4.70143 0.643088,5.20039 3.398521,5.20039 1.530519,0 1.850877,-0.11274 2.515369,-0.88525 0.662935,-0.77072 0.761141,-1.19943 0.758887,-3.31293 -0.0014,-1.33521 -0.146817,-3.7055 -0.323094,-5.2673 -1.374184,-12.17519 -7.585106,-18.44096 -18.289808,-18.45132 -3.662361,-0.003 -4.769951,0.28503 -6.956264,1.81246 -3.133995,2.1895 -5.862097,6.16661 -8.194439,11.94609 -1.732427,4.29291 -3.213864,5.59091 -4.97397,4.3581 -1.38936,-0.97316 -1.64636,-2.01806 -1.640508,-6.66992 0.01546,-12.28782 3.666141,-16.63627 19.556564,-23.29448 6.227367,-2.60931 8.838669,-4.33374 11.184172,-7.38572 2.781367,-3.61914 3.909305,-6.78256 4.169417,-11.69359 0.308906,-5.83227 -1.361823,-10.35105 -5.249531,-14.19825 -3.412245,-3.37669 -6.658508,-4.42078 -8.383056,-2.69624 -0.637565,0.63756 -0.774452,1.08625 -0.774452,2.53847 0,1.93739 0.280511,2.34128 2.780855,4.00403 1.91747,1.27516 3.73862,3.77933 4.469585,6.14593 0.718129,2.32503 0.782547,3.50061 0.311751,5.68923 -0.554112,2.57596 -0.513203,2.57585 -4.122534,0.0112 -1.805044,-1.28259 -4.98569,-3.52505 -7.0681,-4.98323 -4.753028,-3.32825 -10.60238,-9.06681 -12.041758,-11.81367 -2.651975,-5.06095 -2.641472,-9.20824 0.03771,-14.88958 4.910144,-10.4122 14.880639,-16.37224 26.360065,-15.75718 12.346659,0.66153 23.962633,5.38561 34.864602,14.17903 3.719463,3.00006 10.023476,9.62449 13.269186,13.9436 13.14903,17.49758 20.29254,40.35776 18.78229,60.10593 -1.7229,22.52851 -7.82329,40.09822 -17.48847,50.36837 -7.275633,7.73105 -17.640202,11.66967 -27.972465,10.62977 z m 8.518955,-4.9631 c 12.037201,-1.97522 21.000951,-10.94909 26.661831,-26.69198 3.71098,-10.32023 6.13844,-26.11989 5.72016,-37.23098 -1.16795,-31.02479 -20.869946,-61.8033 -46.158874,-72.10956 -7.572238,-3.08599 -17.326537,-4.40023 -23.287293,-3.13757 -7.488778,1.58631 -14.200871,7.92809 -16.073533,15.18674 -1.037911,4.02305 -0.369845,5.79151 2.187842,5.79151 1.713998,0 2.210128,-0.57515 3.021381,-3.50267 1.591653,-5.74367 5.252784,-9.66296 10.77126,-11.53077 1.881989,-0.63698 2.898071,-0.77437 5.672993,-0.76706 23.122475,0.0609 45.855984,20.96685 54.922614,50.50734 2.35849,7.68432 3.38067,14.29481 3.38027,21.86039 -6.3e-4,14.07797 -2.8536,28.37238 -7.69558,38.55884 -5.70648,12.0052 -13.655034,17.83894 -24.329104,17.85608 -6.257697,0.0102 -11.340817,-1.60635 -16.396407,-5.21394 -6.441137,-4.5963 -12.227617,-14.48059 -12.977168,-22.16721 -0.368213,-3.77603 -1.431635,-5.14676 -3.620024,-4.6661 -2.019031,0.44346 -2.477252,2.13351 -1.738735,6.413 0.962398,5.57683 3.59321,11.84894 6.974205,16.62721 1.979646,2.79778 6.379938,7.22286 8.827121,8.87683 7.072211,4.77991 15.792645,6.70915 24.137041,5.3399 z m -6.827842,-37.5385 c 1.405794,-0.58738 1.909665,-1.88876 1.698626,-4.38712 -0.281372,-3.331 -2.321349,-7.65901 -4.066047,-8.62649 -1.164693,-0.64585 -2.422121,-0.52009 -3.269164,0.32695 -1.342238,1.34224 -1.350736,2.28565 -0.04225,4.68453 0.842749,1.54498 1.244706,2.75821 1.446623,4.36631 0.28534,2.2724 0.829592,3.26522 2.067802,3.77201 0.880304,0.3603 0.993129,0.35321 2.164397,-0.13619 z m 5.673893,-16.0072 c 1.434482,-0.6536 1.923573,-2.94564 0.937017,-4.39111 -3.218041,-4.71497 -11.197248,-11.31004 -18.39856,-15.20704 -3.740639,-2.02423 -5.086375,-2.38688 -6.448001,-1.73757 -1.42173,0.67798 -1.977744,2.24324 -1.339475,3.77082 0.382797,0.91617 1.031175,1.37544 4.511653,3.19581 5.318371,2.78164 8.886415,5.45355 13.582191,10.17101 2.111046,2.12079 4.098802,4.00747 4.417235,4.19259 0.755771,0.43941 1.781089,0.44146 2.73794,0.005 z M 65.504805,210.17644 c 6.557885,-5.55181 12.363642,-8.57439 17.775491,-9.25419 1.935102,-0.24308 2.495765,-0.44497 3.076295,-1.10778 1.020273,-1.16487 0.970221,-3.06785 -0.109114,-4.14715 -0.794152,-0.79415 -0.906665,-0.81353 -3.707324,-0.63843 -3.303185,0.20654 -6.508145,1.1557 -10.242824,3.03345 -5.552777,2.79188 -12.112728,7.94306 -12.529001,9.83833 -0.274105,1.24799 0.342551,2.7122 1.390451,3.30155 1.231605,0.69267 2.73541,0.33773 4.346004,-1.02578 z m 4.816407,-15.75485 c 0.359664,-0.45724 0.654719,-1.06066 0.655692,-1.34095 0.0056,-1.76693 0.782993,-3.12025 3.027426,-5.27367 2.511302,-2.40948 2.775422,-3.09151 1.872995,-4.83663 -1.578489,-3.05245 -7.215754,-0.44492 -9.575183,4.429 -1.002391,2.07066 -1.445941,4.78612 -1.001669,6.13228 0.448053,1.35763 1.025625,1.6996 2.891001,1.71172 1.224762,0.008 1.58704,-0.13183 2.129738,-0.82175 z"
       id="path4517"
       inkscape:connector-curvature="0" />
  </g>
</svg>
