<?xml version="1.0" encoding="UTF-8" standalone="no"?>
<!-- Created with Inkscape (http://www.inkscape.org/) -->

<svg
   width="512"
   height="512"
   viewBox="0 0 135.46666 135.46666"
   version="1.1"
   id="svg24632"
   inkscape:version="1.1.2 (b8e25be833, 2022-02-05)"
   sodipodi:docname="kidney.svg"
   xmlns:inkscape="http://www.inkscape.org/namespaces/inkscape"
   xmlns:sodipodi="http://sodipodi.sourceforge.net/DTD/sodipodi-0.dtd"
   xmlns="http://www.w3.org/2000/svg"
   xmlns:svg="http://www.w3.org/2000/svg">
  <sodipodi:namedview
     id="namedview24634"
     pagecolor="#ffffff"
     bordercolor="#666666"
     borderopacity="1.0"
     inkscape:pageshadow="2"
     inkscape:pageopacity="0.0"
     inkscape:pagecheckerboard="0"
     inkscape:document-units="px"
     showgrid="false"
     units="px"
     inkscape:zoom="0.64052329"
     inkscape:cx="-358.30079"
     inkscape:cy="310.68347"
     inkscape:window-width="1920"
     inkscape:window-height="1009"
     inkscape:window-x="-8"
     inkscape:window-y="-8"
     inkscape:window-maximized="1"
     inkscape:current-layer="layer1" />
  <defs
     id="defs24629" />
  <g
     inkscape:label="Layer 1"
     inkscape:groupmode="layer"
     id="layer1">
    <path
       id="path23062" class="circle"
       style="fill:#808080;stroke-width:0.204645;fill-opacity:1"
       d="M 135.46666,67.733334 A 67.733333,67.733332 0 0 1 67.733329,135.46666 67.733333,67.733332 0 0 1 0,67.733334 67.733333,67.733332 0 0 1 67.733329,0 67.733333,67.733332 0 0 1 135.46666,67.733334 Z" />
    <path
       id="path23637"
       style="opacity:0.206497;fill:#000000;stroke:none;stroke-width:0.204645px;stroke-linecap:butt;stroke-linejoin:miter;stroke-opacity:1"
       d="m 87.016839,26.951225 -26.683414,6.124964 1.581606,14.232835 5.309183,5.308779 -20.897794,6.212905 -10.956911,7.7941 12.31269,12.312689 -3.162811,28.691503 27.67067,27.67106 A 67.733333,67.733332 0 0 0 135.03251,74.966898 Z" />
    <path
       style="fill:#ffffff;stroke-width:0"
       d="m 49.212896,110.7725 c -4.725104,-2.92146 -7.989183,-6.87507 -9.920889,-12.016654 -3.153707,-8.394203 -1.943286,-19.403487 2.614626,-23.781182 1.191751,-1.14464 2.853774,-1.966041 4.904323,-2.42383 3.934779,-0.87842 4.283216,-1.000163 5.446998,-1.903165 1.323734,-1.027096 1.485365,-0.913451 1.415745,0.995554 -0.06156,1.688452 -0.497747,3.378537 -1.522429,5.899095 -1.11404,2.740383 -1.067238,3.111646 0.487769,3.869422 0.863718,0.420902 1.075514,0.445383 1.662966,0.192166 0.586076,-0.252636 0.759401,-0.467557 1.339359,-1.660909 0.366628,-0.753792 0.93619,-2.131545 1.266226,-3.061394 2.572791,-7.248847 0.790882,-12.492936 -5.247352,-15.442681 -2.066126,-1.008578 -2.770247,-1.150934 -4.424126,-0.8902 -2.37077,0.373736 -5.004091,1.867918 -7.909741,4.488083 -2.158269,1.946224 -3.351256,2.271318 -4.005528,1.091556 -0.516441,-0.931287 -0.374115,-1.591646 0.908493,-4.215253 3.387997,-6.930244 6.644102,-8.380259 17.442754,-7.767725 4.231928,0.240052 6.179824,-0.015 8.342803,-1.09229 2.56494,-1.27752 4.071458,-2.752558 5.568826,-5.452507 1.778258,-3.206426 2.078114,-6.216016 0.942147,-9.456295 -0.997032,-2.844002 -2.541898,-4.325979 -3.989387,-3.827025 -0.535142,0.184469 -0.735787,0.400035 -1.135164,1.219575 -0.532799,1.093343 -0.485571,1.398418 0.4682,3.024399 0.731425,1.246943 1.070495,3.160977 0.832168,4.69756 -0.234142,1.509604 -0.521081,2.190745 -1.388666,3.296392 -1.021116,1.301318 -0.998006,1.312502 -2.329552,-1.127483 -0.665928,-1.220214 -1.844196,-3.36043 -2.61837,-4.75603 -1.767013,-3.185388 -3.489861,-8.032508 -3.546749,-9.978512 -0.104797,-3.58541 1.041683,-5.923 4.116087,-8.392391 5.63444,-4.525669 12.900249,-5.147156 19.209388,-1.643094 6.785768,3.768783 12.041938,9.629272 15.776067,17.589897 1.273992,2.71594 3.009801,8.18802 3.653684,11.518067 2.608488,13.49068 0.35307,28.356103 -5.930177,39.085433 -7.167859,12.239901 -15.442402,20.477491 -23.721231,23.615301 -6.232033,2.36208 -13.164326,1.73442 -18.709238,-1.69391 z m 6.172475,-0.45807 c 7.336257,2.19567 14.862754,-0.40351 22.386871,-7.73104 4.932406,-4.803544 10.647386,-13.052328 13.467011,-19.437788 7.873006,-17.829686 5.218809,-40.617433 -6.21838,-53.388373 -3.424628,-3.823984 -8.567933,-7.248194 -12.279059,-8.174895 -4.662461,-1.16427 -10.194415,0.568746 -13.247426,4.150077 -1.692119,1.984932 -1.801448,3.166669 -0.358051,3.870056 0.967277,0.471367 -3.112914,-0.490769 -1.849998,-1.919776 2.477802,-2.803653 7.718634,-7.474356 11.346589,-7.010791 1.237253,0.158089 6.616149,1.459467 8.180136,2.226729 13.032163,6.393295 22.774673,28.188501 19.76739,47.352749 -0.782276,4.985173 -7.208029,29.119978 -11.383819,23.181543 -4.434228,9.098429 -5.219362,8.295379 -10.753259,12.712409 -6.521933,5.20564 -13.029502,7.09492 -19.058005,4.1691 -3.809425,-0.73467 -12.516582,-4.30667 -12.600301,-11.379894 -0.05879,-4.96722 -4.067885,-11.686963 -2.376981,-16.230952 0.830645,-2.232227 2.855769,0.04116 1.48859,-0.289398 -1.261369,-0.304985 0.192453,-3.107825 -0.567684,-0.489641 -0.990564,3.411881 1.808224,8.136035 2.402182,11.762404 0.347771,2.123317 -1.424934,5.369637 -0.498753,6.976031 2.676597,4.64243 7.067325,8.12938 12.152947,9.65145 z m 6.470251,-23.062154 c 0.954884,0.05515 1.597137,-0.540719 2.165113,-2.008674 0.757265,-1.957199 0.796271,-4.960676 0.07773,-5.986473 -0.479663,-0.684776 -1.223865,-0.959618 -1.934823,-0.714547 -1.126603,0.388356 -1.390848,0.918417 -1.312078,2.632076 0.05074,1.103661 -0.05607,1.898865 -0.384395,2.861912 -0.4639,1.360874 -0.429791,2.070835 0.1296,2.697355 0.397715,0.445429 0.463328,0.472462 1.25891,0.518374 z m 7.604145,-7.473098 c 0.989273,0.02568 1.895624,-1.133337 1.736392,-2.220386 -0.519388,-3.545835 -3.20867,-9.462055 -6.200931,-13.641712 -1.554303,-2.17107 -2.214021,-2.745815 -3.161008,-2.753851 -0.988786,-0.0083 -1.733028,0.722043 -1.792933,1.759657 -0.03597,0.622298 0.203676,1.05979 1.667222,3.04427 2.236388,3.032389 3.515161,5.521506 4.867829,9.475135 0.608105,1.7774 1.211019,3.388777 1.339807,3.58082 0.305681,0.455833 0.883735,0.73895 1.543777,0.755742 z M 65.808012,58.479222 c 5.227676,-1.329619 9.335332,-1.438731 12.576402,-0.334057 1.158893,0.394992 1.530836,0.435251 2.040718,0.220847 0.896141,-0.376792 1.391241,-1.464481 1.078901,-2.370414 -0.229756,-0.666562 -0.28792,-0.708445 -1.916608,-1.379841 -1.920924,-0.791855 -3.990623,-1.137609 -6.614647,-1.104991 -3.901444,0.04849 -9.020108,1.151453 -9.776252,2.106539 -0.497894,0.62891 -0.552562,1.624812 -0.123275,2.245592 0.504561,0.729599 1.450821,0.94285 2.73473,0.616302 z m 7.050835,-7.566515 c 0.328714,-0.159118 0.661178,-0.418512 0.738811,-0.576422 0.489399,-0.995454 1.299965,-1.545549 3.158803,-2.143566 2.079863,-0.669129 2.416482,-0.981384 2.387129,-2.214401 -0.05136,-2.156716 -3.949777,-2.235492 -6.621664,-0.133818 -1.135133,0.892888 -2.132234,2.30335 -2.251726,3.185214 -0.120505,0.889372 0.111394,1.241205 1.160767,1.761041 0.688813,0.341692 0.931881,0.362049 1.42788,0.121952 z"
       id="path4517"
       inkscape:connector-curvature="0"
       sodipodi:nodetypes="ssscssssssscssscsssssscssssscssssssssssscsssssscscsssssssssssssssscsssssssccssssssssssscsssscs" />
  </g>
</svg>
