<?xml version="1.0" encoding="UTF-8" standalone="no"?>
<!-- Created with Inkscape (http://www.inkscape.org/) -->

<svg
   xmlns:dc="http://purl.org/dc/elements/1.1/"
   xmlns:cc="http://creativecommons.org/ns#"
   xmlns:rdf="http://www.w3.org/1999/02/22-rdf-syntax-ns#"
   xmlns:svg="http://www.w3.org/2000/svg"
   xmlns="http://www.w3.org/2000/svg"
   xmlns:xlink="http://www.w3.org/1999/xlink"
   xmlns:sodipodi="http://sodipodi.sourceforge.net/DTD/sodipodi-0.dtd"
   xmlns:inkscape="http://www.inkscape.org/namespaces/inkscape"
   width="150mm"
   height="150mm"
   viewBox="0 0 150 150"
   version="1.1"
   id="svg8"
   inkscape:version="0.92.2 (5c3e80d, 2017-08-06)"
   sodipodi:docname="penis.svg">
  <defs
     id="defs2" />
  <sodipodi:namedview
     id="base"
     pagecolor="#ffffff"
     bordercolor="#666666"
     borderopacity="1.0"
     inkscape:pageopacity="0.0"
     inkscape:pageshadow="2"
     inkscape:zoom="0.98994949"
     inkscape:cx="348.6933"
     inkscape:cy="239.81303"
     inkscape:document-units="mm"
     inkscape:current-layer="layer1"
     showgrid="false"
     inkscape:window-width="1920"
     inkscape:window-height="1017"
     inkscape:window-x="-8"
     inkscape:window-y="-8"
     inkscape:window-maximized="1"
     units="mm"
     height="296mm" />
  <metadata
     id="metadata5">
    <rdf:RDF>
      <cc:Work
         rdf:about="">
        <dc:format>image/svg+xml</dc:format>
        <dc:type
           rdf:resource="http://purl.org/dc/dcmitype/StillImage" />
        <dc:title></dc:title>
      </cc:Work>
    </rdf:RDF>
  </metadata>
  <g
     inkscape:label="Layer 1"
     inkscape:groupmode="layer"
     id="layer1"
     transform="translate(0,-147)">    
    <path
       style="stroke-width:0.30947626"
       d="M 66.802116,295.45971 C 65.778344,294.77606 64.105643,293.32402 63.085,292.23295 56.339804,285.02231 52.350488,275.12247 50.607001,261.26768 50.37001,259.38441 50.237598,248.1593 50.19813,226.60634 50.13992,194.81381 49.988695,188.98375 48.921813,177.39961 47.616232,163.2237 44.928511,152.75453 41.737529,149.41547 c -0.614644,-0.64317 -0.878912,-1.1834 -0.774396,-1.58307 0.1564,-0.59808 0.651667,-0.60672 34.783905,-0.60672 37.868832,0 36.218582,-0.0852 33.356712,1.72145 -3.4054,2.14974 -6.4663,13.24762 -7.84744,28.45248 -1.06525,11.72715 -1.20539,17.16255 -1.264714,49.05199 -0.05206,27.98672 -0.125041,32.51918 -0.578015,35.89902 -1.818479,13.56849 -6.063534,23.58281 -12.856374,30.3289 -3.044596,3.02364 -5.265187,4.39931 -6.125844,3.79499 -3.890221,-2.73157 -6.257545,-2.94449 -9.379436,-0.84361 -0.875988,0.58949 -1.771739,1.07181 -1.990557,1.07181 -0.218815,0 -1.235482,-0.55935 -2.259254,-1.243 z M 38.585405,265.42168 c -1.513156,-0.34129 -3.931038,-1.23157 -5.72653,-2.10854 -2.756857,-1.34653 -3.422058,-1.84451 -5.893823,-4.4122 -2.997589,-3.11392 -4.259397,-5.1562 -5.535651,-8.95965 -1.214153,-3.61838 -1.761502,-7.77597 -1.768022,-13.42967 -0.01061,-9.19601 1.050848,-14.53388 6.431379,-32.34231 5.215211,-17.26125 6.170502,-21.97918 5.890343,-29.09077 -0.14391,-3.65299 -0.519636,-5.92016 -1.291711,-7.79432 -0.247333,-0.60039 0.466564,-1.10181 5.172416,-3.63299 l 3.015323,-1.62188 0.327358,0.86102 c 0.841556,2.21346 2.031996,11.46134 2.803898,21.78194 0.217779,2.91175 0.452061,18.84415 0.59615,40.54139 0.14888,22.41804 0.358262,36.4359 0.561613,37.59899 0.298626,1.70803 0.272392,1.90968 -0.332148,2.55318 -0.771986,0.82174 -0.850184,0.82277 -4.250595,0.0558 z m 68.777245,-0.0402 c -0.62137,-0.66141 -0.64701,-0.85159 -0.34633,-2.56879 0.20408,-1.16552 0.4123,-15.13408 0.56047,-37.59899 0.23121,-35.05691 0.35429,-39.39715 1.41731,-49.98042 0.49923,-4.9702 1.61359,-11.9132 2.01681,-12.56561 0.17987,-0.29105 0.62844,-0.0443 1.67746,0.92262 1.44991,1.33648 4.17993,2.81436 5.20906,2.81989 1.0541,0.006 1.79435,0.59689 1.48084,1.18269 -0.65399,1.22199 -1.26898,5.48668 -1.26725,8.7879 0.003,6.53777 1.03884,11.37614 5.85257,27.34789 5.53457,18.36345 6.56968,23.53709 6.55901,32.78296 -0.007,5.6537 -0.55387,9.81129 -1.76802,13.42967 -1.27076,3.78708 -2.54024,5.84798 -5.48982,8.91228 -2.2319,2.3187 -3.23789,3.10392 -5.4214,4.23166 -2.49867,1.29052 -5.61097,2.30902 -8.563,2.80225 -1.05713,0.17663 -1.34868,0.0997 -1.91771,-0.506 z"
       id="path4543"
       inkscape:connector-curvature="0" />
  </g>
</svg>
