<?xml version="1.0" encoding="UTF-8" standalone="no"?>
<!-- Created with Inkscape (http://www.inkscape.org/) -->

<svg
   width="512"
   height="512"
   viewBox="0 0 135.46666 135.46667"
   version="1.1"
   id="svg37484"
   inkscape:version="1.1.2 (b8e25be833, 2022-02-05)"
   sodipodi:docname="prostate.svg"
   xmlns:inkscape="http://www.inkscape.org/namespaces/inkscape"
   xmlns:sodipodi="http://sodipodi.sourceforge.net/DTD/sodipodi-0.dtd"
   xmlns="http://www.w3.org/2000/svg"
   xmlns:svg="http://www.w3.org/2000/svg">
  <sodipodi:namedview
     id="namedview37486"
     pagecolor="#ffffff"
     bordercolor="#666666"
     borderopacity="1.0"
     inkscape:pageshadow="2"
     inkscape:pageopacity="0.0"
     inkscape:pagecheckerboard="0"
     inkscape:document-units="mm"
     showgrid="false"
     units="px"
     inkscape:zoom="0.64052329"
     inkscape:cx="-358.30079"
     inkscape:cy="435.58135"
     inkscape:window-width="1920"
     inkscape:window-height="1009"
     inkscape:window-x="-8"
     inkscape:window-y="-8"
     inkscape:window-maximized="1"
     inkscape:current-layer="layer1" />
  <defs
     id="defs37481">
    <clipPath
       clipPathUnits="userSpaceOnUse"
       id="clipPath31914">
      <path
         id="path31916"
         style="fill:#ff0000;fill-opacity:1;fill-rule:nonzero;stroke:none;stroke-width:0.311682"
         d="m 39.026769,164.28358 c -0.0065,0.0673 -0.01387,0.16489 -0.01948,0.21854 -0.06203,0.59457 -0.183524,1.18131 -0.257502,1.77452 -0.08862,0.7108 -0.146213,1.1943 -0.201499,1.66372 0.324002,0.23077 0.646789,0.46163 0.969744,0.68607 -0.06895,-0.16218 -0.129142,-0.32697 -0.174102,-0.49614 -0.474925,-1.78693 0.141189,-0.29493 0.529616,0.73964 0.146378,0.0991 0.292632,0.19676 0.439518,0.29159 0.224458,0.14498 0.04317,0.53737 0.0036,0.80173 -0.01128,0.0755 -0.02525,0.15046 -0.03713,0.22584 0.103441,0.25571 0.182144,0.51759 0.211847,0.7926 0.257053,2.38106 -0.423208,3.0835 -1.430572,4.78541 -0.02855,0.0309 -0.05568,0.0632 -0.08401,0.0944 -0.07757,0.29005 -0.155012,0.58015 -0.231935,0.87052 0.07319,-0.0111 0.142538,-0.0233 0.217934,-0.0341 1.025031,-0.073 2.052044,0.009 3.076638,0.0597 -0.0025,-0.0361 0.171989,0.009 0.129666,0.007 -0.0432,-0.002 -0.08646,-0.005 -0.129666,-0.007 7.2e-5,9.4e-4 -9.35e-4,9.4e-4 -6.23e-4,0.002 0.385513,1.27199 0.787691,2.53869 1.194374,3.8041 0.164923,-0.10262 0.332196,-0.20155 0.50344,-0.29402 0.379897,-0.20517 1.049118,-0.45983 1.291167,-0.10228 1.390378,2.05381 2.694438,4.24717 3.460761,6.60559 l 0.325682,-0.85408 c 0.02238,-0.0846 -0.0201,-0.26269 0.06697,-0.25385 0.09,0.009 0.0424,0.1762 0.05418,0.26602 0.04076,0.32524 0.07622,0.65148 0.101665,0.97827 0.180152,2.31547 -0.622226,1.77108 -2.701648,5.40207 -1.634611,1.6338 -3.578374,2.92334 -5.66993,3.8942 -0.64197,0.84202 -1.35138,1.45372 -2.049064,1.34961 -5.980293,-0.89235 -6.328382,-2.09582 -6.026655,-4.6801 -0.621712,-0.22727 -1.244807,-0.4495 -1.874354,-0.63676 -0.184263,-0.75964 -0.475115,-1.50137 -0.552746,-2.27917 -0.06147,-0.61573 -0.0022,-1.24916 0.140622,-1.85122 0.05171,-0.21792 0.108493,-0.43479 0.169841,-0.65075 -0.307446,-0.11417 -0.639917,-0.23424 -1.023313,-0.361 -0.496899,-0.50144 -1.043429,-0.95815 -1.490839,-1.50422 -1.160432,-1.4163 -1.780672,-3.31562 -2.218906,-5.02831 -0.09893,-0.38663 -0.185039,-0.87159 0.04627,-1.19681 0.117495,-0.16521 0.247117,-0.32203 0.382296,-0.47543 9.35e-4,-0.0262 0.0012,-0.0524 -0.0019,-0.0785 -0.171808,-1.43284 -0.221409,0.0733 -0.234369,-2.26517 -0.0016,-0.2575 0.06414,-0.51153 0.09618,-0.76703 0.05875,-0.2833 0.120266,-0.56679 0.181411,-0.85043 -0.0051,-0.10702 -0.0039,-0.21077 0.0043,-0.31046 -0.223186,-0.62569 -0.473528,-1.25597 -0.917999,-2.30657 V 311.45517 H 157.87849 V 185.4061 c -1.03795,1.53017 -1.75729,3.35158 -3.17039,4.53887 -0.36168,0.30389 -0.77484,0.41385 -1.20715,0.40543 0.21835,0.25053 0.43301,0.50462 0.6404,0.76581 0.31807,0.40058 0.63365,0.80315 0.94418,1.20959 0.0331,0.0433 0.13238,0.16881 0.0864,0.1394 -0.19784,-0.1266 -0.36863,-0.29183 -0.55274,-0.43769 0.86797,0.73518 1.16535,0.88808 1.80556,2.09411 0.23414,0.44109 0.58754,0.94066 0.46387,1.42449 -0.43553,1.70389 -0.88835,3.54972 -2.06854,4.85359 -1.40828,1.55583 -3.55071,0.61784 -5.0344,0.21428 -1.52199,-0.91744 -0.89601,-0.4484 -2.20125,-1.90601 -0.1786,-1.6e-4 -0.35683,-0.008 -0.53388,-0.0359 -1.90545,-0.30012 -2.53026,-0.85942 -3.9642,-1.78122 -2.15389,-1.51947 -3.49674,-2.41516 -5.564,-4.08838 -1.25867,-1.01876 -2.49279,-2.06832 -3.71157,-3.13448 -0.0383,-0.0335 0.10348,0.0368 0.15158,0.0201 0.0788,-0.0273 0.27594,-0.0995 0.20515,-0.14367 -0.32957,-0.20555 -0.72778,-0.27277 -1.09149,-0.40908 h -6.3e-4 c -6.81813,-2.55732 -3.56061,-11.24513 3.25805,-8.68813 0.18716,0.0702 0.38222,0.12518 0.57284,0.18811 -0.13433,-0.65768 -0.26259,-1.34066 -0.41822,-2.13125 -0.27249,-3.07963 -0.51096,-6.19203 -0.25993,-9.2841 0.0324,-0.39846 0.14372,-0.78808 0.17714,-1.18646 0.0209,-0.24853 -0.013,-0.49815 -0.0146,-0.74755 -0.002,-0.31757 0.002,-0.63572 0.004,-0.95331 0.0131,-0.69905 0.0783,-1.37711 0.17532,-2.04906 z m 0.846777,4.58635 c -0.118476,-0.0802 -0.23719,-0.16129 -0.355514,-0.2435 0.180679,0.42491 0.422491,0.83161 0.622148,1.24855 0.0065,-0.074 0.01053,-0.14811 0.0067,-0.2222 -0.0019,-0.0383 -0.121322,-0.37798 -0.273329,-0.78285 z m 114.460834,-4.58635 c 0.0119,0.0199 0.024,0.0397 0.0359,0.0597 0.39962,0.10813 0.84453,0.22064 1.3417,0.33542 -0.021,-0.13599 -0.0365,-0.26192 -0.056,-0.39508 z M 26.822482,176.93165 c -0.07728,0.0607 -0.150105,0.11521 -0.216715,0.16193 -0.130205,0.5816 -0.260017,1.16308 -0.390213,1.74468 0.326842,-0.36341 0.694084,-0.6995 1.069579,-1.02879 -0.154151,-0.23436 -0.306735,-0.52792 -0.462651,-0.87782 z m 0.525356,0.68911 c -0.0051,0.0514 -0.01203,0.10194 -0.02132,0.15218 0.02556,-0.0223 0.05111,-0.0447 0.0767,-0.067 -0.01727,-0.0268 -0.03706,-0.0565 -0.0554,-0.0852 z m 11.971133,0.014 c -0.0036,-0.004 -0.09149,0.0678 -0.289768,0.22767 0.0066,0.0181 0.0134,0.0344 0.0201,0.0524 0.145543,-0.14827 0.273407,-0.2762 0.269676,-0.28003 z m -12.007659,0.21063 c -0.338739,1.5124 -2.356679,2.40992 0.725024,0.68789 -0.253543,-0.1181 -0.490955,-0.34154 -0.725024,-0.68789 z M 148.01431,180.586 c -0.86447,0.40902 -1.62181,0.78834 -1.02636,0.7932 0.51764,0.004 0.97146,-0.0146 1.37091,-0.0517 -0.0416,-0.14742 -0.0841,-0.29427 -0.12723,-0.44135 -0.0785,-0.103 -0.1505,-0.20135 -0.21732,-0.30011 z m -102.382566,3.56242 c -9.35e-4,2e-4 -0.0028,0.002 -0.0073,0.008 -0.04654,0.0599 -0.09153,0.12115 -0.13758,0.18141 0.01393,-0.0134 0.02877,-0.026 0.04261,-0.0396 0.03556,-0.0348 0.108063,-0.15116 0.102272,-0.14976 z m -9.760144,4.00073 c -0.01562,-2.5e-4 -0.16608,0.0855 -0.127837,0.0706 0.03326,-0.013 0.0671,-0.0271 0.100443,-0.0402 0.0083,-0.008 0.01664,-0.0162 0.02497,-0.0243 0.0042,-0.004 0.0046,-0.006 0.0025,-0.006 z m 113.44909,0.44439 c 0.19074,0.12395 0.36976,0.21559 0.51136,0.24472 -0.0787,-0.0719 -0.15755,-0.14355 -0.2362,-0.2155 -0.0935,-0.01 -0.18606,-0.0194 -0.27516,-0.0292 z m -114.111414,0.20028 c -0.08038,0.0393 -0.157574,0.0907 -0.23315,0.14853 0.007,0.0183 0.01424,0.0365 0.02132,0.0548 0.07065,-0.0677 0.141304,-0.13547 0.211844,-0.20332 z m -0.413343,0.30316 c -0.04083,0.0392 -0.08117,0.0807 -0.121141,0.12357 9.35e-4,0.0278 0.0025,0.054 0.0036,0.081 0.03684,-0.0352 0.07397,-0.0701 0.110794,-0.10532 0.0025,-0.0331 0.0046,-0.0661 0.0067,-0.0992 z m 116.051507,0.42064 c 0.009,0.004 0.0234,0.0132 0.031,0.0171 0.20318,0.10235 0.85879,0.30135 0.64528,0.22281 -0.22442,-0.0826 -0.45063,-0.16084 -0.67633,-0.23985 z m -107.774896,2.48007 c -0.0051,-0.005 -0.03241,0.0322 -0.0554,0.0609 -0.01106,0.0334 -0.02338,0.0664 -0.03409,0.0998 -0.01802,0.0564 0.07833,-0.0948 0.09009,-0.1528 9.35e-4,-0.004 3.12e-4,-0.007 -6.23e-4,-0.008 z m 106.220756,6.59584 c -0.30294,0.006 -0.60662,0.0393 -0.91009,0.0688 0.0158,0.0242 0.0305,0.0476 0.0457,0.0706 0.57653,0.0515 1.27255,-0.12887 1.18524,-0.13392 -0.10667,-0.006 -0.21383,-0.008 -0.32081,-0.005 z m -0.98314,0.0755 c -0.0544,0.005 -0.10881,0.009 -0.16314,0.014 0.0684,0.0194 0.14115,0.0332 0.21732,0.0426 -0.018,-0.0188 -0.0362,-0.0377 -0.0542,-0.0566 z m 0.26968,0.28125 c 0.0332,0.0468 0.0837,0.12236 0.10471,0.15036 0.11069,0.14777 0.27028,0.25164 0.40542,0.37743 -0.16823,-0.17762 -0.33958,-0.35228 -0.51013,-0.52779 z" />
    </clipPath>
  </defs>
  <g
     inkscape:label="Layer 1"
     inkscape:groupmode="layer"
     id="layer1">
    <path
       id="path23062" class="circle"
       style="fill:#808080;stroke-width:0.204645;fill-opacity:1"
       d="M 135.46667,67.733338 A 67.733334,67.733333 0 0 1 67.733338,135.46667 67.733334,67.733333 0 0 1 0,67.733338 67.733334,67.733333 0 0 1 67.733338,0 67.733334,67.733333 0 0 1 135.46667,67.733338 Z" />
    <path
       id="path37627"
       style="opacity:0.208817;fill:#000000;stroke:none;stroke-width:0.204645px;stroke-linecap:butt;stroke-linejoin:miter;stroke-opacity:1"
       d="m 64.418498,39.871255 -22.12846,50.438634 42.8368,42.836801 A 67.733334,67.733332 0 0 0 134.97393,75.486707 L 101.9565,42.469289 70.421158,45.873513 Z" />
    <path
       style="fill:#ffffff;stroke-width:0.159739"
       d="m 56.853528,98.200101 c -0.0439,-0.0442 -0.73764,-0.19352 -1.54158,-0.33187 -3.93825,-0.67772 -7.48392,-2.61614 -11.69948,-6.39613 -4.36071,-3.910141 -8.234885,-8.842725 -10.986467,-13.987949 -0.352383,-0.658921 -0.756624,-1.413682 -0.898308,-1.677247 -0.884809,-1.645953 -2.491013,-5.54812 -3.171251,-7.704323 -1.483215,-4.701512 -1.613398,-9.642675 -0.383847,-14.56976 0.720558,-2.887465 1.703948,-5.22981 3.168189,-7.546352 2.664352,-4.215205 6.649564,-7.206932 11.052324,-8.297065 2.32845,-0.576528 7.87009,-0.562832 10.46695,0.02588 1.23359,0.279654 7.50413,1.402274 9.29572,1.664224 1.98811,0.290681 2.16766,0.346129 2.26887,0.700697 0.36816,1.289816 1.59729,8.09103 2.34288,12.963988 0.0739,0.483205 0.24834,2.316202 0.38756,4.073322 0.13923,1.757121 0.34029,3.697946 0.44682,4.312933 0.12566,0.7254 0.19369,2.997886 0.19369,6.469407 0,5.593364 0.008,5.496225 -0.8286,9.584303 -0.13491,0.658921 -0.64375,2.563799 -1.13074,4.233064 -2.07466,7.111267 -2.3083,8.60047 -1.99239,12.699208 0.0982,1.2739 0.12897,2.36315 0.0684,2.42054 -0.5561,0.52695 -6.70878,1.7151 -7.05874,1.36313 z m 18.41752,-0.18834 c -1.40008,-0.34215 -2.61157,-1.17193 -4.84334,-3.31738 l -2.12025,-2.03824 0.0942,-1.31626 c 0.12779,-1.785325 0.9686,-5.201132 2.44064,-9.915173 0.38081,-1.219489 0.87398,-3.64862 1.52974,-7.534669 0.24608,-1.458342 0.30352,-2.337166 0.24015,-3.67398 -0.0459,-0.966417 -0.16078,-3.975765 -0.25548,-6.687446 -0.0947,-2.711681 -0.21183,-4.994469 -0.26028,-5.072859 -0.0484,-0.0784 -0.33147,-2.244564 -0.62895,-4.813711 -0.49482,-4.273463 -1.31824,-9.494967 -1.90801,-12.099014 -0.29974,-1.323436 -0.30053,-1.542427 -0.006,-1.65546 0.13223,-0.05073 1.1291,-0.2018 2.21529,-0.335684 1.08618,-0.133884 2.82897,-0.390692 3.87285,-0.570683 1.04388,-0.179992 3.1559,-0.545118 4.69339,-0.811392 5.98141,-1.035902 9.72623,-1.229225 12.21999,-0.63084 3.00821,0.721836 6.02028,2.315862 8.561212,4.530703 1.83946,1.603395 2.77455,2.86806 4.03973,5.463535 1.43199,2.937694 2.27967,5.5232 2.74951,8.38627 0.30672,1.869072 0.29512,6.73387 -0.0204,8.565011 -0.84995,4.932259 -3.25503,10.593504 -7.02363,16.532774 -3.270262,5.153887 -8.276092,10.498158 -12.620262,13.473528 -1.23789,0.84785 -4.2001,2.36101 -5.43463,2.77611 -2.62001,0.88098 -5.72322,1.18773 -7.53549,0.74486 z"
       id="path4584"
       inkscape:connector-curvature="0" />
  </g>
</svg>
