<?xml version="1.0" encoding="UTF-8" standalone="no"?>
<!-- Created with Inkscape (http://www.inkscape.org/) -->

<svg
   xmlns:dc="http://purl.org/dc/elements/1.1/"
   xmlns:cc="http://creativecommons.org/ns#"
   xmlns:rdf="http://www.w3.org/1999/02/22-rdf-syntax-ns#"
   xmlns:svg="http://www.w3.org/2000/svg"
   xmlns="http://www.w3.org/2000/svg"
   xmlns:sodipodi="http://sodipodi.sourceforge.net/DTD/sodipodi-0.dtd"
   xmlns:inkscape="http://www.inkscape.org/namespaces/inkscape"
   width="150mm"
   height="150mm"
   viewBox="0 0 150 150"
   version="1.1"
   id="svg8"
   inkscape:version="0.92.2 (5c3e80d, 2017-08-06)"
   sodipodi:docname="prostate.svg">
  <defs
     id="defs2" />
  <sodipodi:namedview
     id="base"
     pagecolor="#ffffff"
     bordercolor="#666666"
     borderopacity="1.0"
     inkscape:pageopacity="0.0"
     inkscape:pageshadow="2"
     inkscape:zoom="0.98994949"
     inkscape:cx="348.6933"
     inkscape:cy="239.81303"
     inkscape:document-units="mm"
     inkscape:current-layer="layer1"
     showgrid="false"
     inkscape:window-width="1920"
     inkscape:window-height="1017"
     inkscape:window-x="-8"
     inkscape:window-y="-8"
     inkscape:window-maximized="1"
     units="mm"
     height="296mm" />
  <metadata
     id="metadata5">
    <rdf:RDF>
      <cc:Work
         rdf:about="">
        <dc:format>image/svg+xml</dc:format>
        <dc:type
           rdf:resource="http://purl.org/dc/dcmitype/StillImage" />
        <dc:title></dc:title>
      </cc:Work>
    </rdf:RDF>
  </metadata>
  <g
     inkscape:label="Layer 1"
     inkscape:groupmode="layer"
     id="layer1"
     transform="translate(0,-147)">
    <path
       style="stroke-width:0.29379058"
       d="m 54.970197,279.27101 c -0.08079,-0.0813 -1.35666,-0.35592 -2.835258,-0.61037 -7.243243,-1.24647 -13.764407,-4.8116 -21.517666,-11.76375 -8.020236,-7.19153 -15.145601,-16.26353 -20.206317,-25.72662 -0.6480977,-1.21189 -1.3915676,-2.60005 -1.6521557,-3.0848 -1.6273372,-3.02723 -4.5814723,-10.20409 -5.8325529,-14.16978 -2.72792802,-8.64701 -2.96735353,-17.7348 -0.705981,-26.79668 1.3252549,-5.31063 3.1339003,-9.61867 5.8269314,-13.87925 4.9002712,-7.7526 12.2298582,-13.25498 20.3274192,-15.25995 4.282488,-1.06035 14.474671,-1.03516 19.250815,0.0476 2.268804,0.51434 13.801586,2.57906 17.096668,3.06084 3.656523,0.53462 3.986755,0.6366 4.172892,1.28872 0.677114,2.37223 2.937736,14.88102 4.309033,23.84335 0.135981,0.88871 0.456738,4.25996 0.7128,7.49166 0.256062,3.23169 0.625868,6.80125 0.821797,7.93234 0.231099,1.33415 0.35623,5.5137 0.35623,11.89852 0,10.28732 0.01545,10.10866 -1.523971,17.62744 -0.248124,1.21188 -1.183967,4.71534 -2.079649,7.78545 -3.815709,13.07902 -4.245424,15.81797 -3.664409,23.35635 0.180584,2.34298 0.237194,4.34633 0.125801,4.45188 -1.022791,0.96915 -12.338785,3.15441 -12.982427,2.50706 z m 33.873508,-0.3464 c -2.575036,-0.62927 -4.8032,-2.15541 -8.907877,-6.1013 l -3.899574,-3.74873 0.17329,-2.42088 c 0.235041,-3.28355 1.781466,-9.56591 4.488849,-18.23597 0.70038,-2.24288 1.607429,-6.71054 2.813477,-13.85775 0.452599,-2.68218 0.558255,-4.29852 0.441697,-6.75718 -0.08427,-1.77744 -0.295715,-7.31223 -0.469886,-12.29955 -0.174174,-4.98732 -0.389584,-9.18582 -0.478694,-9.33 -0.08911,-0.14418 -0.609656,-4.1282 -1.156774,-8.85337 -0.910063,-7.85975 -2.424512,-17.46313 -3.509214,-22.25249 -0.551265,-2.43406 -0.552717,-2.83683 -0.01096,-3.04472 0.243194,-0.0933 2.076656,-0.37115 4.074361,-0.61739 1.997706,-0.24624 5.203029,-0.71856 7.122938,-1.0496 1.919901,-0.33104 5.804339,-1.00258 8.632073,-1.49231 11.000999,-1.90523 17.888489,-2.26079 22.474979,-1.16024 5.5327,1.3276 11.0725,4.25933 15.74578,8.33287 3.38314,2.94896 5.10296,5.27493 7.42987,10.04853 2.6337,5.40299 4.19276,10.15826 5.05689,15.42401 0.56413,3.4376 0.54278,12.38492 -0.0376,15.75276 -1.56323,9.0714 -5.98664,19.48357 -12.91785,30.40706 -6.01466,9.47902 -15.22138,19.30821 -23.21116,24.78051 -2.27673,1.55936 -7.72484,4.34235 -9.99537,5.10581 -4.818711,1.62029 -10.526151,2.18445 -13.859267,1.36993 z"
       id="path4584"
       inkscape:connector-curvature="0" />
  </g>
</svg>
