<?xml version="1.0" encoding="UTF-8" standalone="no"?>
<!-- Created with Inkscape (http://www.inkscape.org/) -->

<svg
   width="512"
   height="512"
   viewBox="0 0 135.46666 135.46667"
   version="1.1"
   id="svg37484"
   inkscape:version="1.1.2 (b8e25be833, 2022-02-05)"
   sodipodi:docname="testis.svg"
   xmlns:inkscape="http://www.inkscape.org/namespaces/inkscape"
   xmlns:sodipodi="http://sodipodi.sourceforge.net/DTD/sodipodi-0.dtd"
   xmlns="http://www.w3.org/2000/svg"
   xmlns:svg="http://www.w3.org/2000/svg">
  <sodipodi:namedview
     id="namedview37486"
     pagecolor="#ffffff"
     bordercolor="#666666"
     borderopacity="1.0"
     inkscape:pageshadow="2"
     inkscape:pageopacity="0.0"
     inkscape:pagecheckerboard="0"
     inkscape:document-units="mm"
     showgrid="false"
     units="px"
     inkscape:zoom="0.64052329"
     inkscape:cx="-358.30079"
     inkscape:cy="435.58135"
     inkscape:window-width="1920"
     inkscape:window-height="1009"
     inkscape:window-x="-8"
     inkscape:window-y="-8"
     inkscape:window-maximized="1"
     inkscape:current-layer="layer1" />
  <defs
     id="defs37481">
    <clipPath
       clipPathUnits="userSpaceOnUse"
       id="clipPath31914">
      <path
         id="path31916"
         style="fill:#ff0000;fill-opacity:1;fill-rule:nonzero;stroke:none;stroke-width:0.311682"
         d="m 39.026769,164.28358 c -0.0065,0.0673 -0.01387,0.16489 -0.01948,0.21854 -0.06203,0.59457 -0.183524,1.18131 -0.257502,1.77452 -0.08862,0.7108 -0.146213,1.1943 -0.201499,1.66372 0.324002,0.23077 0.646789,0.46163 0.969744,0.68607 -0.06895,-0.16218 -0.129142,-0.32697 -0.174102,-0.49614 -0.474925,-1.78693 0.141189,-0.29493 0.529616,0.73964 0.146378,0.0991 0.292632,0.19676 0.439518,0.29159 0.224458,0.14498 0.04317,0.53737 0.0036,0.80173 -0.01128,0.0755 -0.02525,0.15046 -0.03713,0.22584 0.103441,0.25571 0.182144,0.51759 0.211847,0.7926 0.257053,2.38106 -0.423208,3.0835 -1.430572,4.78541 -0.02855,0.0309 -0.05568,0.0632 -0.08401,0.0944 -0.07757,0.29005 -0.155012,0.58015 -0.231935,0.87052 0.07319,-0.0111 0.142538,-0.0233 0.217934,-0.0341 1.025031,-0.073 2.052044,0.009 3.076638,0.0597 -0.0025,-0.0361 0.171989,0.009 0.129666,0.007 -0.0432,-0.002 -0.08646,-0.005 -0.129666,-0.007 7.2e-5,9.4e-4 -9.35e-4,9.4e-4 -6.23e-4,0.002 0.385513,1.27199 0.787691,2.53869 1.194374,3.8041 0.164923,-0.10262 0.332196,-0.20155 0.50344,-0.29402 0.379897,-0.20517 1.049118,-0.45983 1.291167,-0.10228 1.390378,2.05381 2.694438,4.24717 3.460761,6.60559 l 0.325682,-0.85408 c 0.02238,-0.0846 -0.0201,-0.26269 0.06697,-0.25385 0.09,0.009 0.0424,0.1762 0.05418,0.26602 0.04076,0.32524 0.07622,0.65148 0.101665,0.97827 0.180152,2.31547 -0.622226,1.77108 -2.701648,5.40207 -1.634611,1.6338 -3.578374,2.92334 -5.66993,3.8942 -0.64197,0.84202 -1.35138,1.45372 -2.049064,1.34961 -5.980293,-0.89235 -6.328382,-2.09582 -6.026655,-4.6801 -0.621712,-0.22727 -1.244807,-0.4495 -1.874354,-0.63676 -0.184263,-0.75964 -0.475115,-1.50137 -0.552746,-2.27917 -0.06147,-0.61573 -0.0022,-1.24916 0.140622,-1.85122 0.05171,-0.21792 0.108493,-0.43479 0.169841,-0.65075 -0.307446,-0.11417 -0.639917,-0.23424 -1.023313,-0.361 -0.496899,-0.50144 -1.043429,-0.95815 -1.490839,-1.50422 -1.160432,-1.4163 -1.780672,-3.31562 -2.218906,-5.02831 -0.09893,-0.38663 -0.185039,-0.87159 0.04627,-1.19681 0.117495,-0.16521 0.247117,-0.32203 0.382296,-0.47543 9.35e-4,-0.0262 0.0012,-0.0524 -0.0019,-0.0785 -0.171808,-1.43284 -0.221409,0.0733 -0.234369,-2.26517 -0.0016,-0.2575 0.06414,-0.51153 0.09618,-0.76703 0.05875,-0.2833 0.120266,-0.56679 0.181411,-0.85043 -0.0051,-0.10702 -0.0039,-0.21077 0.0043,-0.31046 -0.223186,-0.62569 -0.473528,-1.25597 -0.917999,-2.30657 V 311.45517 H 157.87849 V 185.4061 c -1.03795,1.53017 -1.75729,3.35158 -3.17039,4.53887 -0.36168,0.30389 -0.77484,0.41385 -1.20715,0.40543 0.21835,0.25053 0.43301,0.50462 0.6404,0.76581 0.31807,0.40058 0.63365,0.80315 0.94418,1.20959 0.0331,0.0433 0.13238,0.16881 0.0864,0.1394 -0.19784,-0.1266 -0.36863,-0.29183 -0.55274,-0.43769 0.86797,0.73518 1.16535,0.88808 1.80556,2.09411 0.23414,0.44109 0.58754,0.94066 0.46387,1.42449 -0.43553,1.70389 -0.88835,3.54972 -2.06854,4.85359 -1.40828,1.55583 -3.55071,0.61784 -5.0344,0.21428 -1.52199,-0.91744 -0.89601,-0.4484 -2.20125,-1.90601 -0.1786,-1.6e-4 -0.35683,-0.008 -0.53388,-0.0359 -1.90545,-0.30012 -2.53026,-0.85942 -3.9642,-1.78122 -2.15389,-1.51947 -3.49674,-2.41516 -5.564,-4.08838 -1.25867,-1.01876 -2.49279,-2.06832 -3.71157,-3.13448 -0.0383,-0.0335 0.10348,0.0368 0.15158,0.0201 0.0788,-0.0273 0.27594,-0.0995 0.20515,-0.14367 -0.32957,-0.20555 -0.72778,-0.27277 -1.09149,-0.40908 h -6.3e-4 c -6.81813,-2.55732 -3.56061,-11.24513 3.25805,-8.68813 0.18716,0.0702 0.38222,0.12518 0.57284,0.18811 -0.13433,-0.65768 -0.26259,-1.34066 -0.41822,-2.13125 -0.27249,-3.07963 -0.51096,-6.19203 -0.25993,-9.2841 0.0324,-0.39846 0.14372,-0.78808 0.17714,-1.18646 0.0209,-0.24853 -0.013,-0.49815 -0.0146,-0.74755 -0.002,-0.31757 0.002,-0.63572 0.004,-0.95331 0.0131,-0.69905 0.0783,-1.37711 0.17532,-2.04906 z m 0.846777,4.58635 c -0.118476,-0.0802 -0.23719,-0.16129 -0.355514,-0.2435 0.180679,0.42491 0.422491,0.83161 0.622148,1.24855 0.0065,-0.074 0.01053,-0.14811 0.0067,-0.2222 -0.0019,-0.0383 -0.121322,-0.37798 -0.273329,-0.78285 z m 114.460834,-4.58635 c 0.0119,0.0199 0.024,0.0397 0.0359,0.0597 0.39962,0.10813 0.84453,0.22064 1.3417,0.33542 -0.021,-0.13599 -0.0365,-0.26192 -0.056,-0.39508 z M 26.822482,176.93165 c -0.07728,0.0607 -0.150105,0.11521 -0.216715,0.16193 -0.130205,0.5816 -0.260017,1.16308 -0.390213,1.74468 0.326842,-0.36341 0.694084,-0.6995 1.069579,-1.02879 -0.154151,-0.23436 -0.306735,-0.52792 -0.462651,-0.87782 z m 0.525356,0.68911 c -0.0051,0.0514 -0.01203,0.10194 -0.02132,0.15218 0.02556,-0.0223 0.05111,-0.0447 0.0767,-0.067 -0.01727,-0.0268 -0.03706,-0.0565 -0.0554,-0.0852 z m 11.971133,0.014 c -0.0036,-0.004 -0.09149,0.0678 -0.289768,0.22767 0.0066,0.0181 0.0134,0.0344 0.0201,0.0524 0.145543,-0.14827 0.273407,-0.2762 0.269676,-0.28003 z m -12.007659,0.21063 c -0.338739,1.5124 -2.356679,2.40992 0.725024,0.68789 -0.253543,-0.1181 -0.490955,-0.34154 -0.725024,-0.68789 z M 148.01431,180.586 c -0.86447,0.40902 -1.62181,0.78834 -1.02636,0.7932 0.51764,0.004 0.97146,-0.0146 1.37091,-0.0517 -0.0416,-0.14742 -0.0841,-0.29427 -0.12723,-0.44135 -0.0785,-0.103 -0.1505,-0.20135 -0.21732,-0.30011 z m -102.382566,3.56242 c -9.35e-4,2e-4 -0.0028,0.002 -0.0073,0.008 -0.04654,0.0599 -0.09153,0.12115 -0.13758,0.18141 0.01393,-0.0134 0.02877,-0.026 0.04261,-0.0396 0.03556,-0.0348 0.108063,-0.15116 0.102272,-0.14976 z m -9.760144,4.00073 c -0.01562,-2.5e-4 -0.16608,0.0855 -0.127837,0.0706 0.03326,-0.013 0.0671,-0.0271 0.100443,-0.0402 0.0083,-0.008 0.01664,-0.0162 0.02497,-0.0243 0.0042,-0.004 0.0046,-0.006 0.0025,-0.006 z m 113.44909,0.44439 c 0.19074,0.12395 0.36976,0.21559 0.51136,0.24472 -0.0787,-0.0719 -0.15755,-0.14355 -0.2362,-0.2155 -0.0935,-0.01 -0.18606,-0.0194 -0.27516,-0.0292 z m -114.111414,0.20028 c -0.08038,0.0393 -0.157574,0.0907 -0.23315,0.14853 0.007,0.0183 0.01424,0.0365 0.02132,0.0548 0.07065,-0.0677 0.141304,-0.13547 0.211844,-0.20332 z m -0.413343,0.30316 c -0.04083,0.0392 -0.08117,0.0807 -0.121141,0.12357 9.35e-4,0.0278 0.0025,0.054 0.0036,0.081 0.03684,-0.0352 0.07397,-0.0701 0.110794,-0.10532 0.0025,-0.0331 0.0046,-0.0661 0.0067,-0.0992 z m 116.051507,0.42064 c 0.009,0.004 0.0234,0.0132 0.031,0.0171 0.20318,0.10235 0.85879,0.30135 0.64528,0.22281 -0.22442,-0.0826 -0.45063,-0.16084 -0.67633,-0.23985 z m -107.774896,2.48007 c -0.0051,-0.005 -0.03241,0.0322 -0.0554,0.0609 -0.01106,0.0334 -0.02338,0.0664 -0.03409,0.0998 -0.01802,0.0564 0.07833,-0.0948 0.09009,-0.1528 9.35e-4,-0.004 3.12e-4,-0.007 -6.23e-4,-0.008 z m 106.220756,6.59584 c -0.30294,0.006 -0.60662,0.0393 -0.91009,0.0688 0.0158,0.0242 0.0305,0.0476 0.0457,0.0706 0.57653,0.0515 1.27255,-0.12887 1.18524,-0.13392 -0.10667,-0.006 -0.21383,-0.008 -0.32081,-0.005 z m -0.98314,0.0755 c -0.0544,0.005 -0.10881,0.009 -0.16314,0.014 0.0684,0.0194 0.14115,0.0332 0.21732,0.0426 -0.018,-0.0188 -0.0362,-0.0377 -0.0542,-0.0566 z m 0.26968,0.28125 c 0.0332,0.0468 0.0837,0.12236 0.10471,0.15036 0.11069,0.14777 0.27028,0.25164 0.40542,0.37743 -0.16823,-0.17762 -0.33958,-0.35228 -0.51013,-0.52779 z" />
    </clipPath>
  </defs>
  <g
     inkscape:label="Layer 1"
     inkscape:groupmode="layer"
     id="layer1">
    <path
       id="path23062" class="circle"
       style="fill:#808080;stroke-width:0.204645;fill-opacity:1"
       d="M 135.46666,67.733343 A 67.733332,67.733332 0 0 1 67.733331,135.46666 67.733332,67.733332 0 0 1 0,67.733343 67.733332,67.733332 0 0 1 67.733331,0 67.733332,67.733332 0 0 1 135.46666,67.733343 Z" />
    <path
       id="path39023"
       style="opacity:0.206497;fill:#000000;stroke:none;stroke-width:0.204645px;stroke-linecap:butt;stroke-linejoin:miter;stroke-opacity:1"
       d="m 37.273032,25.088838 -2.508502,4.121285 -0.895722,8.24216 4.479411,11.82586 3.583689,13.43823 -1.433715,12.36345 -4.83754,11.46732 -1.254252,7.16697 1.433316,11.467327 30.222735,30.22274 a 67.733331,67.733331 0 0 0 1.67074,0.0623 67.733331,67.733331 0 0 0 66.108778,-53.049067 L 79.738507,28.313982 53.220169,41.035563 Z" />
    <path
       d="m 71.793504,110.76579 c -0.726706,-0.0846 -1.925263,-0.35648 -2.663455,-0.60429 -6.27608,-2.1068 -9.329134,-7.93712 -10.710205,-20.452887 -0.318707,-2.88821 -0.443111,-13.69473 -0.190346,-16.53474 1.394819,-15.67204 7.697304,-28.37239 16.801293,-33.85683 4.481625,-2.69984 8.689343,-3.01906 12.864443,-0.97595 5.17511,2.53247 9.22944,8.34986 11.83521,16.98188 2.802356,9.2833 3.467616,22.24552 1.563416,30.46244 -2.734016,11.7977 -10.286596,20.768487 -20.226416,24.024527 -3.186987,1.04398 -6.01307,1.33526 -9.27394,0.95585 z m 10.06123,-3.80465 c 0.62148,-0.62148 0.53102,-1.8416 -0.19268,-2.59883 -0.31706,-0.33174 -0.70964,-0.9272 -0.8724,-1.32325 -0.749373,-1.82342 -2.288021,-2.8743 -4.299874,-2.93673 -1.792018,-0.0556 -1.949418,-0.144777 -2.56825,-1.454537 -0.941249,-1.99215 -2.247394,-2.83785 -4.467285,-2.89248 -1.533249,-0.0377 -1.770284,-0.18692 -2.395636,-1.50769 -0.836971,-1.76768 -2.063256,-2.63001 -3.341008,-2.34936 -0.727689,0.15983 -1.095075,0.72913 -1.095075,1.69695 0,0.64011 0.106753,0.90131 0.549119,1.3437 0.302014,0.302 0.717657,0.94089 0.923645,1.41972 0.451269,1.04902 1.457257,2.07118 2.450436,2.48986 0.42549,0.17938 1.271317,0.31742 2.028111,0.33101 1.496471,0.0268 1.790866,0.20055 2.282084,1.346517 0.838526,1.95621 2.292789,2.95941 4.290046,2.95941 1.615213,0 2.025148,0.20419 2.471405,1.23096 0.826336,1.90131 1.939124,2.86291 3.142512,2.71559 0.39108,-0.0479 0.88376,-0.25976 1.09485,-0.47084 z m 7.42595,-9.049907 c 1.19322,-0.61706 1.1254,-2.0923 -0.144,-3.13249 -0.44794,-0.36705 -1.04578,-1.00361 -1.32854,-1.4146 -1.39954,-2.03416 -2.86896,-2.84439 -5.48798,-3.02601 -2.175721,-0.15089 -2.725088,-0.44254 -3.933367,-2.08811 -1.482541,-2.01913 -2.882972,-2.74888 -5.73369,-2.98778 -2.083452,-0.17463 -2.414362,-0.35841 -3.614404,-2.00762 -1.027831,-1.41254 -2.079507,-2.20504 -3.109488,-2.34318 -0.642089,-0.0861 -0.804369,-0.0286 -1.29066,0.45771 -0.429798,0.4298 -0.554913,0.71495 -0.550427,1.25454 0.0062,0.76395 0.172381,1.04216 0.997805,1.67208 0.301085,0.22977 0.959742,0.96686 1.463692,1.63799 1.421213,1.89267 3.09828,2.7682 5.306251,2.77023 1.959334,0.002 2.700559,0.40754 4.055246,2.21994 1.441618,1.92868 2.842319,2.64879 5.506272,2.83084 1.93066,0.13194 2.71029,0.52756 3.55882,1.80593 0.98519,1.48426 2.44843,2.60449 3.42987,2.62583 0.18061,0.004 0.57419,-0.11996 0.8746,-0.2753 z m 8.29397,-11.11391 c 0.48565,-0.48566 0.6045,-1.47316 0.25573,-2.12484 -0.10568,-0.19747 -0.6728,-0.59188 -1.26024,-0.87644 -0.58745,-0.28457 -1.54792,-0.9105 -2.1344,-1.39098 -0.58646,-0.48047 -1.60003,-1.12512 -2.25238,-1.43254 -1.15861,-0.54602 -1.25791,-0.56018 -4.28813,-0.61127 -3.58951,-0.0605 -3.95674,-0.16032 -5.7362,-1.55874 -2.423667,-1.90469 -4.152402,-2.43103 -7.389449,-2.24986 -2.53025,0.14163 -3.267274,-0.0892 -5.304264,-1.66126 -1.523488,-1.17574 -2.999849,-1.87917 -3.943991,-1.87917 -0.3698,0 -0.732515,0.1778 -1.088099,0.53338 -1.008958,1.00897 -0.570358,2.40469 0.946393,3.01157 0.416184,0.16653 1.338963,0.75836 2.050618,1.31519 2.423025,1.89588 3.953142,2.36199 7.144361,2.17632 2.561289,-0.14903 3.476047,0.10158 5.05845,1.38583 0.630124,0.51138 1.761521,1.22739 2.514231,1.59112 l 1.36856,0.66134 3.01082,0.0391 c 3.51922,0.0455 4.02432,0.1829 5.71514,1.55424 2.28779,1.85551 4.395,2.455 5.33285,1.51714 z m 1.15441,-13.62183 c 0.70787,-0.24676 0.93575,-0.64113 0.93575,-1.61936 0,-0.96912 -0.56145,-1.55643 -1.6586,-1.73497 -0.44265,-0.0721 -1.3796,-0.44394 -2.08212,-0.82647 -1.93749,-1.05495 -3.12967,-1.33981 -5.09841,-1.21821 -0.93321,0.0577 -2.16967,0.27297 -2.83923,0.49445 -1.65682,0.54806 -2.63685,0.41992 -4.67206,-0.61085 -0.89282,-0.45218 -2.1408,-0.92251 -2.773297,-1.04516 -1.461851,-0.28349 -3.45227,-0.12919 -4.871651,0.37765 -1.663577,0.59403 -2.869397,0.44196 -4.926806,-0.62132 -3.282473,-1.6964 -5.382995,-1.44189 -5.382995,0.65222 0,0.9311 0.578852,1.52323 1.658597,1.69666 0.442645,0.0711 1.383012,0.44276 2.089717,0.82595 1.969683,1.06801 3.116279,1.33945 5.18109,1.22655 1.125387,-0.0616 2.134245,-0.23654 2.840191,-0.49268 1.508158,-0.5472 2.549865,-0.42317 4.443884,0.52913 2.80653,1.4111 4.85596,1.63497 7.52164,0.82163 2.14121,-0.65333 3.08609,-0.55422 5.20114,0.54545 1.42357,0.74018 2.54284,1.11122 3.56256,1.18101 0.16065,0.011 0.55243,-0.0708 0.8706,-0.18168 z M 74.890098,62.289703 c 0.474597,-0.21148 1.377846,-0.75079 2.007212,-1.19847 1.726182,-1.22788 2.298172,-1.34409 4.714384,-0.95784 3.0515,0.48779 4.64138,0.1454 7.11695,-1.53272 1.7489,-1.18554 2.61117,-1.38595 4.37755,-1.01745 2.40428,0.50159 4.44613,0.29994 5.00221,-0.49396 0.41839,-0.59734 0.35801,-1.76077 -0.11767,-2.2671 -0.34219,-0.36424 -0.57433,-0.42234 -1.68788,-0.42248 -0.71012,-7e-5 -1.90699,-0.13095 -2.6597,-0.29083 -2.51832,-0.5349 -4.64428,-0.0648 -6.97113,1.54145 -1.76589,1.21902 -2.68227,1.42596 -4.51202,1.01886 -0.93228,-0.20741 -1.806765,-0.27371 -2.743443,-0.20801 -1.729314,0.12131 -2.403588,0.32708 -3.658375,1.11647 -0.550612,0.34637 -1.361966,0.85531 -1.802994,1.13095 -0.970997,0.60688 -2.319845,0.76115 -3.700746,0.42327 -2.037701,-0.49857 -4.652916,-0.1513 -4.963933,0.65916 -0.272196,0.70935 -0.113876,1.74139 0.336193,2.19146 0.401814,0.40181 0.6004,0.44904 1.870363,0.44486 0.781444,-0.002 1.70823,0.0753 2.059482,0.17313 0.351268,0.0978 1.500857,0.15439 2.554653,0.12578 1.471326,-0.0399 2.116238,-0.14125 2.778894,-0.43653 z m -4.147458,-7.76442 c 2.388675,-0.0497 3.239661,-0.60174 4.747209,-3.07922 l 0.367819,-0.60448 1.830228,-0.0912 c 2.356763,-0.11749 3.315228,-0.66629 4.200378,-2.40508 0.62099,-1.21988 0.95568,-1.40217 2.36656,-1.28892 2.4853,0.1995 4.00248,-1.07194 3.29618,-2.76233 -0.29429,-0.70437 -1.27124,-1.15307 -1.97947,-0.90913 -0.22739,0.0783 -1.15245,0.14789 -2.0557,0.1546 -1.32235,0.01 -1.78952,0.0901 -2.39818,0.41194 -0.769313,0.40682 -2.072442,1.76128 -2.072442,2.15406 0,0.11894 -0.170185,0.43262 -0.378192,0.69706 -0.355321,0.45171 -0.471549,0.48079 -1.921845,0.48079 -0.981245,0 -1.79082,0.10309 -2.222063,0.28295 -0.870988,0.36329 -1.796637,1.25371 -2.266701,2.18046 -0.667273,1.31554 -0.811454,1.40441 -2.061176,1.27058 -2.126873,-0.22776 -3.740756,0.64112 -3.740756,2.01395 0,0.49985 0.139215,0.80595 0.556227,1.22296 0.502526,0.50254 0.630256,0.54412 1.322938,0.43075 0.421691,-0.069 1.505745,-0.14088 2.408986,-0.15971 z M 40.451897,107.61099 c -2.240178,-0.54701 -4.193581,-1.90708 -5.368276,-3.73768 -1.384471,-2.15752 -2.14193,-5.678447 -1.967576,-9.146017 0.196029,-3.89898 0.921844,-6.6255 3.594619,-13.50329 2.867769,-7.37957 3.674888,-10.49256 4.006011,-15.45076 0.388104,-5.81154 -0.338077,-8.99372 -3.823836,-16.7564 -1.977134,-4.40301 -2.833319,-6.70599 -3.493673,-9.39741 -0.368716,-1.50279 -0.315016,-6.948338 0.08908,-9.032486 0.680896,-3.511811 1.399324,-5.462319 2.156075,-5.853648 0.494986,-0.255968 0.588858,-0.255717 0.983101,0.0023 0.822967,0.539229 0.888908,0.92444 0.377124,2.202854 -0.721494,1.802251 -1.187522,3.803994 -1.398784,6.008129 -0.412388,4.302751 0.175373,6.633521 3.201183,12.694191 3.07191,6.15302 4.204469,10.46059 4.413844,16.78764 0.270508,8.17416 -1.421913,15.78901 -5.158002,23.20788 -1.330293,2.64162 -2.105389,5.31001 -2.456157,8.45575 -0.315968,2.83358 0.224264,4.69647 1.82664,6.298827 1.560742,1.56074 3.478143,2.12737 6.165495,1.82201 3.610019,-0.41019 5.827326,-2.537857 6.430076,-6.170127 0.272227,-1.64051 0.156208,-3.87518 -0.553782,-10.66649 -0.809036,-7.73879 -0.985262,-12.42107 -0.732557,-19.46432 0.117351,-3.27081 0.293287,-6.97334 0.390971,-8.22785 0.943796,-12.12087 3.34702,-21.35457 6.945376,-26.685537 1.885613,-2.793536 4.652921,-5.026178 7.340993,-5.922611 1.342305,-0.447639 1.72694,-0.49354 4.038254,-0.481914 7.447233,0.03744 12.393206,2.577582 14.124358,7.253918 0.45467,1.228173 0.37423,1.377134 -0.74617,1.38179 -0.369801,0.0015 -1.231987,0.121875 -1.915983,0.267409 -10.460889,2.225855 -19.606586,14.010335 -23.131658,29.805805 -1.284803,5.75705 -1.469937,7.89251 -1.45873,16.82547 0.01134,9.02054 0.272288,12.28136 1.45313,18.15619 0.08661,0.43088 -0.03797,0.78998 -0.585297,1.68674 -2.507733,4.109037 -6.319229,6.675757 -11.340502,7.636877 -1.578159,0.30207 -2.176609,0.3025 -3.405346,0.002 z"
       id="path4792"
       inkscape:connector-curvature="0"
       style="fill:#ffffff;stroke-width:0.582896" />
  </g>
</svg>
