<?xml version="1.0" encoding="UTF-8" standalone="no"?>
<!-- Created with Inkscape (http://www.inkscape.org/) -->

<svg
   xmlns:dc="http://purl.org/dc/elements/1.1/"
   xmlns:cc="http://creativecommons.org/ns#"
   xmlns:rdf="http://www.w3.org/1999/02/22-rdf-syntax-ns#"
   xmlns:svg="http://www.w3.org/2000/svg"
   xmlns="http://www.w3.org/2000/svg"
   xmlns:sodipodi="http://sodipodi.sourceforge.net/DTD/sodipodi-0.dtd"
   xmlns:inkscape="http://www.inkscape.org/namespaces/inkscape"
   width="150mm"
   height="150mm"
   viewBox="0 0 150 150"
   version="1.1"
   id="svg8"
   inkscape:version="0.92.2 (5c3e80d, 2017-08-06)"
   sodipodi:docname="testis.svg">
  <defs
     id="defs2" />
  <sodipodi:namedview
     id="base"
     pagecolor="#ffffff"
     bordercolor="#666666"
     borderopacity="1.0"
     inkscape:pageopacity="0.0"
     inkscape:pageshadow="2"
     inkscape:zoom="0.70710678"
     inkscape:cx="524.62919"
     inkscape:cy="72.328078"
     inkscape:document-units="mm"
     inkscape:current-layer="g4790"
     showgrid="false"
     inkscape:window-width="1920"
     inkscape:window-height="1017"
     inkscape:window-x="-8"
     inkscape:window-y="-8"
     inkscape:window-maximized="1"
     units="mm"
     height="296mm" />
  <metadata
     id="metadata5">
    <rdf:RDF>
      <cc:Work
         rdf:about="">
        <dc:format>image/svg+xml</dc:format>
        <dc:type
           rdf:resource="http://purl.org/dc/dcmitype/StillImage" />
        <dc:title></dc:title>
      </cc:Work>
    </rdf:RDF>
  </metadata>
  <g
     inkscape:label="Layer 1"
     inkscape:groupmode="layer"
     id="layer1"
     transform="translate(0,-147)">
    <g
       id="g4790"
       transform="translate(2.6458334,0.26458334)">
      <path
         d="m 80.146621,295.81766 c -1.246726,-0.14506 -3.302942,-0.61156 -4.569365,-1.0367 -10.767054,-3.61437 -16.004796,-13.6167 -18.37413,-35.08842 -0.546761,-4.95494 -0.760184,-23.49431 -0.32655,-28.36656 2.392911,-26.88653 13.205281,-48.67491 28.823827,-58.08388 7.688565,-4.63178 14.907217,-5.17941 22.069887,-1.67432 8.8783,4.34466 15.83379,14.32482 20.30418,29.13367 4.80767,15.92618 5.94897,38.16381 2.68216,52.26056 -4.69041,20.23979 -17.64741,35.62984 -34.699899,41.21582 -5.467507,1.79103 -10.31587,2.29074 -15.91011,1.63983 z m 17.26076,-6.52715 c 1.066197,-1.0662 0.911007,-3.1594 -0.330558,-4.45848 -0.543935,-0.56913 -1.217434,-1.59069 -1.496664,-2.27014 -1.285603,-3.12821 -3.925267,-4.93106 -7.37675,-5.03818 -3.074338,-0.0954 -3.344362,-0.24836 -4.406013,-2.49536 -1.61478,-3.41768 -3.855568,-4.86854 -7.663954,-4.96227 -2.630385,-0.0647 -3.037048,-0.32067 -4.109884,-2.58653 -1.435877,-3.03261 -3.539659,-4.51198 -5.731743,-4.03052 -1.248408,0.27421 -1.878677,1.25089 -1.878677,2.91125 0,1.09815 0.18314,1.54628 0.942053,2.30521 0.518128,0.51811 1.231192,1.61416 1.584585,2.43565 0.774184,1.79965 2.500024,3.55325 4.203894,4.27153 0.729962,0.30773 2.181044,0.54454 3.479369,0.56785 2.567298,0.046 3.07235,0.34408 3.915072,2.31007 1.43856,3.35603 3.933458,5.07708 7.359899,5.07708 2.771008,0 3.474286,0.3503 4.239867,2.1118 1.417643,3.26183 3.326701,4.91154 5.391216,4.6588 0.670927,-0.0821 1.516156,-0.44564 1.878288,-0.80776 z m 12.739759,-15.5258 c 2.04706,-1.05858 1.93071,-3.58948 -0.24704,-5.37399 -0.76846,-0.6297 -1.79411,-1.72177 -2.27921,-2.42685 -2.40101,-3.48976 -4.92191,-4.87976 -9.415025,-5.19136 -3.732611,-0.25885 -4.675102,-0.75919 -6.747977,-3.5823 -2.543407,-3.46395 -4.945949,-4.7159 -9.83657,-5.12576 -3.574307,-0.29957 -4.142014,-0.61488 -6.200751,-3.4442 -1.763328,-2.42332 -3.567561,-3.78291 -5.334573,-4.01992 -1.101535,-0.14775 -1.379947,-0.0491 -2.214217,0.78525 -0.737351,0.73736 -0.951991,1.22656 -0.9443,2.15227 0.01087,1.31059 0.295729,1.78789 1.711809,2.86855 0.516529,0.39419 1.646511,1.65873 2.511071,2.81009 2.438209,3.24703 5.315307,4.74907 9.103254,4.75254 3.361379,0.003 4.633001,0.69918 6.957073,3.80847 2.473198,3.3088 4.876208,4.54421 9.446399,4.85652 3.312206,0.22634 4.649707,0.90506 6.105427,3.09821 1.69016,2.54634 4.20047,4.46817 5.8842,4.5048 0.30986,0.007 0.98506,-0.20581 1.50043,-0.47232 z M 124.37606,254.698 c 0.83317,-0.83317 1.03707,-2.52731 0.43872,-3.64532 -0.18131,-0.33878 -1.15423,-1.01541 -2.16203,-1.50359 -1.00781,-0.4882 -2.65557,-1.56204 -3.66171,-2.38633 -1.00612,-0.82428 -2.74498,-1.93022 -3.86413,-2.45764 -1.98769,-0.93673 -2.15804,-0.96102 -7.35662,-1.04867 -6.15806,-0.10382 -6.78806,-0.27504 -9.840855,-2.67413 -4.157988,-3.26765 -7.123755,-4.17062 -12.677139,-3.85979 -4.340837,0.24297 -5.605247,-0.15303 -9.099858,-2.85001 -2.61365,-2.01708 -5.14644,-3.22387 -6.766201,-3.22387 -0.63441,0 -1.256672,0.30503 -1.866698,0.91507 -1.730955,1.73096 -0.978498,4.12541 1.623594,5.16656 0.714007,0.28569 2.297103,1.30102 3.517994,2.25631 4.156857,3.25251 6.781888,4.05216 12.256656,3.73362 4.394089,-0.25567 5.963414,0.17428 8.678157,2.3775 1.081011,0.87733 3.022011,2.10568 4.313335,2.72969 l 2.347865,1.13456 5.16528,0.0669 c 6.03748,0.0781 6.90401,0.31378 9.80474,2.66642 3.92487,3.18326 7.53995,4.21172 9.1489,2.60277 z m 1.98047,-23.36923 c 1.21441,-0.42334 1.60536,-1.09991 1.60536,-2.77815 0,-1.6626 -0.96322,-2.67016 -2.84547,-2.97646 -0.75938,-0.12358 -2.36679,-0.76161 -3.57203,-1.41787 -3.32389,-1.80984 -5.36917,-2.29855 -8.74668,-2.08993 -1.601,0.099 -3.72223,0.4683 -4.8709,0.84826 -2.84241,0.94024 -4.52372,0.72041 -8.015282,-1.04795 -1.53168,-0.77574 -3.672684,-1.58262 -4.757783,-1.79305 -2.507919,-0.48635 -5.922628,-0.22165 -8.357674,0.64788 -2.853993,1.01911 -4.922662,0.75823 -8.452296,-1.0659 -5.631312,-2.91031 -9.234917,-2.47369 -9.234917,1.11891 0,1.59738 0.99306,2.61322 2.845463,2.91074 0.759376,0.12196 2.37265,0.75961 3.585051,1.417 3.379125,1.83224 5.346193,2.29792 8.888534,2.10423 1.930683,-0.10561 3.661438,-0.4058 4.872548,-0.84522 2.58734,-0.93877 4.374473,-0.72598 7.623815,0.90775 4.814811,2.42084 8.330751,2.80491 12.903921,1.40956 3.67339,-1.12082 5.29443,-0.95081 8.92294,0.93578 2.44224,1.26982 4.36243,1.90637 6.11182,2.02609 0.27561,0.0188 0.94773,-0.12137 1.49358,-0.31167 z M 85.459034,212.65339 c 0.814215,-0.3628 2.363803,-1.28803 3.443527,-2.05606 2.961397,-2.10652 3.942689,-2.30589 8.087875,-1.64325 5.235064,0.83685 7.962624,0.24944 12.209634,-2.62949 3.00038,-2.03388 4.47966,-2.37771 7.51002,-1.7455 4.12472,0.8605 7.62765,0.51457 8.58165,-0.84744 0.71778,-1.02477 0.61419,-3.02072 -0.20186,-3.88937 -0.58705,-0.62488 -0.9853,-0.72457 -2.89569,-0.72479 -1.21827,-1.3e-4 -3.27157,-0.22466 -4.5629,-0.49894 -4.32037,-0.91766 -7.96761,-0.11118 -11.95949,2.64445 -3.02952,2.09132 -4.60163,2.44634 -7.7407,1.74795 -1.599406,-0.35583 -3.099644,-0.46958 -4.706586,-0.35685 -2.966764,0.20809 -4.12353,0.56111 -6.276215,1.91536 -0.944606,0.59423 -2.336531,1.46735 -3.093161,1.94024 -1.66581,1.04114 -3.979867,1.30581 -6.348886,0.72615 -3.495824,-0.85534 -7.982426,-0.25957 -8.515983,1.13084 -0.466979,1.21693 -0.19536,2.98749 0.576756,3.75961 0.689332,0.68933 1.030026,0.77036 3.208743,0.76319 1.34064,-0.004 2.930577,0.12924 3.533194,0.29701 0.602617,0.16777 2.57482,0.26487 4.382672,0.21579 2.524182,-0.0685 3.630562,-0.24233 4.7674,-0.7489 z m -7.115259,-13.32042 c 4.097948,-0.0854 5.557863,-1.03233 8.144178,-5.28264 l 0.631026,-1.03702 3.139875,-0.15651 c 4.043215,-0.20157 5.687537,-1.14308 7.206068,-4.1261 1.06535,-2.09279 1.639544,-2.40552 4.060008,-2.21123 4.26372,0.34225 6.86654,-1.839 5.65485,-4.73897 -0.5049,-1.20842 -2.18092,-1.97818 -3.39594,-1.55969 -0.3901,0.13437 -1.97711,0.25371 -3.5267,0.26522 -2.268589,0.0169 -3.070064,0.1545 -4.114254,0.7067 -1.319814,0.69795 -3.555427,3.02162 -3.555427,3.69547 0,0.20405 -0.291967,0.74218 -0.648817,1.19584 -0.609577,0.77495 -0.808985,0.82484 -3.29706,0.82484 -1.683391,0 -3.072284,0.17686 -3.812117,0.48543 -1.494243,0.62325 -3.082265,2.15083 -3.888687,3.74073 -1.144756,2.2569 -1.392108,2.40937 -3.536098,2.17977 -3.648788,-0.39074 -6.417534,1.09989 -6.417534,3.45509 0,0.85753 0.238835,1.38265 0.954255,2.09807 0.862125,0.86214 1.081249,0.93347 2.269598,0.73898 0.723439,-0.1184 2.583187,-0.24169 4.132776,-0.27398 z m -51.965971,91.0724 c -3.843194,-0.93844 -7.194392,-3.27173 -9.209678,-6.41227 -2.375162,-3.70138 -3.674631,-9.74178 -3.375523,-15.69066 0.336319,-6.68898 1.581495,-11.36653 6.166833,-23.16588 4.919868,-12.66018 6.304548,-18.00074 6.872608,-26.5069 0.665828,-9.97012 -0.579988,-15.42939 -6.560068,-28.74683 -3.391922,-7.55368 -4.860755,-11.50461 -5.993648,-16.12196 -0.63256,-2.57814 -0.540426,-11.92038 0.15282,-15.49588 1.168132,-6.02478 2.400647,-9.37101 3.698897,-10.04237 0.849196,-0.43913 1.010236,-0.4387 1.686591,0.004 1.411852,0.92508 1.524989,1.58594 0.646984,3.77915 -1.237773,3.0919 -2.037284,6.52603 -2.399708,10.30739 -0.707496,7.38168 0.300858,11.38028 5.491858,21.77783 5.270082,10.55595 7.213063,17.94589 7.572266,28.80041 0.464069,14.02337 -2.439396,27.0872 -8.848924,39.81482 -2.282226,4.5319 -3.611951,9.10971 -4.213726,14.50647 -0.542054,4.86119 0.384755,8.05711 3.133739,10.80609 2.67757,2.67757 5.967007,3.64965 10.577364,3.12578 6.193242,-0.70371 9.997202,-4.35389 11.031256,-10.58529 0.467033,-2.81442 0.267993,-6.64817 -0.950045,-18.29916 -1.38797,-13.27645 -1.690293,-21.30924 -1.256762,-33.39247 0.201324,-5.61131 0.503159,-11.96327 0.67074,-14.11548 1.619152,-20.79424 5.742064,-36.63531 11.915299,-45.78098 3.234897,-4.79252 7.982433,-8.62277 12.594018,-10.16067 2.302809,-0.76796 2.962692,-0.8467 6.927915,-0.82676 12.776257,0.0642 21.261435,4.42202 24.231363,12.44462 0.780008,2.10702 0.642005,2.36257 -1.280129,2.37056 -0.634408,0.002 -2.113559,0.20909 -3.287005,0.45877 -17.946399,3.81861 -33.636507,24.03577 -39.684034,51.13403 -2.204171,9.87666 -2.521792,13.54019 -2.502561,28.86534 0.01941,15.47539 0.467147,21.06957 2.492957,31.14826 0.148579,0.73922 -0.0652,1.35528 -1.004117,2.89374 -4.302203,7.04935 -10.84111,11.45274 -19.455468,13.10161 -2.707443,0.51822 -3.734131,0.51897 -5.842112,0.004 z"
         id="path4792"
         inkscape:connector-curvature="0" />
    </g>
  </g>
</svg>
