<?xml version="1.0" encoding="UTF-8" standalone="no"?>
<!-- Created with Inkscape (http://www.inkscape.org/) -->

<svg
   xmlns:dc="http://purl.org/dc/elements/1.1/"
   xmlns:cc="http://creativecommons.org/ns#"
   xmlns:rdf="http://www.w3.org/1999/02/22-rdf-syntax-ns#"
   xmlns:svg="http://www.w3.org/2000/svg"
   xmlns="http://www.w3.org/2000/svg"
   xmlns:sodipodi="http://sodipodi.sourceforge.net/DTD/sodipodi-0.dtd"
   xmlns:inkscape="http://www.inkscape.org/namespaces/inkscape"
   width="150mm"
   height="150mm"
   viewBox="0 0 150 150"
   version="1.1"
   id="svg8"
   inkscape:version="0.92.2 (5c3e80d, 2017-08-06)"
   sodipodi:docname="ureter.svg">
  <defs
     id="defs2" />
  <sodipodi:namedview
     id="base"
     pagecolor="#ffffff"
     bordercolor="#666666"
     borderopacity="1.0"
     inkscape:pageopacity="0.0"
     inkscape:pageshadow="2"
     inkscape:zoom="0.70710678"
     inkscape:cx="869.23757"
     inkscape:cy="16.764376"
     inkscape:document-units="mm"
     inkscape:current-layer="g4818"
     showgrid="false"
     inkscape:window-width="1920"
     inkscape:window-height="1017"
     inkscape:window-x="-8"
     inkscape:window-y="-8"
     inkscape:window-maximized="1"
     units="mm"
     height="296mm" />
  <metadata
     id="metadata5">
    <rdf:RDF>
      <cc:Work
         rdf:about="">
        <dc:format>image/svg+xml</dc:format>
        <dc:type
           rdf:resource="http://purl.org/dc/dcmitype/StillImage" />
        <dc:title></dc:title>
      </cc:Work>
    </rdf:RDF>
  </metadata>
  <g
     inkscape:label="Layer 1"
     inkscape:groupmode="layer"
     id="layer1"
     transform="translate(0,-147)">
    <g
       id="g4790"
       transform="translate(2.6458334,0.26458334)">
      <g
         id="g4818"
         transform="translate(19.083045,31.056719)">
        <path
           d="m 45.390066,263.22074 c -0.50128,-0.5539 -0.614339,-1.49811 -0.826456,-6.90217 -0.294769,-7.50977 -0.804879,-14.0351 -1.704987,-21.81023 -0.176625,-1.5257 -0.40831,-4.03326 -1.099527,-11.90029 -1.259859,-14.33903 -1.255305,-23.28928 0.01945,-38.23964 0.810078,-9.50059 0.971726,-25.44039 0.296074,-29.19542 -0.157023,-0.87268 -0.445972,-2.87194 -0.642105,-4.44277 -0.299275,-2.39688 -0.896334,-5.60044 -1.803903,-9.67891 -1.392842,-6.25927 -5.292118,-15.97514 -8.362246,-20.83635 -0.693563,-1.09817 -1.261024,-2.14298 -1.261024,-2.3218 0,-0.21136 2.276303,-0.32512 6.505499,-0.32512 3.578025,0 6.505499,0.074 6.505499,0.16451 0,0.0904 0.296036,1.26861 0.657856,2.61806 4.095661,15.27534 5.525745,36.62151 4.416424,65.92185 -0.423061,11.17419 -0.269077,32.90658 0.30242,42.68242 0.158154,2.70533 0.44497,10.41672 0.637367,17.13642 0.192398,6.71972 0.45385,13.46719 0.581002,14.9944 l 0.231187,2.77673 h -1.93591 c -1.539931,0 -2.054689,-0.13125 -2.516624,-0.64169 z m 11.342584,-2.45225 c 0.126115,-1.70182 0.386843,-8.44936 0.579396,-14.99452 0.192553,-6.54517 0.482825,-14.18516 0.64505,-16.97777 0.579821,-9.98121 0.721542,-30.98 0.286995,-42.52374 -1.109994,-29.48693 0.30393,-50.55455 4.424246,-65.92185 0.361821,-1.34945 0.657859,-2.52759 0.657859,-2.61806 0,-0.0904 2.927473,-0.16451 6.505489,-0.16451 4.039558,0 6.505501,0.1179 6.505501,0.31118 0,0.17115 -0.520527,1.1249 -1.156726,2.11944 -4.18213,6.53773 -8.292296,18.1525 -9.976698,28.19283 -1.532175,9.133 -1.768277,22.60645 -0.633919,36.17692 1.269805,15.19105 1.272911,23.90676 0.01355,38.23964 -0.17636,2.00718 -0.452186,5.14886 -0.612942,6.9815 -0.160756,1.83265 -0.365949,3.90331 -0.455988,4.60146 -0.767238,5.94868 -1.453613,14.58843 -1.74615,21.97955 -0.304133,7.68414 -0.30744,7.69178 -3.330812,7.69201 l -1.934199,1.5e-4 0.229297,-3.09423 z M 26.038577,140.82022 c -2.018685,-1.03986 -2.764866,-1.35562 -3.203439,-1.35562 -0.250029,0 -0.702568,-0.13299 -1.005642,-0.29553 -0.303073,-0.16253 -1.550667,-0.74344 -2.77243,-1.2909 -1.221765,-0.54745 -2.435596,-1.12939 -2.697404,-1.2932 -0.431792,-0.27017 -0.82031,-0.44602 -1.745377,-0.79002 -0.174538,-0.0649 -1.03136,-0.5486 -1.904049,-1.07486 -0.872689,-0.52627 -1.872314,-1.08617 -2.221391,-1.24424 -0.349076,-0.15808 -1.3987515,-0.80312 -2.3326144,-1.43344 -0.933863,-0.63031 -1.7642596,-1.14603 -1.8453271,-1.14603 -0.2717182,0 -8.4915396,-6.14086 -10.5784332,-7.90294 -3.1478068,-2.65784 -5.0774609,-4.56445 -5.0774609,-5.01679 0,-0.32512 2.1717683,-0.40861 10.6285209,-0.40861 9.9852387,0 10.6718867,0.0366 11.3449557,0.60387 0.39404,0.33214 1.813509,1.4784 3.154377,2.54724 4.655098,3.71071 8.980109,9.3187 11.833922,15.34434 1.59055,3.35835 1.707233,4.00978 0.8562,4.77996 -0.696225,0.63007 -1.175004,0.6255 -2.434408,-0.0233 z m 51.775839,-0.0319 c -0.288863,-0.31919 -0.525205,-0.86415 -0.525205,-1.21103 0,-0.93959 3.862322,-8.43085 5.421866,-10.51608 2.378772,-3.18063 5.409093,-6.39797 7.883721,-8.37031 1.321548,-1.05331 2.725206,-2.18684 3.119245,-2.51897 0.673068,-0.56733 1.359725,-0.60388 11.344977,-0.60388 11.04511,0 11.22421,0.0224 10.22175,1.2773 -0.35989,0.45052 -4.5982,4.09695 -8.38216,7.21158 -0.90119,0.74179 -1.77393,1.3487 -1.93941,1.3487 -0.1655,0 -0.4907,0.2287 -0.72268,0.50821 -0.36233,0.43658 -3.30897,2.50087 -4.257397,2.98255 -0.17454,0.0886 -1.102763,0.67471 -2.062716,1.30238 -1.581505,1.03405 -4.556355,2.74423 -6.188163,3.55744 -0.349074,0.17396 -0.848888,0.4378 -1.110693,0.58632 -0.261806,0.14853 -0.69022,0.35566 -0.952025,0.46031 -0.508917,0.20342 -4.235827,1.93 -5.152493,2.38704 -0.303065,0.1511 -0.821098,0.27473 -1.151173,0.27473 -0.330063,0 -0.777907,0.2142 -0.995179,0.47601 -0.217283,0.26181 -0.698878,0.48056 -1.070213,0.4861 -0.371346,0.006 -0.952372,0.21977 -1.291167,0.47602 -0.826411,0.62507 -1.55615,0.58695 -2.190885,-0.11442 z"
           id="path4820"
           inkscape:connector-curvature="0" />
      </g>
    </g>
  </g>
</svg>
