<?xml version="1.0" encoding="UTF-8" standalone="no"?>
<!-- Created with Inkscape (http://www.inkscape.org/) -->

<svg
   xmlns:dc="http://purl.org/dc/elements/1.1/"
   xmlns:cc="http://creativecommons.org/ns#"
   xmlns:rdf="http://www.w3.org/1999/02/22-rdf-syntax-ns#"
   xmlns:svg="http://www.w3.org/2000/svg"
   xmlns="http://www.w3.org/2000/svg"
   xmlns:xlink="http://www.w3.org/1999/xlink"
   xmlns:sodipodi="http://sodipodi.sourceforge.net/DTD/sodipodi-0.dtd"
   xmlns:inkscape="http://www.inkscape.org/namespaces/inkscape"
   width="150mm"
   height="150mm"
   viewBox="0 0 150 150"
   version="1.1"
   id="svg8"
   inkscape:version="0.92.2 (5c3e80d, 2017-08-06)"
   sodipodi:docname="urethra.svg">
  <defs
     id="defs2" />
  <sodipodi:namedview
     id="base"
     pagecolor="#ffffff"
     bordercolor="#666666"
     borderopacity="1.0"
     inkscape:pageopacity="0.0"
     inkscape:pageshadow="2"
     inkscape:zoom="0.98994949"
     inkscape:cx="348.6933"
     inkscape:cy="239.81303"
     inkscape:document-units="mm"
     inkscape:current-layer="layer1"
     showgrid="false"
     inkscape:window-width="1920"
     inkscape:window-height="1017"
     inkscape:window-x="-8"
     inkscape:window-y="-8"
     inkscape:window-maximized="1"
     units="mm"
     height="296mm" />
  <metadata
     id="metadata5">
    <rdf:RDF>
      <cc:Work
         rdf:about="">
        <dc:format>image/svg+xml</dc:format>
        <dc:type
           rdf:resource="http://purl.org/dc/dcmitype/StillImage" />
        <dc:title></dc:title>
      </cc:Work>
    </rdf:RDF>
  </metadata>
  <g
     inkscape:label="Layer 1"
     inkscape:groupmode="layer"
     id="layer1"
     transform="translate(0,-147)">
   
    <path
       style="stroke-width:0.11678438"
       d="m 73.522346,296.55537 c -1.87264,-0.47029 -3.447815,-1.40618 -4.872109,-2.89476 -1.768766,-1.8486 -2.611108,-3.64412 -2.940589,-6.26813 -0.151331,-1.20521 -0.467837,-2.46449 -0.703347,-2.79839 -0.235507,-0.33391 -3.136701,-2.88775 -6.447098,-5.67522 -7.094709,-5.97399 -8.480504,-7.41227 -9.656341,-10.02207 -2.867551,-6.36461 -1.787431,-12.25431 3.162262,-17.24327 3.723597,-3.75313 8.683167,-5.00251 14.264376,-3.5934 2.697964,0.68116 6.557918,2.3325 8.222138,3.51753 1.160033,0.82601 1.294695,0.81254 3.122902,-0.31236 2.363794,-1.45446 5.911377,-2.81206 8.864491,-3.3923 3.411306,-0.67026 6.453899,-0.30029 9.380987,1.14071 2.604981,1.28243 5.754192,4.57805 7.199572,7.53429 1.01104,2.06788 1.05656,2.31796 1.05656,5.80401 0,6.50883 -1.18434,8.30454 -10.766921,16.32492 -3.656797,3.06065 -6.772486,5.78597 -6.923747,6.05626 -0.151261,0.27029 -0.398008,1.47092 -0.548328,2.66807 -0.648246,5.16266 -4.438488,8.9284 -9.370935,9.31035 -1.018056,0.0788 -2.3878,0.009 -3.043873,-0.15624 z m 5.152665,-3.18511 c 0.784042,-0.35545 1.760384,-0.95817 2.169653,-1.33938 1.221926,-1.13814 2.265902,-3.56877 2.568751,-5.98066 0.164173,-1.30748 0.527332,-2.58385 0.861368,-3.02739 0.317637,-0.42177 3.565874,-3.28514 7.2183,-6.36305 7.088662,-5.97363 8.252293,-7.22359 9.402567,-10.10014 1.13743,-2.84444 1.03321,-5.96196 -0.29041,-8.68714 -2.175083,-4.47824 -5.710647,-7.08714 -10.10354,-7.45542 -3.312551,-0.27771 -7.695881,1.00486 -11.560023,3.38249 -1.918072,1.1802 -4.257037,1.30935 -5.657176,0.31236 -3.125747,-2.22573 -9.490246,-4.28196 -12.239522,-3.95434 -6.435481,0.76691 -12.072165,7.88002 -10.862372,13.70757 0.450946,2.17219 1.608112,4.87815 2.696016,6.30447 0.43599,0.5716 3.816944,3.59204 7.513232,6.71207 3.696291,3.12003 6.915121,5.99835 7.152956,6.39628 0.237836,0.39792 0.554177,1.69309 0.702976,2.87814 0.290371,2.31252 1.352518,4.7543 2.555453,5.87476 1.157229,1.07789 3.452509,1.98566 5.020712,1.98566 0.784041,0 2.067018,-0.29083 2.851059,-0.64628 z m -9.345139,-51.84563 c -1.21962,-0.42672 -3.144085,-0.86884 -4.276589,-0.98249 l -2.059098,-0.20664 -0.02142,-18.05671 c -0.02385,-20.12738 0.06655,-19.17044 -2.323667,-24.59293 -1.601241,-3.63259 -3.679999,-7.00685 -6.495135,-10.54297 -1.272339,-1.5982 -2.476661,-3.21098 -2.676273,-3.58396 -0.466329,-0.87134 -0.464869,-2.46944 0.0032,-3.35409 0.549326,-1.0387 4.112501,-5.28532 4.434616,-5.28532 0.75287,0 6.106311,3.00996 8.393808,4.71939 2.702287,2.01941 6.44258,5.82135 7.344018,7.46507 0.480685,0.8765 0.527627,3.36938 0.527627,28.02067 0,17.78877 -0.108524,27.07866 -0.316785,27.11721 -0.174231,0.0323 -1.314655,-0.29051 -2.534275,-0.71723 z m 10.446203,0.489 c -0.09428,-0.24568 -0.131121,-12.48439 -0.08187,-27.19713 0.0812,-24.25828 0.138704,-26.84006 0.617175,-27.71252 0.901439,-1.64372 4.641731,-5.44566 7.344019,-7.46507 2.287496,-1.70943 7.640937,-4.71939 8.393807,-4.71939 0.322116,0 3.88529,4.24662 4.434714,5.28532 0.46793,0.88465 0.46939,2.48275 0.003,3.35409 -0.19962,0.37298 -1.403942,1.98576 -2.676281,3.58396 -2.815136,3.53612 -4.893894,6.91038 -6.495135,10.54297 -2.39022,5.42249 -2.299804,4.46555 -2.323667,24.59293 l -0.02141,18.05671 -2.059098,0.21236 c -1.784513,0.18404 -4.593798,0.92079 -6.412213,1.68163 -0.353091,0.14774 -0.613412,0.07 -0.723118,-0.21586 z M 30.927531,215.29716 c -4.302394,-1.15879 -7.564303,-3.66664 -10.52361,-8.09086 -3.15938,-4.72332 -5.178146,-9.53663 -6.402252,-15.26479 -0.903971,-4.2301 -0.991308,-12.01816 -0.18023,-16.07163 1.711629,-8.55409 5.789238,-16.23552 11.950582,-22.51259 2.136777,-2.17691 3.212675,-2.99746 5.21153,-3.97465 2.343429,-1.14563 2.707483,-1.23025 5.226942,-1.21501 5.682748,0.0344 10.737901,2.52056 13.353469,6.56735 3.552284,5.49607 2.526875,13.54841 -2.408996,18.91741 -0.938892,1.02127 -1.988779,2.40905 -2.333085,3.08395 -0.92744,1.81793 -1.358745,4.67436 -1.017157,6.73636 0.418491,2.52623 0.815783,3.3834 2.726718,5.88296 4.609086,6.02885 5.29846,11.63507 2.16416,17.59966 -1.39833,2.66102 -4.346443,5.76998 -6.635444,6.99745 -3.287053,1.76269 -7.631634,2.28734 -11.132627,1.34439 z m 6.396045,-2.53233 c 4.223429,-1.10006 7.036325,-3.47642 9.139774,-7.72136 1.225543,-2.47324 1.325185,-2.86668 1.325185,-5.23249 0,-2.23397 -0.131729,-2.83633 -1.039462,-4.7532 -0.5717,-1.20727 -1.813888,-3.20613 -2.760411,-4.44189 -0.946527,-1.23578 -1.934124,-2.85104 -2.19466,-3.58949 -1.143462,-3.24091 -0.909143,-8.80759 0.485843,-11.54198 0.348573,-0.68327 1.401954,-2.07789 2.340846,-3.09917 3.449595,-3.7523 4.999884,-8.46064 4.08445,-12.40478 -1.159418,-4.99537 -4.711021,-7.93724 -10.981755,-9.09645 -2.132751,-0.39426 -4.155638,0.14747 -7.067171,1.8926 -4.476461,2.68311 -10.538047,11.64116 -12.946911,19.13345 -3.688788,11.47324 -1.847481,23.4498 5.232561,34.03458 2.5572,3.82306 5.105684,5.70141 9.249648,6.81743 2.170762,0.58461 2.896651,0.585 5.132063,0.003 z m 75.597294,2.51856 c -3.69895,-0.9947 -6.71486,-3.25488 -9.06958,-6.79688 -4.226188,-6.35709 -3.855797,-12.77424 1.09477,-18.96732 2.27109,-2.84109 2.96689,-4.89249 2.80299,-8.26398 -0.1612,-3.31621 -0.83562,-4.91216 -3.07893,-7.28604 -2.17309,-2.29958 -3.37507,-4.46536 -4.14163,-7.46259 -1.018143,-3.9809 -0.690461,-7.68554 0.96721,-10.93484 2.21792,-4.34748 7.78121,-7.33119 13.78212,-7.39163 2.72119,-0.0274 2.99166,0.0335 5.37832,1.21205 1.87498,0.92585 3.11942,1.85081 4.90135,3.64302 14.91549,15.00158 17.08756,37.36483 5.30352,54.60426 -1.04657,1.53108 -2.56073,3.34707 -3.3648,4.03551 -4.12977,3.53596 -9.70872,4.91715 -14.57534,3.60844 z m 8.03373,-3.00636 c 3.20413,-1.19881 5.30989,-2.8877 7.38421,-5.92236 10.79117,-15.78711 9.72046,-34.18788 -2.87589,-49.42361 -2.15966,-2.61218 -4.06298,-4.121 -6.75966,-5.3586 -2.36198,-1.08399 -4.18868,-1.06414 -7.66025,0.0832 -4.84121,1.60004 -7.04279,3.87616 -8.17089,8.44752 -0.47864,1.93958 -0.47698,2.25689 0.0236,4.50703 0.69014,3.10204 1.94688,5.47033 4.18658,7.88946 2.6494,2.86168 3.07063,4.01059 3.21003,8.75552 0.1404,4.77843 -0.35495,6.45736 -2.81203,9.53112 -2.86754,3.58725 -4.34662,7.70105 -3.75231,10.43643 0.74028,3.40724 3.26757,7.63269 5.46367,9.13486 4.21067,2.88019 7.68137,3.44651 11.76291,1.91941 z"
       id="path4571"
       inkscape:connector-curvature="0" />
  </g>
</svg>
