<?xml version="1.0" encoding="UTF-8" standalone="no"?>
<!-- Created with Inkscape (http://www.inkscape.org/) -->

<svg
   xmlns:dc="http://purl.org/dc/elements/1.1/"
   xmlns:cc="http://creativecommons.org/ns#"
   xmlns:rdf="http://www.w3.org/1999/02/22-rdf-syntax-ns#"
   xmlns:svg="http://www.w3.org/2000/svg"
   xmlns="http://www.w3.org/2000/svg"
   xmlns:sodipodi="http://sodipodi.sourceforge.net/DTD/sodipodi-0.dtd"
   xmlns:inkscape="http://www.inkscape.org/namespaces/inkscape"
   width="150mm"
   height="150mm"
   viewBox="0 0 150 150"
   version="1.1"
   id="svg8"
   inkscape:version="0.92.2 (5c3e80d, 2017-08-06)"
   sodipodi:docname="bladder.svg">
  <defs
     id="defs2" />
  <sodipodi:namedview
     id="base"
     pagecolor="#ffffff"
     bordercolor="#666666"
     borderopacity="1.0"
     inkscape:pageopacity="0.0"
     inkscape:pageshadow="2"
     inkscape:zoom="0.98994949"
     inkscape:cx="532.68451"
     inkscape:cy="362.81384"
     inkscape:document-units="mm"
     inkscape:current-layer="layer1"
     showgrid="false"
     inkscape:window-width="1920"
     inkscape:window-height="1017"
     inkscape:window-x="-8"
     inkscape:window-y="-8"
     inkscape:window-maximized="1"
     units="mm"
     height="296mm" />
  <metadata
     id="metadata5">
    <rdf:RDF>
      <cc:Work
         rdf:about="">
        <dc:format>image/svg+xml</dc:format>
        <dc:type
           rdf:resource="http://purl.org/dc/dcmitype/StillImage" />
        <dc:title></dc:title>
      </cc:Work>
    </rdf:RDF>
  </metadata>
  <g
     inkscape:label="Layer 1"
     inkscape:groupmode="layer"
     id="layer1"
     transform="translate(0,-147)">
    <g
       id="g4720"
       transform="translate(-1.6036173,-0.27264187)">
      <path        
         d="m 72.699452,293.36847 c -0.116112,-1.39229 -0.629154,-5.37296 -1.140092,-8.84593 -1.061819,-7.21742 -1.158582,-10.90149 -0.429371,-16.34766 0.649977,-4.85437 0.4424,-10.60937 -0.502126,-13.92129 -2.046961,-7.17755 -5.946736,-11.65247 -13.505101,-15.49685 -4.294751,-2.18443 -6.404698,-3.61931 -11.579803,-7.87489 -4.26543,-3.50754 -8.620415,-7.84497 -10.230863,-10.18962 -0.55363,-0.80603 -1.005953,-1.51057 -1.005167,-1.56565 9.4e-4,-0.0551 1.515557,-0.11792 3.366151,-0.13965 2.860652,-0.0336 3.69309,-0.16744 5.556632,-0.89352 4.672722,-1.82059 5.38064,-2.02159 7.154843,-2.03149 1.422717,-0.008 2.517336,0.26624 4.903138,1.22814 6.444786,2.59839 10.470731,2.49136 17.515931,-0.46566 2.72259,-1.14273 5.42626,-1.00259 8.730242,0.45252 5.876742,2.58818 10.690948,2.47578 17.433042,-0.40703 1.324682,-0.56641 2.432882,-0.80251 3.757562,-0.80054 1.82833,0.003 2.49464,0.18997 7.202,2.02406 1.86354,0.72608 2.69598,0.85994 5.55663,0.89352 1.85059,0.0217 3.36536,0.0911 3.36615,0.15411 0.005,0.36763 -2.64078,3.66294 -4.52685,5.63906 -2.54982,2.67154 -8.43637,7.71305 -11.94605,10.23112 -1.3335,0.95675 -4.103978,2.59576 -6.156619,3.64226 -7.753952,3.9532 -11.629037,8.36851 -13.691413,15.60011 -0.944526,3.31192 -1.152104,9.06692 -0.502127,13.92129 0.729212,5.44617 0.632449,9.13024 -0.42937,16.34766 -0.510938,3.47297 -1.02398,7.45364 -1.140092,8.84593 l -0.211115,2.53145 H 76.57809 72.910567 Z M 58.158466,250.63152 c -22.238919,-6.57445 -39.546913,-24.63177 -40.661511,-42.42189 -0.722247,-11.52779 6.152423,-21.35223 19.486988,-27.84844 6.592392,-3.21162 16.348549,-5.86596 26.129544,-7.10901 5.93334,-0.75407 20.995867,-0.75407 26.929207,0 31.416316,3.99266 48.675016,18.55308 45.252766,38.17777 -2.69884,15.47628 -17.10759,30.70484 -35.582463,37.60699 -3.472164,1.29719 -7.768879,2.5255 -8.005759,2.28862 -0.317883,-0.31789 1.577275,-2.42531 3.463485,-3.85141 1.054569,-0.79733 3.044672,-1.97535 4.422445,-2.61783 3.437272,-1.60286 7.355652,-4.25463 12.409332,-8.39804 11.76487,-9.64579 17.42236,-18.6142 18.00874,-28.54797 0.56284,-9.53507 -4.75204,-16.97434 -16.01408,-22.41493 -4.71542,-2.27798 -8.44658,-3.57575 -13.9343,-4.84665 -5.678458,-1.31507 -9.665339,-1.76937 -10.930151,-1.24546 -1.998132,0.82765 -2.556023,3.67104 -1.04708,5.33662 0.787673,0.86943 1.193071,1.00413 4.753657,1.5795 14.807264,2.39276 25.901214,8.14663 29.168244,15.1281 1.05997,2.2651 1.5183,5.76507 1.01034,7.71534 -0.26136,1.00347 -0.49546,1.18123 -2.77429,2.10654 -2.9439,1.19537 -5.01593,1.31224 -7.42848,0.41899 -0.89986,-0.33317 -2.61866,-0.97633 -3.81955,-1.42925 -4.34184,-1.63754 -9.5014,-1.3763 -14.099336,0.71389 -2.255328,1.02525 -2.770368,1.13847 -5.16665,1.13582 -2.378732,-0.003 -2.934417,-0.12406 -5.22851,-1.14243 -2.827892,-1.25535 -5.236183,-1.80356 -7.922964,-1.80356 -2.68678,0 -5.095071,0.54821 -7.922964,1.80356 -2.294093,1.01837 -2.849777,1.13979 -5.228509,1.14243 -2.396283,0.002 -2.911323,-0.11057 -5.16665,-1.13582 -4.597937,-2.09019 -9.757494,-2.35143 -14.099337,-0.71389 -1.200893,0.45292 -2.91969,1.09608 -3.819551,1.42925 -2.41255,0.89325 -4.484577,0.77638 -7.428475,-0.41899 -2.278834,-0.92531 -2.512937,-1.10307 -2.774297,-2.10654 -0.497076,-1.90851 -0.04913,-5.45129 0.962622,-7.61336 3.325115,-7.1056 14.280596,-12.81662 29.215966,-15.23008 3.560586,-0.57537 3.965983,-0.71007 4.753656,-1.5795 1.437973,-1.58725 0.977678,-4.42966 -0.852359,-5.26348 -1.079451,-0.49183 -2.214858,-0.47048 -5.80166,0.10911 -6.83265,1.10409 -13.295654,3.0471 -18.689408,5.61872 -4.910381,2.34115 -7.683269,4.21709 -10.622714,7.18656 -4.366664,4.41126 -6.315585,9.4866 -5.959467,15.51951 0.586468,9.9352 6.237354,18.90347 17.960985,28.50508 5.154623,4.22162 8.113619,6.242 11.817578,8.06894 3.505294,1.72895 6.378177,3.73552 7.653243,5.34542 1.518232,1.91692 1.440757,1.94261 -2.418283,0.80177 z m 19.939863,-66.33907 c 2.113366,-1.09286 2.049979,-4.46161 -0.102403,-5.4423 -1.606684,-0.73205 -3.357694,-0.20415 -4.102928,1.23697 -1.469837,2.84235 1.362978,5.67517 4.205331,4.20533 z m -55.938324,-6.36437 c -5.326369,-7.22432 -9.846697,-17.63081 -11.330557,-26.08468 -0.194889,-1.11032 -0.426983,-2.26536 -0.515764,-2.56675 -0.148442,-0.50391 0.199692,-0.54797 4.329519,-0.54797 h 4.49094 l 0.559407,2.71768 c 1.550745,7.53374 4.799047,14.94617 9.37004,21.38186 1.710302,2.408 1.830607,2.67977 1.316835,2.97474 -0.310985,0.17854 -1.903666,1.2053 -3.539289,2.28168 -1.635624,1.07639 -3.00737,1.95707 -3.048325,1.95707 -0.04096,0 -0.775718,-0.95114 -1.632806,-2.11363 z m 104.022665,0.11901 c -1.56462,-1.05573 -3.10606,-2.07038 -3.42544,-2.25478 -0.5343,-0.3085 -0.42883,-0.54606 1.32082,-2.97474 4.52163,-6.27646 7.82678,-13.80318 9.38458,-21.37121 l 0.55941,-2.71768 h 4.49094 c 4.12983,0 4.47796,0.0441 4.32952,0.54797 -0.0888,0.30139 -0.31464,1.42201 -0.5019,2.49027 -1.17373,6.69571 -4.41199,15.07084 -8.38466,21.68533 -1.66388,2.77034 -4.42888,6.60579 -4.72332,6.5519 -0.11286,-0.0207 -1.48534,-0.90133 -3.04995,-1.95706 z"
         id="path4734"
         inkscape:connector-curvature="0" />
      <path
         d="m 72.699452,293.36847 c -0.116112,-1.39229 -0.629154,-5.37296 -1.140092,-8.84593 -1.061819,-7.21742 -1.158582,-10.90149 -0.429371,-16.34766 0.649977,-4.85437 0.4424,-10.60937 -0.502126,-13.92129 -2.046961,-7.17755 -5.946736,-11.65247 -13.505101,-15.49685 -4.294751,-2.18443 -6.404698,-3.61931 -11.579803,-7.87489 -4.26543,-3.50754 -8.620415,-7.84497 -10.230863,-10.18962 -0.55363,-0.80603 -1.005953,-1.51057 -1.005167,-1.56565 9.4e-4,-0.0551 1.515557,-0.11792 3.366151,-0.13965 2.860652,-0.0336 3.69309,-0.16744 5.556632,-0.89352 4.672722,-1.82059 5.38064,-2.02159 7.154843,-2.03149 1.422717,-0.008 2.517336,0.26624 4.903138,1.22814 6.444786,2.59839 10.470731,2.49136 17.515931,-0.46566 2.72259,-1.14273 5.42626,-1.00259 8.730242,0.45252 5.876742,2.58818 10.690948,2.47578 17.433042,-0.40703 1.324682,-0.56641 2.432882,-0.80251 3.757562,-0.80054 1.82833,0.003 2.49464,0.18997 7.202,2.02406 1.86354,0.72608 2.69598,0.85994 5.55663,0.89352 1.85059,0.0217 3.36536,0.0911 3.36615,0.15411 0.005,0.36763 -2.64078,3.66294 -4.52685,5.63906 -2.54982,2.67154 -8.43637,7.71305 -11.94605,10.23112 -1.3335,0.95675 -4.103978,2.59576 -6.156619,3.64226 -7.753952,3.9532 -11.629037,8.36851 -13.691413,15.60011 -0.944526,3.31192 -1.152104,9.06692 -0.502127,13.92129 0.729212,5.44617 0.632449,9.13024 -0.42937,16.34766 -0.510938,3.47297 -1.02398,7.45364 -1.140092,8.84593 l -0.211115,2.53145 H 76.57809 72.910567 Z M 58.158466,250.63152 c -22.238919,-6.57445 -39.546913,-24.63177 -40.661511,-42.42189 -0.722247,-11.52779 6.152423,-21.35223 19.486988,-27.84844 6.592392,-3.21162 16.348549,-5.86596 26.129544,-7.10901 5.93334,-0.75407 20.995867,-0.75407 26.929207,0 31.416316,3.99266 48.675016,18.55308 45.252766,38.17777 -2.69884,15.47628 -17.10759,30.70484 -35.582463,37.60699 -3.472164,1.29719 -7.768879,2.5255 -8.005759,2.28862 -0.317883,-0.31789 1.577275,-2.42531 3.463485,-3.85141 1.054569,-0.79733 3.044672,-1.97535 4.422445,-2.61783 3.437272,-1.60286 7.355652,-4.25463 12.409332,-8.39804 11.76487,-9.64579 17.42236,-18.6142 18.00874,-28.54797 0.56284,-9.53507 -4.75204,-16.97434 -16.01408,-22.41493 -4.71542,-2.27798 -8.44658,-3.57575 -13.9343,-4.84665 -5.678458,-1.31507 -9.665339,-1.76937 -10.930151,-1.24546 -1.998132,0.82765 -2.556023,3.67104 -1.04708,5.33662 0.787673,0.86943 1.193071,1.00413 4.753657,1.5795 14.807264,2.39276 25.901214,8.14663 29.168244,15.1281 1.05997,2.2651 1.5183,5.76507 1.01034,7.71534 -0.26136,1.00347 -0.49546,1.18123 -2.77429,2.10654 -2.9439,1.19537 -5.01593,1.31224 -7.42848,0.41899 -0.89986,-0.33317 -2.61866,-0.97633 -3.81955,-1.42925 -4.34184,-1.63754 -9.5014,-1.3763 -14.099336,0.71389 -2.255328,1.02525 -2.770368,1.13847 -5.16665,1.13582 -2.378732,-0.003 -2.934417,-0.12406 -5.22851,-1.14243 -2.827892,-1.25535 -5.236183,-1.80356 -7.922964,-1.80356 -2.68678,0 -5.095071,0.54821 -7.922964,1.80356 -2.294093,1.01837 -2.849777,1.13979 -5.228509,1.14243 -2.396283,0.002 -2.911323,-0.11057 -5.16665,-1.13582 -4.597937,-2.09019 -9.757494,-2.35143 -14.099337,-0.71389 -1.200893,0.45292 -2.91969,1.09608 -3.819551,1.42925 -2.41255,0.89325 -4.484577,0.77638 -7.428475,-0.41899 -2.278834,-0.92531 -2.512937,-1.10307 -2.774297,-2.10654 -0.497076,-1.90851 -0.04913,-5.45129 0.962622,-7.61336 3.325115,-7.1056 14.280596,-12.81662 29.215966,-15.23008 3.560586,-0.57537 3.965983,-0.71007 4.753656,-1.5795 1.437973,-1.58725 0.977678,-4.42966 -0.852359,-5.26348 -1.079451,-0.49183 -2.214858,-0.47048 -5.80166,0.10911 -6.83265,1.10409 -13.295654,3.0471 -18.689408,5.61872 -4.910381,2.34115 -7.683269,4.21709 -10.622714,7.18656 -4.366664,4.41126 -6.315585,9.4866 -5.959467,15.51951 0.586468,9.9352 6.237354,18.90347 17.960985,28.50508 5.154623,4.22162 8.113619,6.242 11.817578,8.06894 3.505294,1.72895 6.378177,3.73552 7.653243,5.34542 1.518232,1.91692 1.440757,1.94261 -2.418283,0.80177 z m 20.635623,-66.80816 c 2.017038,-2.01704 0.636929,-5.3473 -2.215999,-5.3473 -1.831023,0 -3.131303,1.30028 -3.131303,3.1313 0,1.0201 0.197454,1.49815 0.915305,2.216 0.717848,0.71785 1.195895,0.9153 2.215998,0.9153 1.020104,0 1.49815,-0.19745 2.215999,-0.9153 z m -56.634084,-5.89528 c -5.326369,-7.22432 -9.846697,-17.63081 -11.330557,-26.08468 -0.194889,-1.11032 -0.426983,-2.26536 -0.515764,-2.56675 -0.148442,-0.50391 0.199692,-0.54797 4.329519,-0.54797 h 4.49094 l 0.559407,2.71768 c 1.550745,7.53374 4.799047,14.94617 9.37004,21.38186 1.710302,2.408 1.830607,2.67977 1.316835,2.97474 -0.310985,0.17854 -1.903666,1.2053 -3.539289,2.28168 -1.635624,1.07639 -3.00737,1.95707 -3.048325,1.95707 -0.04096,0 -0.775718,-0.95114 -1.632806,-2.11363 z m 104.022665,0.11901 c -1.56462,-1.05573 -3.10606,-2.07038 -3.42544,-2.25478 -0.5343,-0.3085 -0.42883,-0.54606 1.32082,-2.97474 4.52163,-6.27646 7.82678,-13.80318 9.38458,-21.37121 l 0.55941,-2.71768 h 4.49094 c 4.12983,0 4.47796,0.0441 4.32952,0.54797 -0.0888,0.30139 -0.31464,1.42201 -0.5019,2.49027 -1.17373,6.69571 -4.41199,15.07084 -8.38466,21.68533 -1.66388,2.77034 -4.42888,6.60579 -4.72332,6.5519 -0.11286,-0.0207 -1.48534,-0.90133 -3.04995,-1.95706 z"
         id="path4732"
         inkscape:connector-curvature="0" />
      <path
         d="m 72.699452,293.36847 c -0.116112,-1.39229 -0.629154,-5.37296 -1.140092,-8.84593 -1.061819,-7.21742 -1.158582,-10.90149 -0.429371,-16.34766 0.649977,-4.85437 0.4424,-10.60937 -0.502126,-13.92129 -2.046961,-7.17755 -5.946736,-11.65247 -13.505101,-15.49685 -4.294751,-2.18443 -6.404698,-3.61931 -11.579803,-7.87489 -4.26543,-3.50754 -8.620415,-7.84497 -10.230863,-10.18962 -0.55363,-0.80603 -1.005953,-1.51057 -1.005167,-1.56565 9.4e-4,-0.0551 1.515557,-0.11792 3.366151,-0.13965 2.860652,-0.0336 3.69309,-0.16744 5.556632,-0.89352 4.672722,-1.82059 5.38064,-2.02159 7.154843,-2.03149 1.422717,-0.008 2.517336,0.26624 4.903138,1.22814 6.444786,2.59839 10.470731,2.49136 17.515931,-0.46566 2.72259,-1.14273 5.42626,-1.00259 8.730242,0.45252 5.876742,2.58818 10.690948,2.47578 17.433042,-0.40703 1.324682,-0.56641 2.432882,-0.80251 3.757562,-0.80054 1.82833,0.003 2.49464,0.18997 7.202,2.02406 1.86354,0.72608 2.69598,0.85994 5.55663,0.89352 1.85059,0.0217 3.36536,0.0911 3.36615,0.15411 0.005,0.36763 -2.64078,3.66294 -4.52685,5.63906 -2.54982,2.67154 -8.43637,7.71305 -11.94605,10.23112 -1.3335,0.95675 -4.103978,2.59576 -6.156619,3.64226 -7.753952,3.9532 -11.629037,8.36851 -13.691413,15.60011 -0.944526,3.31192 -1.152104,9.06692 -0.502127,13.92129 0.729212,5.44617 0.632449,9.13024 -0.42937,16.34766 -0.510938,3.47297 -1.02398,7.45364 -1.140092,8.84593 l -0.211115,2.53145 H 76.57809 72.910567 Z M 58.158466,250.63152 c -22.238919,-6.57445 -39.546913,-24.63177 -40.661511,-42.42189 -0.722247,-11.52779 6.152423,-21.35223 19.486988,-27.84844 6.592392,-3.21162 16.348549,-5.86596 26.129544,-7.10901 5.93334,-0.75407 20.995867,-0.75407 26.929207,0 31.416316,3.99266 48.675016,18.55308 45.252766,38.17777 -2.69884,15.47628 -17.10759,30.70484 -35.582463,37.60699 -3.472164,1.29719 -7.768879,2.5255 -8.005759,2.28862 -0.317883,-0.31789 1.577275,-2.42531 3.463485,-3.85141 1.054569,-0.79733 3.044672,-1.97535 4.422445,-2.61783 3.437272,-1.60286 7.355652,-4.25463 12.409332,-8.39804 11.76487,-9.64579 17.42236,-18.6142 18.00874,-28.54797 0.56284,-9.53507 -4.75204,-16.97434 -16.01408,-22.41493 -4.71542,-2.27798 -8.44658,-3.57575 -13.9343,-4.84665 -5.678458,-1.31507 -9.665339,-1.76937 -10.930151,-1.24546 -1.998132,0.82765 -2.556023,3.67104 -1.04708,5.33662 0.787673,0.86943 1.193071,1.00413 4.753657,1.5795 14.807264,2.39276 25.901214,8.14663 29.168244,15.1281 1.05997,2.2651 1.5183,5.76507 1.01034,7.71534 -0.26136,1.00347 -0.49546,1.18123 -2.77429,2.10654 -2.9439,1.19537 -5.01593,1.31224 -7.42848,0.41899 -0.89986,-0.33317 -2.61866,-0.97633 -3.81955,-1.42925 -4.34184,-1.63754 -9.5014,-1.3763 -14.099336,0.71389 -2.255328,1.02525 -2.770368,1.13847 -5.16665,1.13582 -2.378732,-0.003 -2.934417,-0.12406 -5.22851,-1.14243 -2.827892,-1.25535 -5.236183,-1.80356 -7.922964,-1.80356 -2.68678,0 -5.095071,0.54821 -7.922964,1.80356 -2.294093,1.01837 -2.849777,1.13979 -5.228509,1.14243 -2.396283,0.002 -2.911323,-0.11057 -5.16665,-1.13582 -4.597937,-2.09019 -9.757494,-2.35143 -14.099337,-0.71389 -1.200893,0.45292 -2.91969,1.09608 -3.819551,1.42925 -2.41255,0.89325 -4.484577,0.77638 -7.428475,-0.41899 -2.278834,-0.92531 -2.512937,-1.10307 -2.774297,-2.10654 -0.497076,-1.90851 -0.04913,-5.45129 0.962622,-7.61336 3.325115,-7.1056 14.280596,-12.81662 29.215966,-15.23008 3.560586,-0.57537 3.965983,-0.71007 4.753656,-1.5795 1.437973,-1.58725 0.977678,-4.42966 -0.852359,-5.26348 -1.079451,-0.49183 -2.214858,-0.47048 -5.80166,0.10911 -6.83265,1.10409 -13.295654,3.0471 -18.689408,5.61872 -4.910381,2.34115 -7.683269,4.21709 -10.622714,7.18656 -4.366664,4.41126 -6.315585,9.4866 -5.959467,15.51951 0.586468,9.9352 6.237354,18.90347 17.960985,28.50508 5.154623,4.22162 8.113619,6.242 11.817578,8.06894 3.505294,1.72895 6.378177,3.73552 7.653243,5.34542 1.518232,1.91692 1.440757,1.94261 -2.418283,0.80177 z m 20.635623,-66.80816 c 2.017038,-2.01704 0.636929,-5.3473 -2.215999,-5.3473 -1.831023,0 -3.131303,1.30028 -3.131303,3.1313 0,1.0201 0.197454,1.49815 0.915305,2.216 0.717848,0.71785 1.195895,0.9153 2.215998,0.9153 1.020104,0 1.49815,-0.19745 2.215999,-0.9153 z m -56.634084,-5.89528 c -5.326369,-7.22432 -9.846697,-17.63081 -11.330557,-26.08468 -0.194889,-1.11032 -0.426983,-2.26536 -0.515764,-2.56675 -0.148442,-0.50391 0.199692,-0.54797 4.329519,-0.54797 h 4.49094 l 0.559407,2.71768 c 1.550745,7.53374 4.799047,14.94617 9.37004,21.38186 1.710302,2.408 1.830607,2.67977 1.316835,2.97474 -0.310985,0.17854 -1.903666,1.2053 -3.539289,2.28168 -1.635624,1.07639 -3.00737,1.95707 -3.048325,1.95707 -0.04096,0 -0.775718,-0.95114 -1.632806,-2.11363 z m 104.022665,0.11901 c -1.56462,-1.05573 -3.10606,-2.07038 -3.42544,-2.25478 -0.5343,-0.3085 -0.42883,-0.54606 1.32082,-2.97474 4.52163,-6.27646 7.82678,-13.80318 9.38458,-21.37121 l 0.55941,-2.71768 h 4.49094 c 4.12983,0 4.47796,0.0441 4.32952,0.54797 -0.0888,0.30139 -0.31464,1.42201 -0.5019,2.49027 -1.17373,6.69571 -4.41199,15.07084 -8.38466,21.68533 -1.66388,2.77034 -4.42888,6.60579 -4.72332,6.5519 -0.11286,-0.0207 -1.48534,-0.90133 -3.04995,-1.95706 z"
         id="path4730"
         inkscape:connector-curvature="0" />
      <path
         d="m 72.699452,293.36847 c -0.116112,-1.39229 -0.629154,-5.37296 -1.140092,-8.84593 -1.061819,-7.21742 -1.158582,-10.90149 -0.429371,-16.34766 0.649977,-4.85437 0.4424,-10.60937 -0.502126,-13.92129 -2.046961,-7.17755 -5.946736,-11.65247 -13.505101,-15.49685 -4.294751,-2.18443 -6.404698,-3.61931 -11.579803,-7.87489 -4.26543,-3.50754 -8.620415,-7.84497 -10.230863,-10.18962 -0.55363,-0.80603 -1.005953,-1.51057 -1.005167,-1.56565 9.4e-4,-0.0551 1.515557,-0.11792 3.366151,-0.13965 2.860652,-0.0336 3.69309,-0.16744 5.556632,-0.89352 4.672722,-1.82059 5.38064,-2.02159 7.154843,-2.03149 1.422717,-0.008 2.517336,0.26624 4.903138,1.22814 6.444786,2.59839 10.470731,2.49136 17.515931,-0.46566 2.72259,-1.14273 5.42626,-1.00259 8.730242,0.45252 5.876742,2.58818 10.690948,2.47578 17.433042,-0.40703 1.324682,-0.56641 2.432882,-0.80251 3.757562,-0.80054 1.82833,0.003 2.49464,0.18997 7.202,2.02406 1.86354,0.72608 2.69598,0.85994 5.55663,0.89352 1.85059,0.0217 3.36536,0.0911 3.36615,0.15411 0.005,0.36763 -2.64078,3.66294 -4.52685,5.63906 -2.54982,2.67154 -8.43637,7.71305 -11.94605,10.23112 -1.3335,0.95675 -4.103978,2.59576 -6.156619,3.64226 -7.753952,3.9532 -11.629037,8.36851 -13.691413,15.60011 -0.944526,3.31192 -1.152104,9.06692 -0.502127,13.92129 0.729212,5.44617 0.632449,9.13024 -0.42937,16.34766 -0.510938,3.47297 -1.02398,7.45364 -1.140092,8.84593 l -0.211115,2.53145 H 76.57809 72.910567 Z M 58.158466,250.63152 c -22.238919,-6.57445 -39.546913,-24.63177 -40.661511,-42.42189 -0.722247,-11.52779 6.152423,-21.35223 19.486988,-27.84844 6.592392,-3.21162 16.348549,-5.86596 26.129544,-7.10901 5.93334,-0.75407 20.995867,-0.75407 26.929207,0 31.416316,3.99266 48.675016,18.55308 45.252766,38.17777 -2.69884,15.47628 -17.10759,30.70484 -35.582463,37.60699 -3.472164,1.29719 -7.768879,2.5255 -8.005759,2.28862 -0.317883,-0.31789 1.577275,-2.42531 3.463485,-3.85141 1.054569,-0.79733 3.044672,-1.97535 4.422445,-2.61783 3.437272,-1.60286 7.355652,-4.25463 12.409332,-8.39804 11.76487,-9.64579 17.42236,-18.6142 18.00874,-28.54797 0.56284,-9.53507 -4.75204,-16.97434 -16.01408,-22.41493 -4.71542,-2.27798 -8.44658,-3.57575 -13.9343,-4.84665 -5.678458,-1.31507 -9.665339,-1.76937 -10.930151,-1.24546 -1.998132,0.82765 -2.556023,3.67104 -1.04708,5.33662 0.787673,0.86943 1.193071,1.00413 4.753657,1.5795 14.807264,2.39276 25.901214,8.14663 29.168244,15.1281 1.05997,2.2651 1.5183,5.76507 1.01034,7.71534 -0.26136,1.00347 -0.49546,1.18123 -2.77429,2.10654 -2.9439,1.19537 -5.01593,1.31224 -7.42848,0.41899 -0.89986,-0.33317 -2.61866,-0.97633 -3.81955,-1.42925 -4.34184,-1.63754 -9.5014,-1.3763 -14.099336,0.71389 -2.255328,1.02525 -2.770368,1.13847 -5.16665,1.13582 -2.378732,-0.003 -2.934417,-0.12406 -5.22851,-1.14243 -2.827892,-1.25535 -5.236183,-1.80356 -7.922964,-1.80356 -2.68678,0 -5.095071,0.54821 -7.922964,1.80356 -2.294093,1.01837 -2.849777,1.13979 -5.228509,1.14243 -2.396283,0.002 -2.911323,-0.11057 -5.16665,-1.13582 -4.597937,-2.09019 -9.757494,-2.35143 -14.099337,-0.71389 -1.200893,0.45292 -2.91969,1.09608 -3.819551,1.42925 -2.41255,0.89325 -4.484577,0.77638 -7.428475,-0.41899 -2.278834,-0.92531 -2.512937,-1.10307 -2.774297,-2.10654 -0.497076,-1.90851 -0.04913,-5.45129 0.962622,-7.61336 3.325115,-7.1056 14.280596,-12.81662 29.215966,-15.23008 3.560586,-0.57537 3.965983,-0.71007 4.753656,-1.5795 1.437973,-1.58725 0.977678,-4.42966 -0.852359,-5.26348 -1.079451,-0.49183 -2.214858,-0.47048 -5.80166,0.10911 -6.83265,1.10409 -13.295654,3.0471 -18.689408,5.61872 -4.910381,2.34115 -7.683269,4.21709 -10.622714,7.18656 -4.366664,4.41126 -6.315585,9.4866 -5.959467,15.51951 0.586468,9.9352 6.237354,18.90347 17.960985,28.50508 5.154623,4.22162 8.113619,6.242 11.817578,8.06894 3.505294,1.72895 6.378177,3.73552 7.653243,5.34542 1.518232,1.91692 1.440757,1.94261 -2.418283,0.80177 z m 20.799415,-66.64437 c 0.872788,-0.87279 1.064643,-1.30164 1.064643,-2.37979 0,-1.07815 -0.191855,-1.507 -1.064643,-2.37979 -0.872788,-0.87279 -1.301639,-1.06464 -2.379791,-1.06464 -1.078151,0 -1.507002,0.19185 -2.37979,1.06464 -0.872788,0.87279 -1.064643,1.30164 -1.064643,2.37979 0,1.07815 0.191855,1.507 1.064643,2.37979 0.872788,0.87279 1.301639,1.06464 2.37979,1.06464 1.078152,0 1.507003,-0.19185 2.379791,-1.06464 z m -56.797876,-6.05907 c -5.326369,-7.22432 -9.846697,-17.63081 -11.330557,-26.08468 -0.194889,-1.11032 -0.426983,-2.26536 -0.515764,-2.56675 -0.148442,-0.50391 0.199692,-0.54797 4.329519,-0.54797 h 4.49094 l 0.559407,2.71768 c 1.550745,7.53374 4.799047,14.94617 9.37004,21.38186 1.710302,2.408 1.830607,2.67977 1.316835,2.97474 -0.310985,0.17854 -1.903666,1.2053 -3.539289,2.28168 -1.635624,1.07639 -3.00737,1.95707 -3.048325,1.95707 -0.04096,0 -0.775718,-0.95114 -1.632806,-2.11363 z m 104.022665,0.11901 c -1.56462,-1.05573 -3.10606,-2.07038 -3.42544,-2.25478 -0.5343,-0.3085 -0.42883,-0.54606 1.32082,-2.97474 4.52163,-6.27646 7.82678,-13.80318 9.38458,-21.37121 l 0.55941,-2.71768 h 4.49094 c 4.12983,0 4.47796,0.0441 4.32952,0.54797 -0.0888,0.30139 -0.31464,1.42201 -0.5019,2.49027 -1.17373,6.69571 -4.41199,15.07084 -8.38466,21.68533 -1.66388,2.77034 -4.42888,6.60579 -4.72332,6.5519 -0.11286,-0.0207 -1.48534,-0.90133 -3.04995,-1.95706 z"
         id="path4728"
         inkscape:connector-curvature="0" />
      <path
         d="m 72.699452,293.36847 c -0.116112,-1.39229 -0.629154,-5.37296 -1.140092,-8.84593 -1.061819,-7.21742 -1.158582,-10.90149 -0.429371,-16.34766 0.649977,-4.85437 0.4424,-10.60937 -0.502126,-13.92129 -2.046961,-7.17755 -5.946736,-11.65247 -13.505101,-15.49685 -4.294751,-2.18443 -6.404698,-3.61931 -11.579803,-7.87489 -4.26543,-3.50754 -8.620415,-7.84497 -10.230863,-10.18962 -0.55363,-0.80603 -1.005953,-1.51057 -1.005167,-1.56565 9.4e-4,-0.0551 1.515557,-0.11792 3.366151,-0.13965 2.860652,-0.0336 3.69309,-0.16744 5.556632,-0.89352 4.672722,-1.82059 5.38064,-2.02159 7.154843,-2.03149 1.422717,-0.008 2.517336,0.26624 4.903138,1.22814 6.444786,2.59839 10.470731,2.49136 17.515931,-0.46566 2.72259,-1.14273 5.42626,-1.00259 8.730242,0.45252 5.876742,2.58818 10.690948,2.47578 17.433042,-0.40703 1.324682,-0.56641 2.432882,-0.80251 3.757562,-0.80054 1.82833,0.003 2.49464,0.18997 7.202,2.02406 1.86354,0.72608 2.69598,0.85994 5.55663,0.89352 1.85059,0.0217 3.36536,0.0911 3.36615,0.15411 0.005,0.36763 -2.64078,3.66294 -4.52685,5.63906 -2.54982,2.67154 -8.43637,7.71305 -11.94605,10.23112 -1.3335,0.95675 -4.103978,2.59576 -6.156619,3.64226 -7.753952,3.9532 -11.629037,8.36851 -13.691413,15.60011 -0.944526,3.31192 -1.152104,9.06692 -0.502127,13.92129 0.729212,5.44617 0.632449,9.13024 -0.42937,16.34766 -0.510938,3.47297 -1.02398,7.45364 -1.140092,8.84593 l -0.211115,2.53145 H 76.57809 72.910567 Z M 58.158466,250.63152 c -22.238919,-6.57445 -39.546913,-24.63177 -40.661511,-42.42189 -0.722247,-11.52779 6.152423,-21.35223 19.486988,-27.84844 6.592392,-3.21162 16.348549,-5.86596 26.129544,-7.10901 5.93334,-0.75407 20.995867,-0.75407 26.929207,0 31.416316,3.99266 48.675016,18.55308 45.252766,38.17777 -2.69884,15.47628 -17.10759,30.70484 -35.582463,37.60699 -3.472164,1.29719 -7.768879,2.5255 -8.005759,2.28862 -0.317883,-0.31789 1.577275,-2.42531 3.463485,-3.85141 1.054569,-0.79733 3.044672,-1.97535 4.422445,-2.61783 3.437272,-1.60286 7.355652,-4.25463 12.409332,-8.39804 11.76487,-9.64579 17.42236,-18.6142 18.00874,-28.54797 0.56284,-9.53507 -4.75204,-16.97434 -16.01408,-22.41493 -4.71542,-2.27798 -8.44658,-3.57575 -13.9343,-4.84665 -5.678458,-1.31507 -9.665339,-1.76937 -10.930151,-1.24546 -1.998132,0.82765 -2.556023,3.67104 -1.04708,5.33662 0.787673,0.86943 1.193071,1.00413 4.753657,1.5795 14.807264,2.39276 25.901214,8.14663 29.168244,15.1281 1.05997,2.2651 1.5183,5.76507 1.01034,7.71534 -0.26136,1.00347 -0.49546,1.18123 -2.77429,2.10654 -2.9439,1.19537 -5.01593,1.31224 -7.42848,0.41899 -0.89986,-0.33317 -2.61866,-0.97633 -3.81955,-1.42925 -4.34184,-1.63754 -9.5014,-1.3763 -14.099336,0.71389 -2.255328,1.02525 -2.770368,1.13847 -5.16665,1.13582 -2.378732,-0.003 -2.934417,-0.12406 -5.22851,-1.14243 -2.827892,-1.25535 -5.236183,-1.80356 -7.922964,-1.80356 -2.68678,0 -5.095071,0.54821 -7.922964,1.80356 -2.294093,1.01837 -2.849777,1.13979 -5.228509,1.14243 -2.396283,0.002 -2.911323,-0.11057 -5.16665,-1.13582 -4.597937,-2.09019 -9.757494,-2.35143 -14.099337,-0.71389 -1.200893,0.45292 -2.91969,1.09608 -3.819551,1.42925 -2.41255,0.89325 -4.484577,0.77638 -7.428475,-0.41899 -2.278834,-0.92531 -2.512937,-1.10307 -2.774297,-2.10654 -0.497076,-1.90851 -0.04913,-5.45129 0.962622,-7.61336 3.325115,-7.1056 14.280596,-12.81662 29.215966,-15.23008 3.560586,-0.57537 3.965983,-0.71007 4.753656,-1.5795 1.437973,-1.58725 0.977678,-4.42966 -0.852359,-5.26348 -1.079451,-0.49183 -2.214858,-0.47048 -5.80166,0.10911 -6.83265,1.10409 -13.295654,3.0471 -18.689408,5.61872 -4.910381,2.34115 -7.683269,4.21709 -10.622714,7.18656 -4.366664,4.41126 -6.315585,9.4866 -5.959467,15.51951 0.586468,9.9352 6.237354,18.90347 17.960985,28.50508 5.154623,4.22162 8.113619,6.242 11.817578,8.06894 3.505294,1.72895 6.378177,3.73552 7.653243,5.34542 1.518232,1.91692 1.440757,1.94261 -2.418283,0.80177 z m 20.799415,-66.64437 c 0.872788,-0.87279 1.064643,-1.30164 1.064643,-2.37979 0,-1.07815 -0.191855,-1.507 -1.064643,-2.37979 -0.872788,-0.87279 -1.301639,-1.06464 -2.379791,-1.06464 -1.078151,0 -1.507002,0.19185 -2.37979,1.06464 -0.872788,0.87279 -1.064643,1.30164 -1.064643,2.37979 0,1.07815 0.191855,1.507 1.064643,2.37979 0.872788,0.87279 1.301639,1.06464 2.37979,1.06464 1.078152,0 1.507003,-0.19185 2.379791,-1.06464 z m -56.797876,-6.05907 c -5.326369,-7.22432 -9.846697,-17.63081 -11.330557,-26.08468 -0.194889,-1.11032 -0.426983,-2.26536 -0.515764,-2.56675 -0.148442,-0.50391 0.199692,-0.54797 4.329519,-0.54797 h 4.49094 l 0.559407,2.71768 c 1.550745,7.53374 4.799047,14.94617 9.37004,21.38186 1.710302,2.408 1.830607,2.67977 1.316835,2.97474 -0.310985,0.17854 -1.903666,1.2053 -3.539289,2.28168 -1.635624,1.07639 -3.00737,1.95707 -3.048325,1.95707 -0.04096,0 -0.775718,-0.95114 -1.632806,-2.11363 z m 104.022665,0.11901 c -1.56462,-1.05573 -3.10606,-2.07038 -3.42544,-2.25478 -0.5343,-0.3085 -0.42883,-0.54606 1.32082,-2.97474 4.52163,-6.27646 7.82678,-13.80318 9.38458,-21.37121 l 0.55941,-2.71768 h 4.49094 c 4.12983,0 4.47796,0.0441 4.32952,0.54797 -0.0888,0.30139 -0.31464,1.42201 -0.5019,2.49027 -1.17373,6.69571 -4.41199,15.07084 -8.38466,21.68533 -1.66388,2.77034 -4.42888,6.60579 -4.72332,6.5519 -0.11286,-0.0207 -1.48534,-0.90133 -3.04995,-1.95706 z"
         id="path4726"
         inkscape:connector-curvature="0" />
      <path
         d="m 72.699452,293.36847 c -0.116112,-1.39229 -0.629154,-5.37296 -1.140092,-8.84593 -1.061819,-7.21742 -1.158582,-10.90149 -0.429371,-16.34766 0.649977,-4.85437 0.4424,-10.60937 -0.502126,-13.92129 -2.046961,-7.17755 -5.946736,-11.65247 -13.505101,-15.49685 -4.294751,-2.18443 -6.404698,-3.61931 -11.579803,-7.87489 -4.26543,-3.50754 -8.620415,-7.84497 -10.230863,-10.18962 -0.55363,-0.80603 -1.005953,-1.51057 -1.005167,-1.56565 9.4e-4,-0.0551 1.515557,-0.11792 3.366151,-0.13965 2.860652,-0.0336 3.69309,-0.16744 5.556632,-0.89352 4.672722,-1.82059 5.38064,-2.02159 7.154843,-2.03149 1.422717,-0.008 2.517336,0.26624 4.903138,1.22814 6.444786,2.59839 10.470731,2.49136 17.515931,-0.46566 2.72259,-1.14273 5.42626,-1.00259 8.730242,0.45252 5.876742,2.58818 10.690948,2.47578 17.433042,-0.40703 1.324682,-0.56641 2.432882,-0.80251 3.757562,-0.80054 1.82833,0.003 2.49464,0.18997 7.202,2.02406 1.86354,0.72608 2.69598,0.85994 5.55663,0.89352 1.85059,0.0217 3.36536,0.0911 3.36615,0.15411 0.005,0.36763 -2.64078,3.66294 -4.52685,5.63906 -2.54982,2.67154 -8.43637,7.71305 -11.94605,10.23112 -1.3335,0.95675 -4.103978,2.59576 -6.156619,3.64226 -7.753952,3.9532 -11.629037,8.36851 -13.691413,15.60011 -0.944526,3.31192 -1.152104,9.06692 -0.502127,13.92129 0.729212,5.44617 0.632449,9.13024 -0.42937,16.34766 -0.510938,3.47297 -1.02398,7.45364 -1.140092,8.84593 l -0.211115,2.53145 H 76.57809 72.910567 Z M 58.158466,250.63152 c -22.238919,-6.57445 -39.546913,-24.63177 -40.661511,-42.42189 -0.722247,-11.52779 6.152423,-21.35223 19.486988,-27.84844 6.592392,-3.21162 16.348549,-5.86596 26.129544,-7.10901 5.93334,-0.75407 20.995867,-0.75407 26.929207,0 31.416316,3.99266 48.675016,18.55308 45.252766,38.17777 -2.69884,15.47628 -17.10759,30.70484 -35.582463,37.60699 -3.472164,1.29719 -7.768879,2.5255 -8.005759,2.28862 -0.317883,-0.31789 1.577275,-2.42531 3.463485,-3.85141 1.054569,-0.79733 3.044672,-1.97535 4.422445,-2.61783 3.437272,-1.60286 7.355652,-4.25463 12.409332,-8.39804 11.76487,-9.64579 17.42236,-18.6142 18.00874,-28.54797 0.56284,-9.53507 -4.75204,-16.97434 -16.01408,-22.41493 -4.71542,-2.27798 -8.44658,-3.57575 -13.9343,-4.84665 -5.678458,-1.31507 -9.665339,-1.76937 -10.930151,-1.24546 -1.998132,0.82765 -2.556023,3.67104 -1.04708,5.33662 0.787673,0.86943 1.193071,1.00413 4.753657,1.5795 14.807264,2.39276 25.901214,8.14663 29.168244,15.1281 1.05997,2.2651 1.5183,5.76507 1.01034,7.71534 -0.26136,1.00347 -0.49546,1.18123 -2.77429,2.10654 -2.9439,1.19537 -5.01593,1.31224 -7.42848,0.41899 -0.89986,-0.33317 -2.61866,-0.97633 -3.81955,-1.42925 -4.34184,-1.63754 -9.5014,-1.3763 -14.099336,0.71389 -2.255328,1.02525 -2.770368,1.13847 -5.16665,1.13582 -2.378732,-0.003 -2.934417,-0.12406 -5.22851,-1.14243 -2.827892,-1.25535 -5.236183,-1.80356 -7.922964,-1.80356 -2.68678,0 -5.095071,0.54821 -7.922964,1.80356 -2.294093,1.01837 -2.849777,1.13979 -5.228509,1.14243 -2.396283,0.002 -2.911323,-0.11057 -5.16665,-1.13582 -4.597937,-2.09019 -9.757494,-2.35143 -14.099337,-0.71389 -1.200893,0.45292 -2.91969,1.09608 -3.819551,1.42925 -2.41255,0.89325 -4.484577,0.77638 -7.428475,-0.41899 -2.278834,-0.92531 -2.512937,-1.10307 -2.774297,-2.10654 -0.497076,-1.90851 -0.04913,-5.45129 0.962622,-7.61336 3.325115,-7.1056 14.280596,-12.81662 29.215966,-15.23008 3.560586,-0.57537 3.965983,-0.71007 4.753656,-1.5795 1.437973,-1.58725 0.977678,-4.42966 -0.852359,-5.26348 -1.079451,-0.49183 -2.214858,-0.47048 -5.80166,0.10911 -6.83265,1.10409 -13.295654,3.0471 -18.689408,5.61872 -4.910381,2.34115 -7.683269,4.21709 -10.622714,7.18656 -4.366664,4.41126 -6.315585,9.4866 -5.959467,15.51951 0.586468,9.9352 6.237354,18.90347 17.960985,28.50508 5.154623,4.22162 8.113619,6.242 11.817578,8.06894 3.505294,1.72895 6.378177,3.73552 7.653243,5.34542 1.518232,1.91692 1.440757,1.94261 -2.418283,0.80177 z m 20.799415,-66.64437 c 0.872788,-0.87279 1.064643,-1.30164 1.064643,-2.37979 0,-1.07815 -0.191855,-1.507 -1.064643,-2.37979 -0.872788,-0.87279 -1.301639,-1.06464 -2.379791,-1.06464 -1.078151,0 -1.507002,0.19185 -2.37979,1.06464 -0.872788,0.87279 -1.064643,1.30164 -1.064643,2.37979 0,1.07815 0.191855,1.507 1.064643,2.37979 0.872788,0.87279 1.301639,1.06464 2.37979,1.06464 1.078152,0 1.507003,-0.19185 2.379791,-1.06464 z m -56.797876,-6.05907 c -5.326369,-7.22432 -9.846697,-17.63081 -11.330557,-26.08468 -0.194889,-1.11032 -0.426983,-2.26536 -0.515764,-2.56675 -0.148442,-0.50391 0.199692,-0.54797 4.329519,-0.54797 h 4.49094 l 0.559407,2.71768 c 1.550745,7.53374 4.799047,14.94617 9.37004,21.38186 1.710302,2.408 1.830607,2.67977 1.316835,2.97474 -0.310985,0.17854 -1.903666,1.2053 -3.539289,2.28168 -1.635624,1.07639 -3.00737,1.95707 -3.048325,1.95707 -0.04096,0 -0.775718,-0.95114 -1.632806,-2.11363 z m 104.022665,0.11901 c -1.56462,-1.05573 -3.10606,-2.07038 -3.42544,-2.25478 -0.5343,-0.3085 -0.42883,-0.54606 1.32082,-2.97474 4.52163,-6.27646 7.82678,-13.80318 9.38458,-21.37121 l 0.55941,-2.71768 h 4.49094 c 4.12983,0 4.47796,0.0441 4.32952,0.54797 -0.0888,0.30139 -0.31464,1.42201 -0.5019,2.49027 -1.17373,6.69571 -4.41199,15.07084 -8.38466,21.68533 -1.66388,2.77034 -4.42888,6.60579 -4.72332,6.5519 -0.11286,-0.0207 -1.48534,-0.90133 -3.04995,-1.95706 z"
         id="path4724"
         inkscape:connector-curvature="0" />
      <path
         d="m 72.699452,293.36847 c -0.116112,-1.39229 -0.629154,-5.37296 -1.140092,-8.84593 -1.061819,-7.21742 -1.158582,-10.90149 -0.429371,-16.34766 0.649977,-4.85437 0.4424,-10.60937 -0.502126,-13.92129 -2.046961,-7.17755 -5.946736,-11.65247 -13.505101,-15.49685 -4.294751,-2.18443 -6.404698,-3.61931 -11.579803,-7.87489 -4.26543,-3.50754 -8.620415,-7.84497 -10.230863,-10.18962 -0.55363,-0.80603 -1.005953,-1.51057 -1.005167,-1.56565 9.4e-4,-0.0551 1.515557,-0.11792 3.366151,-0.13965 2.860652,-0.0336 3.69309,-0.16744 5.556632,-0.89352 4.672722,-1.82059 5.38064,-2.02159 7.154843,-2.03149 1.422717,-0.008 2.517336,0.26624 4.903138,1.22814 6.444786,2.59839 10.470731,2.49136 17.515931,-0.46566 2.72259,-1.14273 5.42626,-1.00259 8.730242,0.45252 5.876742,2.58818 10.690948,2.47578 17.433042,-0.40703 1.324682,-0.56641 2.432882,-0.80251 3.757562,-0.80054 1.82833,0.003 2.49464,0.18997 7.202,2.02406 1.86354,0.72608 2.69598,0.85994 5.55663,0.89352 1.85059,0.0217 3.36536,0.0911 3.36615,0.15411 0.005,0.36763 -2.64078,3.66294 -4.52685,5.63906 -2.54982,2.67154 -8.43637,7.71305 -11.94605,10.23112 -1.3335,0.95675 -4.103978,2.59576 -6.156619,3.64226 -7.753952,3.9532 -11.629037,8.36851 -13.691413,15.60011 -0.944526,3.31192 -1.152104,9.06692 -0.502127,13.92129 0.729212,5.44617 0.632449,9.13024 -0.42937,16.34766 -0.510938,3.47297 -1.02398,7.45364 -1.140092,8.84593 l -0.211115,2.53145 H 76.57809 72.910567 Z M 58.158466,250.63152 c -22.238919,-6.57445 -39.546913,-24.63177 -40.661511,-42.42189 -0.722247,-11.52779 6.152423,-21.35223 19.486988,-27.84844 6.592392,-3.21162 16.348549,-5.86596 26.129544,-7.10901 5.93334,-0.75407 20.995867,-0.75407 26.929207,0 31.416316,3.99266 48.675016,18.55308 45.252766,38.17777 -2.69884,15.47628 -17.10759,30.70484 -35.582463,37.60699 -3.472164,1.29719 -7.768879,2.5255 -8.005759,2.28862 -0.317883,-0.31789 1.577275,-2.42531 3.463485,-3.85141 1.054569,-0.79733 3.044672,-1.97535 4.422445,-2.61783 3.437272,-1.60286 7.355652,-4.25463 12.409332,-8.39804 11.76487,-9.64579 17.42236,-18.6142 18.00874,-28.54797 0.56284,-9.53507 -4.75204,-16.97434 -16.01408,-22.41493 -4.71542,-2.27798 -8.44658,-3.57575 -13.9343,-4.84665 -5.678458,-1.31507 -9.665339,-1.76937 -10.930151,-1.24546 -1.998132,0.82765 -2.556023,3.67104 -1.04708,5.33662 0.787673,0.86943 1.193071,1.00413 4.753657,1.5795 14.807264,2.39276 25.901214,8.14663 29.168244,15.1281 1.05997,2.2651 1.5183,5.76507 1.01034,7.71534 -0.26136,1.00347 -0.49546,1.18123 -2.77429,2.10654 -2.9439,1.19537 -5.01593,1.31224 -7.42848,0.41899 -0.89986,-0.33317 -2.61866,-0.97633 -3.81955,-1.42925 -4.34184,-1.63754 -9.5014,-1.3763 -14.099336,0.71389 -2.255328,1.02525 -2.770368,1.13847 -5.16665,1.13582 -2.378732,-0.003 -2.934417,-0.12406 -5.22851,-1.14243 -2.827892,-1.25535 -5.236183,-1.80356 -7.922964,-1.80356 -2.68678,0 -5.095071,0.54821 -7.922964,1.80356 -2.294093,1.01837 -2.849777,1.13979 -5.228509,1.14243 -2.396283,0.002 -2.911323,-0.11057 -5.16665,-1.13582 -4.597937,-2.09019 -9.757494,-2.35143 -14.099337,-0.71389 -1.200893,0.45292 -2.91969,1.09608 -3.819551,1.42925 -2.41255,0.89325 -4.484577,0.77638 -7.428475,-0.41899 -2.278834,-0.92531 -2.512937,-1.10307 -2.774297,-2.10654 -0.497076,-1.90851 -0.04913,-5.45129 0.962622,-7.61336 3.325115,-7.1056 14.280596,-12.81662 29.215966,-15.23008 3.560586,-0.57537 3.965983,-0.71007 4.753656,-1.5795 1.437973,-1.58725 0.977678,-4.42966 -0.852359,-5.26348 -1.079451,-0.49183 -2.214858,-0.47048 -5.80166,0.10911 -6.83265,1.10409 -13.295654,3.0471 -18.689408,5.61872 -4.910381,2.34115 -7.683269,4.21709 -10.622714,7.18656 -4.366664,4.41126 -6.315585,9.4866 -5.959467,15.51951 0.586468,9.9352 6.237354,18.90347 17.960985,28.50508 5.154623,4.22162 8.113619,6.242 11.817578,8.06894 3.505294,1.72895 6.378177,3.73552 7.653243,5.34542 1.518232,1.91692 1.440757,1.94261 -2.418283,0.80177 z m 20.799415,-66.64437 c 0.872788,-0.87279 1.064643,-1.30164 1.064643,-2.37979 0,-1.07815 -0.191855,-1.507 -1.064643,-2.37979 -0.872788,-0.87279 -1.301639,-1.06464 -2.379791,-1.06464 -1.078151,0 -1.507002,0.19185 -2.37979,1.06464 -0.872788,0.87279 -1.064643,1.30164 -1.064643,2.37979 0,1.07815 0.191855,1.507 1.064643,2.37979 0.872788,0.87279 1.301639,1.06464 2.37979,1.06464 1.078152,0 1.507003,-0.19185 2.379791,-1.06464 z m -56.797876,-6.05907 c -5.326369,-7.22432 -9.846697,-17.63081 -11.330557,-26.08468 -0.194889,-1.11032 -0.426983,-2.26536 -0.515764,-2.56675 -0.148442,-0.50391 0.199692,-0.54797 4.329519,-0.54797 h 4.49094 l 0.559407,2.71768 c 1.550745,7.53374 4.799047,14.94617 9.37004,21.38186 1.710302,2.408 1.830607,2.67977 1.316835,2.97474 -0.310985,0.17854 -1.903666,1.2053 -3.539289,2.28168 -1.635624,1.07639 -3.00737,1.95707 -3.048325,1.95707 -0.04096,0 -0.775718,-0.95114 -1.632806,-2.11363 z m 104.022665,0.11901 c -1.56462,-1.05573 -3.10606,-2.07038 -3.42544,-2.25478 -0.5343,-0.3085 -0.42883,-0.54606 1.32082,-2.97474 4.52163,-6.27646 7.82678,-13.80318 9.38458,-21.37121 l 0.55941,-2.71768 h 4.49094 c 4.12983,0 4.47796,0.0441 4.32952,0.54797 -0.0888,0.30139 -0.31464,1.42201 -0.5019,2.49027 -1.17373,6.69571 -4.41199,15.07084 -8.38466,21.68533 -1.66388,2.77034 -4.42888,6.60579 -4.72332,6.5519 -0.11286,-0.0207 -1.48534,-0.90133 -3.04995,-1.95706 z"
         id="path4722"
         inkscape:connector-curvature="0" />
    </g>
  </g>
</svg>
