<?xml version="1.0" encoding="UTF-8" standalone="no"?>
<!-- Created with Inkscape (http://www.inkscape.org/) -->

<svg
   width="512"
   height="512"
   viewBox="0 0 135.46666 135.46667"
   version="1.1"
   id="svg37484"
   inkscape:version="1.1.2 (b8e25be833, 2022-02-05)"
   sodipodi:docname="penis.svg"
   xmlns:inkscape="http://www.inkscape.org/namespaces/inkscape"
   xmlns:sodipodi="http://sodipodi.sourceforge.net/DTD/sodipodi-0.dtd"
   xmlns="http://www.w3.org/2000/svg"
   xmlns:svg="http://www.w3.org/2000/svg">
  <sodipodi:namedview
     id="namedview37486"
     pagecolor="#ffffff"
     bordercolor="#666666"
     borderopacity="1.0"
     inkscape:pageshadow="2"
     inkscape:pageopacity="0.0"
     inkscape:pagecheckerboard="0"
     inkscape:document-units="mm"
     showgrid="false"
     units="px"
     inkscape:zoom="0.64052329"
     inkscape:cx="-50.739763"
     inkscape:cy="435.58135"
     inkscape:window-width="1920"
     inkscape:window-height="1009"
     inkscape:window-x="-8"
     inkscape:window-y="-8"
     inkscape:window-maximized="1"
     inkscape:current-layer="layer1" />
  <defs
     id="defs37481">
    <clipPath
       clipPathUnits="userSpaceOnUse"
       id="clipPath31914">
      <path
         id="path31916"
         style="fill:#ff0000;fill-opacity:1;fill-rule:nonzero;stroke:none;stroke-width:0.311682"
         d="m 39.026769,164.28358 c -0.0065,0.0673 -0.01387,0.16489 -0.01948,0.21854 -0.06203,0.59457 -0.183524,1.18131 -0.257502,1.77452 -0.08862,0.7108 -0.146213,1.1943 -0.201499,1.66372 0.324002,0.23077 0.646789,0.46163 0.969744,0.68607 -0.06895,-0.16218 -0.129142,-0.32697 -0.174102,-0.49614 -0.474925,-1.78693 0.141189,-0.29493 0.529616,0.73964 0.146378,0.0991 0.292632,0.19676 0.439518,0.29159 0.224458,0.14498 0.04317,0.53737 0.0036,0.80173 -0.01128,0.0755 -0.02525,0.15046 -0.03713,0.22584 0.103441,0.25571 0.182144,0.51759 0.211847,0.7926 0.257053,2.38106 -0.423208,3.0835 -1.430572,4.78541 -0.02855,0.0309 -0.05568,0.0632 -0.08401,0.0944 -0.07757,0.29005 -0.155012,0.58015 -0.231935,0.87052 0.07319,-0.0111 0.142538,-0.0233 0.217934,-0.0341 1.025031,-0.073 2.052044,0.009 3.076638,0.0597 -0.0025,-0.0361 0.171989,0.009 0.129666,0.007 -0.0432,-0.002 -0.08646,-0.005 -0.129666,-0.007 7.2e-5,9.4e-4 -9.35e-4,9.4e-4 -6.23e-4,0.002 0.385513,1.27199 0.787691,2.53869 1.194374,3.8041 0.164923,-0.10262 0.332196,-0.20155 0.50344,-0.29402 0.379897,-0.20517 1.049118,-0.45983 1.291167,-0.10228 1.390378,2.05381 2.694438,4.24717 3.460761,6.60559 l 0.325682,-0.85408 c 0.02238,-0.0846 -0.0201,-0.26269 0.06697,-0.25385 0.09,0.009 0.0424,0.1762 0.05418,0.26602 0.04076,0.32524 0.07622,0.65148 0.101665,0.97827 0.180152,2.31547 -0.622226,1.77108 -2.701648,5.40207 -1.634611,1.6338 -3.578374,2.92334 -5.66993,3.8942 -0.64197,0.84202 -1.35138,1.45372 -2.049064,1.34961 -5.980293,-0.89235 -6.328382,-2.09582 -6.026655,-4.6801 -0.621712,-0.22727 -1.244807,-0.4495 -1.874354,-0.63676 -0.184263,-0.75964 -0.475115,-1.50137 -0.552746,-2.27917 -0.06147,-0.61573 -0.0022,-1.24916 0.140622,-1.85122 0.05171,-0.21792 0.108493,-0.43479 0.169841,-0.65075 -0.307446,-0.11417 -0.639917,-0.23424 -1.023313,-0.361 -0.496899,-0.50144 -1.043429,-0.95815 -1.490839,-1.50422 -1.160432,-1.4163 -1.780672,-3.31562 -2.218906,-5.02831 -0.09893,-0.38663 -0.185039,-0.87159 0.04627,-1.19681 0.117495,-0.16521 0.247117,-0.32203 0.382296,-0.47543 9.35e-4,-0.0262 0.0012,-0.0524 -0.0019,-0.0785 -0.171808,-1.43284 -0.221409,0.0733 -0.234369,-2.26517 -0.0016,-0.2575 0.06414,-0.51153 0.09618,-0.76703 0.05875,-0.2833 0.120266,-0.56679 0.181411,-0.85043 -0.0051,-0.10702 -0.0039,-0.21077 0.0043,-0.31046 -0.223186,-0.62569 -0.473528,-1.25597 -0.917999,-2.30657 V 311.45517 H 157.87849 V 185.4061 c -1.03795,1.53017 -1.75729,3.35158 -3.17039,4.53887 -0.36168,0.30389 -0.77484,0.41385 -1.20715,0.40543 0.21835,0.25053 0.43301,0.50462 0.6404,0.76581 0.31807,0.40058 0.63365,0.80315 0.94418,1.20959 0.0331,0.0433 0.13238,0.16881 0.0864,0.1394 -0.19784,-0.1266 -0.36863,-0.29183 -0.55274,-0.43769 0.86797,0.73518 1.16535,0.88808 1.80556,2.09411 0.23414,0.44109 0.58754,0.94066 0.46387,1.42449 -0.43553,1.70389 -0.88835,3.54972 -2.06854,4.85359 -1.40828,1.55583 -3.55071,0.61784 -5.0344,0.21428 -1.52199,-0.91744 -0.89601,-0.4484 -2.20125,-1.90601 -0.1786,-1.6e-4 -0.35683,-0.008 -0.53388,-0.0359 -1.90545,-0.30012 -2.53026,-0.85942 -3.9642,-1.78122 -2.15389,-1.51947 -3.49674,-2.41516 -5.564,-4.08838 -1.25867,-1.01876 -2.49279,-2.06832 -3.71157,-3.13448 -0.0383,-0.0335 0.10348,0.0368 0.15158,0.0201 0.0788,-0.0273 0.27594,-0.0995 0.20515,-0.14367 -0.32957,-0.20555 -0.72778,-0.27277 -1.09149,-0.40908 h -6.3e-4 c -6.81813,-2.55732 -3.56061,-11.24513 3.25805,-8.68813 0.18716,0.0702 0.38222,0.12518 0.57284,0.18811 -0.13433,-0.65768 -0.26259,-1.34066 -0.41822,-2.13125 -0.27249,-3.07963 -0.51096,-6.19203 -0.25993,-9.2841 0.0324,-0.39846 0.14372,-0.78808 0.17714,-1.18646 0.0209,-0.24853 -0.013,-0.49815 -0.0146,-0.74755 -0.002,-0.31757 0.002,-0.63572 0.004,-0.95331 0.0131,-0.69905 0.0783,-1.37711 0.17532,-2.04906 z m 0.846777,4.58635 c -0.118476,-0.0802 -0.23719,-0.16129 -0.355514,-0.2435 0.180679,0.42491 0.422491,0.83161 0.622148,1.24855 0.0065,-0.074 0.01053,-0.14811 0.0067,-0.2222 -0.0019,-0.0383 -0.121322,-0.37798 -0.273329,-0.78285 z m 114.460834,-4.58635 c 0.0119,0.0199 0.024,0.0397 0.0359,0.0597 0.39962,0.10813 0.84453,0.22064 1.3417,0.33542 -0.021,-0.13599 -0.0365,-0.26192 -0.056,-0.39508 z M 26.822482,176.93165 c -0.07728,0.0607 -0.150105,0.11521 -0.216715,0.16193 -0.130205,0.5816 -0.260017,1.16308 -0.390213,1.74468 0.326842,-0.36341 0.694084,-0.6995 1.069579,-1.02879 -0.154151,-0.23436 -0.306735,-0.52792 -0.462651,-0.87782 z m 0.525356,0.68911 c -0.0051,0.0514 -0.01203,0.10194 -0.02132,0.15218 0.02556,-0.0223 0.05111,-0.0447 0.0767,-0.067 -0.01727,-0.0268 -0.03706,-0.0565 -0.0554,-0.0852 z m 11.971133,0.014 c -0.0036,-0.004 -0.09149,0.0678 -0.289768,0.22767 0.0066,0.0181 0.0134,0.0344 0.0201,0.0524 0.145543,-0.14827 0.273407,-0.2762 0.269676,-0.28003 z m -12.007659,0.21063 c -0.338739,1.5124 -2.356679,2.40992 0.725024,0.68789 -0.253543,-0.1181 -0.490955,-0.34154 -0.725024,-0.68789 z M 148.01431,180.586 c -0.86447,0.40902 -1.62181,0.78834 -1.02636,0.7932 0.51764,0.004 0.97146,-0.0146 1.37091,-0.0517 -0.0416,-0.14742 -0.0841,-0.29427 -0.12723,-0.44135 -0.0785,-0.103 -0.1505,-0.20135 -0.21732,-0.30011 z m -102.382566,3.56242 c -9.35e-4,2e-4 -0.0028,0.002 -0.0073,0.008 -0.04654,0.0599 -0.09153,0.12115 -0.13758,0.18141 0.01393,-0.0134 0.02877,-0.026 0.04261,-0.0396 0.03556,-0.0348 0.108063,-0.15116 0.102272,-0.14976 z m -9.760144,4.00073 c -0.01562,-2.5e-4 -0.16608,0.0855 -0.127837,0.0706 0.03326,-0.013 0.0671,-0.0271 0.100443,-0.0402 0.0083,-0.008 0.01664,-0.0162 0.02497,-0.0243 0.0042,-0.004 0.0046,-0.006 0.0025,-0.006 z m 113.44909,0.44439 c 0.19074,0.12395 0.36976,0.21559 0.51136,0.24472 -0.0787,-0.0719 -0.15755,-0.14355 -0.2362,-0.2155 -0.0935,-0.01 -0.18606,-0.0194 -0.27516,-0.0292 z m -114.111414,0.20028 c -0.08038,0.0393 -0.157574,0.0907 -0.23315,0.14853 0.007,0.0183 0.01424,0.0365 0.02132,0.0548 0.07065,-0.0677 0.141304,-0.13547 0.211844,-0.20332 z m -0.413343,0.30316 c -0.04083,0.0392 -0.08117,0.0807 -0.121141,0.12357 9.35e-4,0.0278 0.0025,0.054 0.0036,0.081 0.03684,-0.0352 0.07397,-0.0701 0.110794,-0.10532 0.0025,-0.0331 0.0046,-0.0661 0.0067,-0.0992 z m 116.051507,0.42064 c 0.009,0.004 0.0234,0.0132 0.031,0.0171 0.20318,0.10235 0.85879,0.30135 0.64528,0.22281 -0.22442,-0.0826 -0.45063,-0.16084 -0.67633,-0.23985 z m -107.774896,2.48007 c -0.0051,-0.005 -0.03241,0.0322 -0.0554,0.0609 -0.01106,0.0334 -0.02338,0.0664 -0.03409,0.0998 -0.01802,0.0564 0.07833,-0.0948 0.09009,-0.1528 9.35e-4,-0.004 3.12e-4,-0.007 -6.23e-4,-0.008 z m 106.220756,6.59584 c -0.30294,0.006 -0.60662,0.0393 -0.91009,0.0688 0.0158,0.0242 0.0305,0.0476 0.0457,0.0706 0.57653,0.0515 1.27255,-0.12887 1.18524,-0.13392 -0.10667,-0.006 -0.21383,-0.008 -0.32081,-0.005 z m -0.98314,0.0755 c -0.0544,0.005 -0.10881,0.009 -0.16314,0.014 0.0684,0.0194 0.14115,0.0332 0.21732,0.0426 -0.018,-0.0188 -0.0362,-0.0377 -0.0542,-0.0566 z m 0.26968,0.28125 c 0.0332,0.0468 0.0837,0.12236 0.10471,0.15036 0.11069,0.14777 0.27028,0.25164 0.40542,0.37743 -0.16823,-0.17762 -0.33958,-0.35228 -0.51013,-0.52779 z" />
    </clipPath>
  </defs>
  <g
     inkscape:label="Layer 1"
     inkscape:groupmode="layer"
     id="layer1">
    <path
       id="path23062" class="circle"
       style="fill:#808080;stroke-width:0.204645;fill-opacity:1"
       d="M 135.46667,67.733335 A 67.73333,67.733331 0 0 1 67.733334,135.46667 67.73333,67.733331 0 0 1 0,67.733335 67.73333,67.733331 0 0 1 67.733334,0 67.73333,67.733331 0 0 1 135.46667,67.733335 Z" />
    <path
       id="path40471"
       style="opacity:0.206497;fill:#000000;stroke:none;stroke-width:0.204645px;stroke-linecap:butt;stroke-linejoin:miter;stroke-opacity:1"
       d="M 88.971122,24.423341 51.816831,38.26487 46.014821,32.755836 41.934309,71.83987 39.273523,90.084468 82.925296,133.73625 A 67.73333,67.733331 0 0 0 135.35163,70.803848 Z" />
    <path
       style="fill:#ffffff;stroke-width:0.183092"
       d="M 62.761488,110.62538 C 62.147483,110.2264 61.144287,109.37899 60.532161,108.74224 56.486739,104.53413 54.09415,98.756598 53.048499,90.670968 52.906359,89.571888 52.826948,83.020938 52.80328,70.442665 52.7684,51.888596 52.677662,48.486183 52.037808,41.725701 51.254786,33.452662 49.642829,27.342871 47.729044,25.394202 c -0.368632,-0.375354 -0.52713,-0.690631 -0.464449,-0.923878 0.09381,-0.349038 0.390838,-0.354081 20.861602,-0.354081 22.711777,0 21.722039,-0.04973 20.005643,1.004636 -2.042389,1.254585 -3.878155,7.731289 -4.706494,16.604822 -0.63888,6.843938 -0.722932,10.01603 -0.758511,28.626654 -0.03125,16.333003 -0.07503,18.978143 -0.346666,20.950613 -1.090628,7.91854 -3.636594,13.762882 -7.710597,17.699892 -1.825982,1.76459 -3.157783,2.56743 -3.67396,2.21475 -2.333156,-1.59414 -3.752954,-1.7184 -5.625304,-0.49233 -0.525367,0.34403 -1.06259,0.62551 -1.193832,0.62551 -0.131233,0 -0.740975,-0.32644 -1.354988,-0.72541 z M 45.838556,93.095228 c -0.907504,-0.19918 -2.357637,-0.71874 -3.434474,-1.23054 -1.653422,-0.78583 -2.052374,-1.07645 -3.534815,-2.57495 -1.797795,-1.81728 -2.554566,-3.00915 -3.319992,-5.22883 -0.728183,-2.11169 -1.056456,-4.53805 -1.06037,-7.83754 -0.0062,-5.366777 0.63024,-8.48195 3.857208,-18.874921 3.127819,-10.073637 3.700753,-12.827008 3.532726,-16.977318 -0.08631,-2.131881 -0.311651,-3.454997 -0.774699,-4.548754 -0.148342,-0.350387 0.279815,-0.643015 3.10214,-2.120207 l 1.808439,-0.946527 0.196328,0.50249 c 0.504731,1.291772 1.21869,6.688816 1.681638,12.711902 0.130615,1.699296 0.271122,10.997415 0.357541,23.659885 0.08929,13.08314 0.214868,21.26394 0.336827,21.94271 0.179103,0.99681 0.163371,1.11449 -0.199205,1.49003 -0.462994,0.47957 -0.509897,0.48017 -2.549292,0.0326 z m 41.249056,-0.0234 c -0.372662,-0.38599 -0.388038,-0.49698 -0.207706,-1.49914 0.122393,-0.68019 0.247276,-8.83222 0.336139,-21.942706 0.138666,-20.459153 0.212486,-22.992109 0.850027,-29.16848 0.299415,-2.900604 0.967747,-6.952528 1.209578,-7.333274 0.107883,-0.169856 0.376908,-0.02586 1.006058,0.53844 0.86958,0.779968 2.506906,1.642456 3.124121,1.645684 0.632197,0.0035 1.076164,0.348344 0.888136,0.690216 -0.39223,0.713151 -0.761071,3.202017 -0.760035,5.128605 0.0016,3.815424 0.623047,6.639094 3.510072,15.960177 3.319348,10.716881 3.940158,13.736206 3.933758,19.132078 -0.004,3.29949 -0.33218,5.72586 -1.06037,7.83754 -0.762131,2.21013 -1.523504,3.41287 -3.292512,5.20119 -1.338577,1.35319 -1.941916,1.81144 -3.251472,2.46959 -1.498575,0.75314 -3.365171,1.34754 -5.135648,1.63539 -0.634015,0.10308 -0.808871,0.0582 -1.150146,-0.29531 z"
       id="path4543"
       inkscape:connector-curvature="0" />
  </g>
</svg>
