<?xml version="1.0" encoding="UTF-8" standalone="no"?>
<!-- Created with Inkscape (http://www.inkscape.org/) -->

<svg
   width="512"
   height="512"
   viewBox="0 0 135.46666 135.46667"
   version="1.1"
   id="svg30225"
   inkscape:version="1.1.2 (b8e25be833, 2022-02-05)"
   sodipodi:docname="urethra.svg"
   xmlns:inkscape="http://www.inkscape.org/namespaces/inkscape"
   xmlns:sodipodi="http://sodipodi.sourceforge.net/DTD/sodipodi-0.dtd"
   xmlns="http://www.w3.org/2000/svg"
   xmlns:svg="http://www.w3.org/2000/svg">
  <sodipodi:namedview
     id="namedview30227"
     pagecolor="#ffffff"
     bordercolor="#666666"
     borderopacity="1.0"
     inkscape:pageshadow="2"
     inkscape:pageopacity="0.0"
     inkscape:pagecheckerboard="0"
     inkscape:document-units="mm"
     showgrid="false"
     units="px"
     inkscape:zoom="0.64052329"
     inkscape:cx="-358.30079"
     inkscape:cy="310.68347"
     inkscape:window-width="1920"
     inkscape:window-height="1009"
     inkscape:window-x="-8"
     inkscape:window-y="-8"
     inkscape:window-maximized="1"
     inkscape:current-layer="layer1" />
  <defs
     id="defs30222">
    <clipPath
       clipPathUnits="userSpaceOnUse"
       id="clipPath28729">
      <path
         id="path28731"
         style="fill:#ff0000;fill-opacity:1;fill-rule:nonzero;stroke:none;stroke-width:0.264583"
         d="M -306.54821,74.522584 V 198.00962 h 98.26015 V 74.522584 Z m 20.52431,38.412126 v 5.2e-4 5.3e-4 5.3e-4 c 0.19601,0.005 0.24318,0.4072 0.33176,0.61134 0.16458,0.37911 0.28935,0.77536 0.39998,1.17357 0.15163,0.54579 0.26889,1.10046 0.38602,1.65468 0.0421,0.19938 0.063,0.30725 0.0997,0.48265 0.12605,-0.2368 0.45535,-0.20551 0.79013,-0.093 0.10654,-0.0316 0.21333,-0.063 0.31988,-0.0946 0.55398,-0.14345 0.2114,-0.0638 0.51263,-0.0904 0.0408,-0.0314 0.0835,-0.0599 0.1297,-0.0832 0.3284,-0.16583 0.59682,-0.19419 0.90744,-0.19534 0.0444,-1.7e-4 0.09,5.3e-4 0.13642,10e-4 0.12837,-10e-6 0.25659,-7e-5 0.38499,0 0.035,-8e-4 0.13774,0.002 0.23151,0.006 0,2.4e-4 -0.003,2.6e-4 -0.003,5.3e-4 0.003,-1e-5 0.003,4e-5 0.005,0 v -5.3e-4 c 0.0209,-0.003 0.0418,-0.008 0.063,-0.007 0.23826,0.0192 0.47609,0.0451 0.71366,0.0718 0.0214,0.002 0.0431,0.004 0.0646,0.006 0.005,5.3e-4 0.0127,0.004 0.0201,0.006 0,1e-5 0.003,-2e-5 0.003,0 0.14031,0.002 0.27797,0.008 0.41754,-0.0114 0.21542,-0.007 0.50591,-0.0361 0.7059,0.0568 0.0119,0.006 0.0233,0.0121 0.0351,0.0181 0.14962,-0.003 0.26646,0.009 0.46458,0.0796 0.20651,0.002 0.32631,0.0299 0.40669,0.0997 0.0405,10e-4 0.0811,0.002 0.12142,0.005 0.007,0.001 -0.0145,0.002 -0.0217,0.002 0.4555,-0.0171 0.91995,-0.0747 1.3622,0.0755 0.11491,-0.002 0.22971,-0.002 0.34468,0.002 0.042,0.002 0.0845,-10e-4 0.1266,-5.3e-4 0.29107,-0.0379 0.52176,-0.007 0.86299,0.13953 0.0119,0.006 0.0238,0.0117 0.0357,0.0176 0.045,0.002 0.0899,0.003 0.13488,0.004 0.0645,0.0457 0.12787,0.094 0.19069,0.14262 0.0297,2.7e-4 0.0571,10e-4 0.078,0.003 0.0217,-5.3e-4 0.0434,-0.001 0.0651,-0.002 0.51337,0.10726 0.55287,0.10977 0.79994,0.25477 0.005,10e-4 0.009,10e-4 0.014,0.003 0.0262,0.007 0.0622,0.0242 0.0998,0.0444 -2.4e-4,-1.7e-4 0.003,0.001 0.003,0.001 -0.0459,-0.034 0.57081,0.22218 0.41188,0.1323 0.14605,0.0522 0.67871,0.24585 0.76946,0.35915 v 5.3e-4 c 0.31729,0.12815 0.64127,0.3282 0.86299,0.57412 0.008,0.004 0.0159,0.007 0.0238,0.0109 0.0228,0.002 0.0457,0.003 0.0682,0.006 0.53012,0.32128 0.449,0.26718 0.21291,0.14108 0.18913,0.10647 0.37325,0.22271 0.55865,0.33589 -0.0369,-0.0456 -0.0732,-0.0917 -0.11113,-0.13642 -0.0858,-0.049 -0.17764,-0.0885 -0.25733,-0.14676 -0.0457,-0.0335 0.104,0.0456 0.15451,0.0713 0.28734,0.14654 0.57055,0.32283 0.79375,0.5581 0.004,0.005 0.003,0.003 0.006,0.007 0.023,0.006 0.0461,0.0126 0.0693,0.0191 0.25027,0.12603 0.41584,0.18337 0.61751,0.37156 0.0538,0.0502 0.23688,0.23556 0.32763,0.34313 0.067,0.0103 0.13423,0.0203 0.20103,0.0315 0.1533,0.0562 0.23027,0.0873 0.27543,0.10801 0.1832,0.0507 0.27551,0.12189 0.53692,0.24287 0.32319,0.2025 0.61704,0.46988 0.83974,0.78135 0.005,0.007 0.0161,0.0216 0.0233,0.031 0.074,0.0193 0.14817,0.0383 0.2217,0.0589 0.0392,0.085 0.076,0.17087 0.11316,0.25683 0.13414,0.0811 0.27628,0.26783 0.39843,0.4439 0.0348,0.0302 0.0702,0.0597 0.10438,0.0904 0.0341,0.0719 0.0346,0.0743 0.0615,0.13125 0.0185,0.0121 0.0372,0.024 0.0553,0.0367 0.0651,0.0455 0.25162,0.18986 0.17984,0.15607 -0.009,-0.004 -0.0972,-0.0686 -0.21445,-0.14935 0.0106,0.0223 0.0172,0.036 0.0269,0.0558 0.004,-0.005 0.0143,0.0161 0.0269,0.0429 0.0153,0.0118 0.0254,0.0197 0.0414,0.032 0.102,0.14694 0.13642,0.19344 0.19844,0.29507 -0.0193,-0.0108 -0.0368,-0.0212 -0.0579,-0.032 0.0313,0.0317 0.0633,0.0629 0.0951,0.0941 -0.0127,-0.0213 -0.0262,-0.0443 -0.0367,-0.0615 0.21188,0.1184 0.32192,0.24238 0.3669,0.38447 -0.1093,-0.10843 -0.2204,-0.21499 -0.3302,-0.32297 0.0201,0.0336 0.0398,0.0664 0.0682,0.11523 0.003,0.005 -0.0111,-0.007 -0.0161,-0.0108 0.01,0.0221 0.019,0.0446 0.0289,0.0667 0.0686,0.0895 0.15226,0.16666 0.21912,0.25735 0.0193,0.026 0.0377,0.0526 0.0563,0.0791 0,-0.0647 -0.008,-0.12598 -0.0269,-0.18397 0.0998,0.099 0.19817,0.19991 0.29041,0.30593 0.0463,0.0532 0.0549,0.13002 0.0827,0.19482 0.0582,0.1356 0.12629,0.26521 0.19381,0.39636 0.0613,0.1459 0.20643,0.47619 0.25836,0.73742 0.26803,0.31022 0.42278,0.59199 0.54105,1.08365 0.003,0.008 0,0.0187 0.003,0.0269 0.2005,0.005 0.39994,0.0188 0.5979,0.0512 0.13343,0.0218 0.17488,0.20689 0.25218,0.3178 0.0454,0.0652 0.0786,0.13808 0.11472,0.20878 0.008,0.0147 0.031,0.0535 0.016,0.0465 -0.0394,-0.0176 -0.0571,-0.0747 -0.0992,-0.0837 -0.0359,-0.008 0.0514,0.0528 0.077,0.0791 0.33916,0.34549 0.10588,0.0757 0.58808,1.20871 0.021,0.0495 -0.0457,0.42381 -0.0124,0.42581 -7.9e-4,0.0392 -10e-4,0.075 -0.002,0.10646 0.0703,0.26272 0.0603,0.52641 0.0243,0.78909 1.6e-4,0.002 2.7e-4,0.003 5.3e-4,0.005 0.0218,0.0639 0.0426,0.12819 0.0584,0.19379 0.0326,0.13533 0.035,0.27391 0.0284,0.4129 0.0713,0.14475 0.12816,0.27988 0.17105,0.38602 0.28687,0.30253 0.5264,1.01525 0.23616,0.9064 -0.0899,-0.0337 -0.1486,-0.0975 -0.19069,-0.1788 -0.052,-0.0196 -0.10376,-0.0393 -0.15554,-0.0594 l -0.008,0.016 c 0.0979,0.29345 0.14893,0.60301 0.20878,0.90641 0.008,0.027 0.013,0.055 0.0186,0.0832 0.0124,0.003 0.0249,0.006 0.0372,0.009 0.0292,0.096 0.0325,0.20711 0.0615,0.30334 -0.0191,-0.0327 -0.038,-0.0652 -0.0574,-0.0961 -1.9e-4,-5.3e-4 -5.3e-4,-0.001 -0.002,-0.002 0,0 -5.3e-4,0 -5.3e-4,0 h -5.3e-4 -5.3e-4 c 0.001,0.006 0.002,0.0111 0.004,0.0171 0.017,0.0327 0.0335,0.0656 0.0517,0.0977 0.0114,0.0201 0.021,0.0349 0.0295,0.0481 -0.0101,-0.02 -0.0187,-0.0411 -0.0253,-0.0631 h 5.3e-4 c 0.0195,0.0334 0.038,0.0674 0.0568,0.10232 0.0687,0.0479 -0.13957,-0.56843 -0.12506,-0.52762 0.0177,0.0496 0.21113,0.62008 0.14057,0.55656 0.15471,0.29356 0.27834,0.63392 0.26613,0.96531 0.0312,0.23858 0.0757,0.4754 0.13539,0.70849 0.11521,0.24678 0.20055,0.508 0.19896,0.7798 0.0589,0.10107 0.062,0.24877 0.108,0.3607 0.0963,0.435 0.16367,0.8807 0.10697,1.32601 -0.002,-0.005 -0.005,-0.0105 -0.008,-0.015 0.0875,0.28433 0.12375,0.47815 0.11575,0.75758 -5e-5,0.24839 -1.5e-4,0.49678 0,0.74517 2e-5,0.21631 -5.3e-4,0.43224 -5.3e-4,0.64854 0.001,0.22124 0.018,0.45319 -5.3e-4,0.67748 0.004,0.0606 0.008,0.12121 0.0104,0.1819 0.0177,0.39437 0.0218,0.78699 -0.0429,1.17874 -0.0105,0.0453 -0.021,0.0906 -0.0315,0.13591 -0.006,-0.011 -0.0111,-0.0441 -0.0171,-0.0331 -0.0204,0.0395 0.0112,0.26115 -0.001,0.32505 0.002,0.23946 -0.013,0.38348 -0.016,0.6475 -0.0238,-0.0451 -0.0778,-0.18579 -0.0708,-0.13539 0.0166,0.1176 0.0771,0.22509 0.10025,0.34158 0.12087,0.60814 0.0123,1.23626 -0.22325,1.80351 l -0.001,-5.3e-4 c -0.17145,0.41292 -0.41549,0.69543 -0.68627,0.87591 0.005,0.35904 0.005,0.71822 -0.0222,1.07642 -0.0167,0.164 0.0185,0.21476 0.0481,0.41342 0.0497,0.33237 0.0724,0.64912 0.0553,0.9834 -0.0231,0.82278 -0.0369,1.64886 0.0393,2.4691 0.003,0.13216 0.0141,0.2642 0.0103,0.39636 -0.0246,0.76972 -0.1749,1.52728 -0.30024,2.28513 -7.9e-4,0.11122 7.9e-4,0.22195 0.005,0.3328 0.002,0.0706 0.005,0.14112 0.008,0.21187 0.003,0.0949 0.0918,0.23414 0.0114,0.28474 l -0.009,0.006 c 7e-5,8e-4 -5.2e-4,0.002 -5.2e-4,0.003 0.002,0.0362 -0.006,0.0819 -0.0119,0.12402 0.003,0.0943 0.004,0.18952 -5.3e-4,0.29043 -1e-5,0.01 5.3e-4,0.0196 5.3e-4,0.0294 0.20886,-0.002 0.41778,-0.006 0.62631,-0.006 -0.003,-0.0191 -0.006,-0.0382 -0.008,-0.0574 0.002,0.0166 0.009,0.0373 0.016,0.0584 0.018,0.004 0.02,0.0258 0.0176,0.0527 -0.005,-0.0168 -0.0114,-0.0351 -0.0176,-0.0527 -0.002,-2.6e-4 -0.003,-0.001 -0.005,-0.001 h -0.002 c 0.006,0.0391 0.0115,0.0783 0.0186,0.11731 7.9e-4,-0.0185 0.005,-0.0413 0.007,-0.0631 0.009,0.0306 0.0117,0.0565 -0.006,0.0672 -2.6e-4,-0.001 -2.1e-4,-0.002 -5.3e-4,-0.004 -6e-5,0.002 -5.3e-4,0.004 -5.3e-4,0.006 h 5.3e-4 c 0.0415,0.2255 0.10027,0.44914 0.093,0.67593 0.004,0.16662 -0.004,0.26552 -0.0191,0.38706 -5.3e-4,-0.0236 -0.003,-0.0406 -0.0119,-0.0336 -0.063,0.0226 -0.0326,0.009 0.005,0.0956 h 5.3e-4 c 0.002,-0.0161 0.004,-0.0301 0.005,-0.0444 -5.3e-4,0.0155 -0.001,0.0317 -0.003,0.0517 -7.9e-4,-0.002 -0.002,-0.005 -0.003,-0.007 -0.007,0.0522 -0.0149,0.11106 -0.0238,0.1819 -0.008,0.0635 0.0165,-0.0696 0.0269,-0.17311 0.0116,0.0287 0.0236,0.0661 0.0331,0.11886 0.0561,0.30834 0.0948,0.57909 0.0615,0.88573 -0.002,0.035 0.005,0.072 -0.002,0.10593 0.0508,0.1693 0.0954,0.34362 0.0677,0.51677 -0.0752,-0.0617 -0.0101,-0.0161 0.0233,0.15503 0.0549,0.28287 0.0833,0.40036 0.0863,0.63045 10e-4,0.0657 0.007,0.22944 -5.3e-4,0.29094 -5.3e-4,0.003 -5.3e-4,0.007 -0.002,0.0104 0.0698,0.18886 0.0846,0.33396 0.0822,0.56895 v 0.2589 c 0.0292,0.14309 0.0632,0.28494 0.10077,0.42582 -0.0108,-0.0391 -0.0221,-0.078 -0.0191,-0.0579 0.0322,0.23181 0.0764,0.46158 0.11472,0.69246 -0.0205,0.13097 -0.041,0.26229 -0.0615,0.39326 0.006,-0.009 0.0161,-0.0395 0.0191,-0.0284 0.007,0.0293 -0.0173,0.1171 -0.004,0.0899 0.0352,-0.0732 -0.004,-0.18768 0.0501,-0.0879 0.23963,0.44868 0.36159,0.95553 0.32039,1.47174 -0.005,0.0659 -0.0178,0.13084 -0.0305,0.19585 0.002,0.0724 0.003,0.14469 0.004,0.21704 10e-4,0.0612 -5.3e-4,0.12278 -0.001,0.18397 0.11109,0.42085 0.11004,0.85701 0.0729,1.28726 -0.002,0.34177 0.007,0.6835 0.007,1.02526 -10e-4,0.32667 -0.002,0.65311 -5.3e-4,0.97979 1.4e-4,0.0636 0,0.12707 0,0.19068 5e-5,0.20649 2e-5,0.41313 0,0.61961 v 0.30385 0.51522 0.6568 0.81494 1.08159 0.62322 c 0.006,0.26262 -0.0269,0.39706 -0.10335,0.65009 0.001,0.46383 -0.0853,0.92543 -0.27027,1.35599 h -0.004 c -0.003,0.007 -0.007,0.014 -0.0104,0.0212 0.0718,-0.0294 9e-5,0.0852 -0.11989,0.23823 -0.25661,0.44433 -0.60588,0.69996 -0.96583,0.8015 -0.029,0.30355 -0.0608,0.60684 -0.0822,0.91105 4e-5,0.0729 5.2e-4,0.14576 5.2e-4,0.2186 2e-5,0.0165 1.9e-4,0.18981 5.3e-4,0.22272 4e-5,0.008 0.008,0.0259 0,0.0253 -0.004,-2.6e-4 -0.008,-1.2e-4 -0.0129,-5.3e-4 -0.0434,0.28984 -0.25078,0.0922 -1.18855,0.0109 -0.0213,0.0408 -0.0433,0.0817 -0.0641,0.12144 -0.0187,0.20225 -0.0317,0.40495 -0.0305,0.60823 -0.057,0.82475 -0.12463,1.64868 -0.17673,2.47375 -2.7e-4,0.0306 -1.4e-4,0.0613 -5.3e-4,0.092 -10e-4,0.0759 -0.002,0.15146 -0.003,0.22737 -1.4e-4,0.0123 0.0118,0.0375 -5.3e-4,0.0372 -0.39773,-0.009 -0.79516,-0.0227 -1.1927,-0.0377 -0.53163,0.0101 -1.06304,0.0188 -1.59472,0.0165 -0.0164,-9e-5 -1.6e-4,-0.0331 0,-0.0496 0,-0.0731 0.003,-0.14653 0.003,-0.21962 v -0.11369 c -0.27503,0.0941 -0.55642,0.16413 -0.84283,0.19947 -0.0927,0.0114 -0.17957,-0.0731 -0.25839,-0.2005 -0.15415,-0.0142 -0.30554,-0.0665 -0.45321,-0.14367 -1.37924,0.26269 -1.41449,-0.002 -1.66759,-0.87436 -0.008,0.002 -0.0172,0.003 -0.0254,0.005 -0.20634,0.89062 -0.57999,0.98937 -2.52904,0.71933 -0.0878,-0.0121 -0.15386,-0.1023 -0.2031,-0.23771 -0.42598,-0.0333 -0.51583,-0.0749 -1.00303,-0.57102 -0.0394,0.11693 -0.0846,0.23331 -0.14573,0.35036 -0.0257,0.12786 -0.0644,0.25195 -0.12351,0.36949 -0.82278,1.63751 -1.88402,2.90115 -3.82974,1.61592 -0.73282,-0.48406 -1.02526,-1.42627 -1.53789,-2.1394 -0.0445,-0.25869 -0.0763,-0.43634 -0.11782,-0.67283 -0.4541,-0.0285 -0.85238,-0.47073 -1.6242,-1.03508 -0.0103,0.0666 -0.0243,0.13236 -0.0465,0.19637 -0.16198,0.46799 -0.44151,0.88647 -0.66249,1.32964 -0.79105,0.0387 -1.63423,0.40039 -2.3735,0.11627 -0.98306,-0.37781 -1.40277,-3.43691 -1.46037,-3.84473 -0.0322,-0.22766 -0.0622,-0.45605 -0.0925,-0.68419 -0.0326,-0.0698 -0.0636,-0.14087 -0.0889,-0.21394 -0.29136,-0.84319 -0.43665,-1.4501 -0.51986,-2.04691 -0.23609,-0.16493 -0.44452,-0.42411 -0.62269,-0.63562 -0.38913,-0.46201 -0.66816,-0.93811 -0.88213,-1.43454 -0.46101,-0.0294 -0.65674,-0.28743 -1.20819,-0.68832 -0.0567,-0.0972 -0.11848,-0.19167 -0.17931,-0.28681 -0.28363,0.59386 -0.6755,1.065 -1.35032,1.25264 -0.096,0.0267 -0.22458,-0.0311 -0.29663,0.0377 -0.72017,0.68842 -0.59394,1.66759 -2.15024,1.48053 -0.62585,-0.0752 -1.03754,-0.71596 -1.55649,-1.07383 -0.87297,-3.30208 -0.72978,-2.15887 -0.90125,-6.42804 -0.0841,-2.09335 -0.16396,-4.18897 -0.13692,-6.28385 0.003,-0.14304 0.006,-0.28596 0.0103,-0.42892 -0.0132,-0.0875 -0.0277,-0.17497 -0.0403,-0.26251 -0.70964,-4.94256 -0.5593,-4.54083 -0.61341,-9.2599 -0.0101,-0.9769 -0.0609,-4.86255 -0.0589,-6.7014 0,-0.788 2.1e-4,-1.57624 0.0103,-2.3642 0.006,-0.50275 -0.0307,-1.00926 0.0336,-1.50792 0.0773,-0.59915 0.26617,-1.18237 0.38447,-1.77456 -0.044,-0.0572 -0.0868,-0.1138 -0.12816,-0.17002 -0.0663,0.22012 -0.13253,0.44298 -0.18034,0.57361 -0.0103,-0.12895 -0.0148,-0.25874 -0.031,-0.38706 -0.013,-0.10254 -0.052,-0.35049 -0.0946,-0.64027 -0.31091,-0.5174 -0.42804,-0.96699 -0.15089,-1.28106 -0.0185,-0.2869 -0.0143,-0.50813 0.0429,-0.54415 1.13853,-0.71836 1.83306,-0.86416 2.27531,-0.67593 0.0409,-0.006 0.0818,-0.0133 0.12298,-0.0212 0.0325,-0.0164 0.0674,-0.0241 0.10078,-0.0372 0,-0.0132 -0.003,-0.0338 -0.003,-0.0465 0.18626,-1.13221 0.30469,-1.93781 0.56896,-3.09438 0.0686,-0.30027 0.15372,-0.59793 0.25786,-0.8878 0.16221,-0.45151 0.33501,-0.90001 0.54001,-1.33377 0.0493,-0.10437 0.11084,-0.22714 0.21807,-0.26975 0.20098,-0.0799 0.40675,-0.14427 0.61444,-0.20464 0,-0.0211 0.003,-0.0423 0.003,-0.0636 0.0387,-0.012 0.0773,-0.0268 0.11575,-0.0419 0.0362,-0.0638 0.0826,-0.12337 0.1292,-0.17777 0.0185,-0.0216 0.0368,-0.0467 0.0548,-0.0708 -0.0947,0.0297 -0.19426,0.0637 -0.29147,0.10076 -0.003,0.0631 -0.006,0.1261 -0.009,0.18914 -0.10467,0.0324 -0.21016,0.0521 -0.31729,0.0465 -0.18854,-0.01 0.0437,-0.12903 0.32711,-0.2372 0.0183,-0.36202 0.0385,-0.72382 0.061,-1.08572 0.013,-0.26344 0.0298,-0.52705 0.0388,-0.79065 0.009,-0.26105 0,-0.5222 0,-0.78341 0,-0.0957 0.003,-1.00035 0.003,-1.00046 0.20783,-0.55788 0.53959,-1.06141 0.80926,-1.59215 0.64278,0.15029 1.34614,0.13946 1.92804,0.45114 0.0388,0.0207 0.0729,0.0471 0.10438,0.076 0.24646,0.0705 0.53634,0.16162 0.87437,0.27285 -0.005,-0.16798 -0.0103,-0.33599 -0.0164,-0.50384 -0.0262,-0.65365 -0.0536,-1.30769 -0.0708,-1.96164 -0.0233,-0.88243 0.0175,-1.76808 -0.0806,-2.6479 0.84508,-0.42903 1.6124,-1.07137 2.53524,-1.28726 0.0146,-0.003 0.0282,-0.004 0.0413,-0.004 z m 22.96089,39.81152 c -10e-4,-0.0114 -0.002,-0.0226 -0.007,-0.03 -2.3e-4,0.0115 -10e-4,0.0232 -0.002,0.0346 v 5.3e-4 c 0.003,-0.002 0.006,-0.003 0.009,-0.005 z m -0.009,0.005 c -0.003,0.002 -0.005,0.004 -0.008,0.006 0.002,0.0337 0.003,0.0678 0.004,0.1018 10e-4,-0.0358 0.003,-0.0717 0.004,-0.10749 z m 0.0899,-20.97288 c -0.0145,-0.0709 -0.0253,-0.14307 -0.0393,-0.21342 -0.0247,-0.006 -0.0493,-0.013 -0.0744,-0.0186 0.0305,0.0702 0.0613,0.13994 0.0956,0.20825 0.006,0.008 0.0136,0.0167 0.0181,0.0238 z m -18.41386,-15.46882 c -0.007,5e-5 -0.0148,1e-4 -0.0222,0.001 -0.004,1e-5 0.008,5.3e-4 0.0124,5.3e-4 0.003,-1.7e-4 0.007,-0.001 0.01,-0.002 z m -6.92981,-1.85415 c -0.0122,0.007 -0.008,0.159 0.0372,0.15813 0.009,-2.3e-4 0.0175,-8e-4 0.0265,-0.001 -0.0193,-0.0506 -0.0361,-0.0954 -0.0574,-0.15038 -0.003,-0.006 -0.004,-0.008 -0.006,-0.007 z m 54.15069,1.74459 h 5.3e-4 5.3e-4 c 0.0573,-7.9e-4 0.11434,-10e-4 0.17105,0.008 0.14468,0.0184 0.28777,0.0459 0.43098,0.0739 0.03,-0.002 0.0599,-0.003 0.0899,-0.003 0.27023,-2e-5 0.56839,0.0562 0.83509,0.11834 0.0191,-0.006 0.0451,-0.0116 0.0822,-0.015 0.31166,-0.0288 0.98788,-0.0583 1.10226,0.25373 0.0166,0.0452 0.0308,0.084 0.0465,0.12712 0.11027,0.11016 0.22864,0.3705 0.26407,0.51211 0.0161,0.0643 0.0242,0.11033 0.0372,0.16744 0.097,-0.003 0.19422,-0.007 0.293,-0.004 0.72373,-0.21876 1.5443,-0.32098 2.22674,-0.0134 1.0029,0.45135 1.21385,1.27207 1.05833,2.13114 0.008,0.0475 0.0167,0.0946 0.0222,0.14262 0.58122,-0.006 1.16304,-0.0148 1.71928,0.13436 0.52613,0.14113 1.00469,0.4938 1.35857,0.90796 0.0875,0.10237 0.17248,0.20809 0.25631,0.31522 0.003,-5.3e-4 0.005,-0.001 0.009,-0.002 1.37853,0.2665 2.93942,0.0635 4.13514,0.79943 0.52604,0.32373 0.3296,1.25116 0.16279,1.84588 -0.0417,0.1487 -0.0924,0.28683 -0.14728,0.42065 0.16318,0.18104 0.31171,0.36869 0.43769,0.56327 0.37729,0.58272 0.27654,1.36042 0.41497,2.0407 -0.2721,0.78047 -0.39227,1.63639 -0.74052,2.37919 0.23241,-0.006 0.46485,-0.006 0.69763,0.004 1.93859,0.0769 4.07384,1.56863 4.78058,3.36931 0.29048,0.74011 -0.0713,1.63923 -0.43821,2.34456 -1.24101,2.3854 -2.27488,3.21462 -3.85817,4.16098 0.64221,0.60366 1.34375,1.15685 1.85932,1.86862 0.38725,0.53461 0.62521,1.18541 0.74518,1.83452 0.17337,0.93797 0.29077,1.9142 0.16433,2.85925 0.0701,0.15818 0.14549,0.32488 0.23358,0.51211 -0.12288,1.03463 0.0303,2.14185 -0.36897,3.10421 -0.0557,0.13424 -0.1206,0.26384 -0.19172,0.39016 0.1958,1.11036 0.30863,2.26848 0.0119,3.29437 -0.0742,0.25645 -0.19079,0.50358 -0.33642,0.73174 0.0101,0.46054 -0.0684,0.90703 -0.29765,1.30844 -0.53824,0.94234 -1.79676,1.32191 -3.00861,1.51154 -0.0772,0.75082 -0.17776,1.4971 -0.35605,2.22932 -0.1881,0.77247 -0.70744,1.42479 -1.0945,2.11925 -0.50862,0.91256 -1.01104,1.83121 -1.59112,2.7001 -0.23043,0.34513 -0.53381,0.63789 -0.83096,0.92759 -1.25019,1.21885 -1.24373,1.20802 -2.18436,1.69653 -0.11464,0.11555 -0.24156,0.2351 -0.36484,0.35347 0.18646,0.19158 0.3625,0.39179 0.50695,0.61753 0.11723,0.1832 -0.27012,0.34141 -0.41651,0.5023 -0.33137,0.3641 -0.66879,0.72319 -1.01596,1.07228 -0.41596,0.41823 -0.83996,0.82814 -1.27279,1.22887 -0.92244,0.85403 -1.34243,1.23906 -1.71566,1.56218 -0.0231,0.14598 -0.0391,0.29331 -0.0729,0.43718 -0.0221,0.0945 -0.008,0.24048 -0.0992,0.27389 -0.40773,0.14941 -0.56377,0.10587 -0.6382,-0.047 -0.29561,0.23783 -0.4922,0.3988 -1.08418,0.87282 -0.90886,0.72627 -1.81009,1.46211 -2.72903,2.17557 -0.6433,0.49942 -1.29245,0.9945 -1.95595,1.46865 -0.014,0.14366 -0.0283,0.28731 -0.0424,0.43098 -0.0894,0.91493 -0.10785,2.54677 -1.27434,2.88096 -1.76571,0.50587 -1.99067,-1.33673 -2.05258,-2.23604 -0.0156,-0.22696 -0.0156,-0.45462 -0.0186,-0.68213 -0.20997,0.0139 -0.37913,0.054 -0.51573,0.10542 -0.009,0.0572 -0.0122,0.08 -0.0217,0.14263 -0.0597,0.31685 -0.11338,0.63503 -0.17053,0.9524 0.074,0.23495 0.0686,0.48016 -0.0935,0.48834 -0.0216,0.10639 -0.043,0.21298 -0.0672,0.31884 -0.0202,0.0885 -0.0375,0.26123 -0.12609,0.24133 -0.0804,-0.0181 -0.15977,-0.0406 -0.23875,-0.0651 0.0539,0.0292 0.10514,0.0655 0.15245,0.11162 0.24463,0.23815 -0.17876,0.3154 -0.68317,0.3731 -0.14687,0.42644 -0.37213,0.98495 -0.48472,1.2206 -0.053,0.11092 -0.13875,0.20295 -0.20826,0.30437 -0.0376,0.01 -0.0768,0.0162 -0.11524,0.0243 -0.0214,0.0346 -0.044,0.0699 -0.0687,0.10491 -0.10106,0.24601 -0.19604,0.50302 -0.41341,0.4718 -0.17348,-0.0249 -0.30765,-0.0468 -0.45578,-0.0698 0.24424,-0.0518 0.48385,-0.11427 0.62942,-0.1664 0.0749,-0.0268 0.16306,-0.12706 0.23977,-0.23564 0.0141,-0.0343 0.0288,-0.0667 0.0434,-0.0997 0.008,-0.002 0.0166,-0.003 0.0248,-0.005 0.0956,-0.15494 0.14985,-0.28406 0.0811,-0.19172 -0.0403,0.0545 -0.0741,0.12368 -0.10645,0.19689 -0.54841,0.11038 -1.17279,0.0764 -1.61903,0.38137 0.19262,0.0388 0.44136,0.0793 0.70642,0.12041 -0.51347,0.10881 -1.05142,0.16705 -0.80512,-0.0455 0.0315,-0.0271 0.065,-0.052 0.0987,-0.0749 -1.18717,-0.23908 -1.1058,-0.48352 -1.05264,-1.341 0.0497,-0.35923 0.094,-0.71956 0.14934,-1.07797 0.13643,-0.88359 0.22051,-1.3348 0.29766,-1.80093 0.27298,-0.025 0.53667,-0.0777 0.77566,-0.20257 0.006,-0.025 0.0121,-0.055 0.0186,-0.0832 -0.16419,0.0461 -0.4128,0.0926 -0.7767,0.1726 -0.006,0.0363 -0.0127,0.0773 -0.0186,0.11317 -0.18975,0.0174 -0.38393,0.0225 -0.57774,0.0274 0.22899,-0.0581 0.42303,-0.10258 0.59583,-0.14056 0.0161,-0.0993 0.0325,-0.20047 0.0486,-0.30799 -0.51698,0.2061 -0.86854,0.37396 -1.11156,0.47284 0.15374,-0.0132 0.30954,-0.0203 0.46664,-0.0243 -0.26598,0.0676 -0.57179,0.15185 -0.92398,0.25839 -0.10123,0.0306 -0.0836,-0.19465 -0.11989,-0.29404 -0.0646,-0.17668 -0.12488,-0.3548 -0.18707,-0.53227 -0.318,0.006 -0.73377,-0.0908 -1.28312,-0.34055 -0.55975,-0.25451 -0.74596,-0.56508 -0.74104,-0.8785 -0.032,0.005 -0.0907,0.0139 -0.11782,0.0171 -0.39991,0.25422 -0.92359,0.28882 -1.37408,0.0212 -0.50437,0.009 -0.51382,0.0461 -0.97048,-0.47387 -0.0226,-0.0257 -0.0534,-0.0523 -0.0646,-0.0837 -0.009,-0.005 -0.0184,-0.0102 -0.0274,-0.016 -0.30717,-0.19883 -0.50451,-0.45943 -0.69556,-0.75448 -0.0444,-0.0686 -0.10741,-0.13031 -0.12609,-0.20981 -0.008,-0.0349 -0.0144,-0.0703 -0.0217,-0.10542 -0.0171,-0.024 -0.0366,-0.0517 -0.0465,-0.0667 -0.24171,-0.36624 -0.28297,-0.39885 -0.31057,-0.55035 -0.0815,-0.13244 -0.1338,-0.25475 -0.16588,-0.38189 -0.14409,-0.22032 -0.21377,-0.39409 -0.28526,-0.65888 -0.009,-0.0451 -0.008,-0.0312 0.031,0.0269 -0.004,-0.0264 -0.0244,-0.0478 -0.0372,-0.0713 -0.14723,-0.27178 -0.26587,-0.48728 -0.31264,-0.82424 -0.006,-0.17895 -0.009,-0.2178 -0.004,-0.23823 -0.10654,-0.32035 -0.20534,-0.64244 -0.22738,-0.98185 0.001,-0.008 -0.002,-0.0298 0.004,-0.0248 0.0143,0.0126 0.0267,0.0694 0.0243,0.0506 -0.0345,-0.2099 -0.14971,-0.5288 -0.0956,-0.67851 -0.0666,-0.30638 -0.13007,-0.61689 -0.11369,-0.93173 0,-0.28035 5e-5,-0.56042 0,-0.84077 -5e-5,-0.094 5.3e-4,-0.18815 10e-4,-0.28216 0,-0.27486 -0.004,-0.54942 5.3e-4,-0.82424 0.0103,-0.17662 -0.0157,-0.35077 -0.0217,-0.52761 0.0148,-0.26252 0.006,-0.22795 0.0527,-0.48731 0.007,-0.0398 0.0146,-0.08 0.0274,-0.11834 0.004,-0.013 0.0223,-0.0201 0.0243,-0.0336 0.0136,-0.0947 -0.0166,-0.1928 0,-0.28732 -4e-5,-0.38717 -2.3e-4,-0.774 0,-1.16117 0.001,-0.27609 2.7e-4,-0.55228 -5.3e-4,-0.82837 0,-0.20016 0.007,-0.48632 0.005,-0.62425 -0.0315,-0.35672 -0.0226,-0.63123 0.076,-0.92036 0.0265,-0.30699 0.0717,-0.61243 0.0827,-0.91984 10e-4,-0.2486 0.0224,-0.44932 -0.002,-0.67076 -0.008,-0.12314 -0.0367,-0.50057 -0.0248,-0.60048 0.0319,-0.26797 0.0891,-0.53307 0.14366,-0.79737 0.003,-0.0156 0.0135,-0.0292 0.0212,-0.0434 -0.001,-0.23891 0.0115,-0.50352 0.0553,-0.98753 0.0213,-0.23649 0.0609,-0.47189 0.11834,-0.70229 0.0353,-0.14195 0.0151,-0.39129 0.11317,-0.46457 -5.3e-4,-0.10162 0.002,-0.20352 -0.005,-0.30489 -0.008,-0.0195 -0.0155,-0.0389 -0.0222,-0.0589 -0.0323,-0.0965 5.3e-4,-0.23739 0.0217,0.0475 2.6e-4,0.004 7e-5,0.008 5.3e-4,0.0114 0.0248,0.0613 0.054,0.1208 0.0806,0.18138 0.002,-0.0114 0.003,-0.0227 0.005,-0.0341 -0.0262,-0.0957 -0.0339,-0.19587 -0.0341,-0.29611 -0.0842,-0.1553 -0.17137,-0.32971 -0.25322,-0.52193 -0.0232,-0.0544 0.0213,-0.42558 0.0403,-0.52813 0.0125,-0.0672 0.0461,-0.26829 0.0465,-0.19999 5.3e-4,0.0809 -0.0313,0.15924 -0.0465,0.23874 0.0212,0.18193 -0.0785,0.66005 0.0646,0.5457 0.0596,-0.0476 0.11481,-0.0994 0.17001,-0.15141 0.006,-0.30387 0.001,-0.60826 -5.3e-4,-0.91209 0,-0.0748 -7e-5,-0.14999 0,-0.22479 5.3e-4,-0.23567 1.3e-4,-0.36845 5.3e-4,-0.63097 -0.007,-0.22167 -0.01,-0.44383 -5.3e-4,-0.66611 7.9e-4,0 -0.001,2e-5 0.002,0 3e-5,-0.001 -2e-5,-0.0362 0,-0.0362 0.0886,-0.006 0.17699,-0.009 0.26562,-0.0124 0.005,-0.0946 0.01,-0.21961 0.0222,-0.49248 0.0526,-1.08984 0.0523,-2.18036 0.03,-3.27111 -0.003,-0.009 -0.009,-0.0166 -0.0119,-0.0258 -0.0498,-0.20655 -0.081,-0.41724 -0.12144,-0.62581 -5.3e-4,-0.57747 0.15683,-1.13809 0.16382,-1.71462 -0.072,-0.47805 0.24952,0.38544 0.35966,0.63355 0.008,-0.005 0.0165,-0.009 0.0248,-0.0139 -0.0654,-0.35928 -0.30041,-0.67936 -0.41548,-1.03043 -0.0203,-0.0611 -0.004,-0.12907 0.001,-0.19327 0.0131,-0.18037 0.0348,-0.35999 0.0522,-0.54001 0.0746,-0.56618 0.0417,-0.32385 0.15141,-1.10536 0.021,-0.14955 0.041,-0.29938 0.0641,-0.44856 -0.50369,-0.38576 -0.5234,-0.83625 -0.52245,-1.36167 -0.0115,0.064 1.9e-4,-0.0216 0.015,-0.12092 -0.001,-0.0673 -0.003,-0.13821 -0.003,-0.15813 -0.0393,-0.13038 0.0258,-0.27054 -5.3e-4,-0.40204 -0.006,-0.0316 -0.0384,-0.0529 -0.0496,-0.0832 -0.027,-0.0733 -0.0453,-0.1495 -0.0641,-0.22531 -0.0768,-0.3087 -0.0584,-0.25717 -0.0899,-0.59687 0.002,0.0769 0.003,0.12212 0.005,0.15142 -0.002,-0.0153 -0.005,-0.031 -0.009,-0.0398 -0.0652,-0.12487 -0.029,0.0431 -0.10077,-0.20568 -0.16014,-0.55469 -0.14049,-0.50934 -0.20929,-0.9803 -0.002,-0.0934 -0.004,-0.14636 -0.006,-0.20412 -0.23102,-0.23864 -0.16046,-0.81185 -0.0822,-1.23455 -0.0361,-0.13538 -0.0701,-0.27145 -0.0951,-0.40928 -0.0314,-0.17527 -0.007,-0.35622 -0.003,-0.53433 0.007,-0.34186 0.0312,-0.67857 0.0532,-1.01906 -0.0333,-1.08128 0.27117,-2.11992 0.57309,-3.14658 -0.11528,-0.29305 -0.08,-0.0934 -0.0992,-0.68058 0.17534,-0.17083 0.33752,-0.35871 0.50229,-0.54312 -0.0355,-0.39344 -0.005,-0.90047 0.002,-1.09967 -0.01,-0.0636 -0.0162,-0.13017 -0.0186,-0.20257 -0.005,-0.15116 0.0219,-0.3039 0.0661,-0.44907 0.0456,-0.43399 0.11134,-0.86589 0.14677,-1.3007 0.003,-0.048 -0.006,-0.19229 5.2e-4,-0.14469 0.009,0.0544 0.002,0.11036 0.002,0.16536 0.14894,-0.0449 0.29747,-0.0928 0.44545,-0.14159 0.0482,-0.092 0.10414,-0.17867 0.16899,-0.25632 0.0298,-0.0652 0.0601,-0.13037 0.0894,-0.19585 l 0.0444,-0.0873 c 0.0412,-0.17297 0.0876,-0.35579 0.092,-0.37362 0.0256,-0.10332 0.0515,-0.20682 0.0775,-0.31006 0.008,-0.0252 0.0152,-0.0467 0.0233,-0.0713 0.0438,-0.46593 0.073,-0.96058 0.23306,-1.40198 0.0265,-0.0731 0.0607,-0.14885 0.0987,-0.22531 -0.003,-0.053 -0.004,-0.10628 0.006,-0.15813 0.0339,-0.18425 0.0785,-0.36613 0.11782,-0.54932 0.0317,-0.0743 0.055,-0.15292 0.0956,-0.22272 0.23454,-0.4027 0.53765,-0.74055 0.83199,-1.09916 0.39694,-0.48365 0.33159,-0.40448 0.68885,-0.84904 0.16292,-0.42142 0.70172,-1.15413 1.09709,-1.13688 0.0822,-0.0864 0.17234,-0.16488 0.2589,-0.24702 -0.12174,-0.74315 0.38892,-1.5726 1.53065,-1.61489 0.11321,-0.10737 0.22658,-0.21434 0.35347,-0.30437 0.0234,-0.0163 0.7949,-0.34124 0.0429,-0.0238 0.20856,-0.23875 0.74339,-0.51372 1.12552,-0.51211 0.11363,-0.0738 0.23924,-0.13326 0.35449,-0.20361 0.0349,-0.0213 0.078,-0.0557 0.11576,-0.0403 0.0312,0.0127 0.0631,0.0244 0.0946,0.0367 0.10904,-0.11007 0.22741,-0.21636 0.35501,-0.32401 0.0465,-0.0393 0.10228,-0.0657 0.15348,-0.0987 0.11451,0.034 0.011,0.0144 0.20309,-0.16485 0.006,-0.006 0.4126,-0.3722 0.48369,-0.38757 0.0267,-0.006 0.0522,-0.0105 0.0786,-0.016 0.0336,-0.0285 0.0658,-0.0559 0.0879,-0.0729 0.0452,-0.0349 0.15726,-0.11097 0.27595,-0.17932 0.13916,-0.15875 0.39308,-0.21678 0.60307,-0.26407 0.0223,-0.005 0.045,-0.0107 0.0672,-0.0171 0.0111,-0.003 0.0209,-0.006 0.0305,-0.008 0.002,-5.3e-4 0.004,-10e-4 0.006,-0.002 5.3e-4,-1.4e-4 5.3e-4,-1.7e-4 0.002,-5.3e-4 0.0354,-0.0104 0.068,-0.0331 0.1049,-0.0341 0.01,-5.3e-4 0.003,0.0204 0.005,0.0305 0.0173,-0.012 0.0548,-0.0489 0.062,-0.0491 0.0324,-0.0466 0.0682,-0.0879 0.11989,-0.10594 0.14814,-0.0518 0.26954,-0.0968 0.37724,-0.13746 0.0862,-0.0772 0.17791,-0.12951 0.32401,-0.21497 0.008,-0.011 0.011,-0.0132 0.003,-0.001 0.0491,-0.0288 0.0931,-0.0541 0.16019,-0.0956 0.0196,-0.007 0.0228,-0.008 0.0398,-0.0139 0.0964,-0.0764 0.19624,-0.14732 0.30954,-0.19224 0.11068,-0.0438 0.2282,-0.0603 0.34778,-0.0708 0.0652,-0.0307 0.12555,-0.0586 0.13953,-0.0625 0.15992,-0.16207 0.35421,-0.25384 0.64905,-0.25218 0.14541,-0.0735 0.33801,-0.12198 0.67696,-0.16899 0.0423,-0.006 0.0873,-0.0103 0.13333,-0.0129 0.24129,-0.0839 0.22052,-0.0762 0.90692,-0.21755 0.0622,-0.0127 0.12879,0.016 0.19069,0 0.17708,1.3e-4 0.35417,-1.2e-4 0.53123,0 0.28708,3e-5 0.57439,0.002 0.86145,-0.001 0.42323,0.001 0.84644,0.011 1.26969,0.001 0.22767,-0.01 0.33091,-0.0155 0.58187,-0.0165 0.0566,-5.3e-4 0.11375,-0.003 0.17053,-0.004 z m -47.19815,0.10852 c -0.006,0 -0.0116,8e-4 -0.0169,10e-4 0.14936,0.005 0.2707,0.0103 0.0169,-10e-4 z m 47.9547,0.003 c 0.0736,0.0139 0.14719,0.027 0.22117,0.0382 0.0393,0.006 -0.0754,-0.0241 -0.11317,-0.0362 -0.036,-8e-4 -0.072,-0.001 -0.108,-0.002 z m -47.1935,0.063 c -0.0279,0.003 -0.11102,0.006 -0.0832,0.0104 0.0461,0.007 0.0928,0.004 0.13954,0.003 -0.0188,-0.004 -0.0375,-0.009 -0.0563,-0.0129 z m -2.02004,0.11421 c -0.0642,-5.3e-4 -0.14928,0.003 -0.19015,0.0155 -0.0811,0.0238 -0.13156,0.0404 -0.18863,0.0579 0.10803,-0.0131 0.24183,-0.0311 0.4444,-0.0615 0.0421,-0.006 -0.003,-0.0115 -0.0656,-0.0119 z m 3.375,0.0222 c 0.0153,0.01 0.0313,0.0191 0.0465,0.0289 0.0101,-5.3e-4 0.0188,-0.001 0.0284,-0.002 -0.007,-0.003 -0.0164,-0.008 -0.0228,-0.0104 -0.0172,-0.007 -0.0346,-0.0118 -0.0522,-0.0165 z m 0.12607,0.0832 v 5.3e-4 c 0.0214,0.0152 0.0427,0.031 0.0641,0.0465 0.0159,-0.002 0.0366,-0.005 0.062,-0.006 -0.0212,-0.0132 -0.0411,-0.0238 -0.0615,-0.0357 -0.022,-0.002 -0.0437,-0.004 -0.0646,-0.005 z m 39.93866,0.0646 v 5.3e-4 c 0.001,0 0.002,5.3e-4 0.003,5.3e-4 -8e-4,-2.3e-4 -0.002,-8e-4 -0.003,-0.001 z m 0.003,0.001 c 0.10173,0.0264 0.20198,0.0617 0.30385,0.0873 -0.0889,-0.0279 -0.17675,-0.0589 -0.26665,-0.0837 -0.008,-0.002 -0.0219,-0.003 -0.0372,-0.004 z m -44.08569,0.001 c -0.039,0.0221 -0.0719,0.0484 -0.10644,0.0811 0.0124,-0.004 0.0185,-0.005 0.0315,-0.009 0.0249,-0.0243 0.0496,-0.0485 0.0749,-0.0718 z m 50.15198,0.0553 c -0.0102,0.011 -0.018,0.0178 -0.0279,0.0284 0.0813,-0.028 0.10049,-0.0297 0.0279,-0.0284 z m -43.52809,0.009 c -0.003,8e-4 -0.003,0.002 -0.005,0.003 0.006,-10e-4 0.0106,-10e-4 0.0161,-0.002 -0.003,-2e-5 -0.008,-5.3e-4 -0.0109,-5.3e-4 z m -4.62142,0.0873 c -0.0748,-0.002 -0.14653,0.008 -0.20878,0.03 0.0175,0.002 0.0196,0.002 0.0388,0.004 0.0484,0.012 0.0997,0.0176 0.15089,0.0238 0.0991,-2.6e-4 0.20108,-0.002 0.30644,0.001 -0.0903,-0.0357 -0.19097,-0.0562 -0.28731,-0.0584 z m 41.11015,0.0718 c -0.002,0.002 -0.003,0.003 -0.008,0.005 -0.0352,0.0196 -0.0521,0.0292 -0.0775,0.0434 0.0157,-0.001 0.0309,-0.002 0.0465,-0.004 0.0129,-0.0149 0.0259,-0.0303 0.0393,-0.0444 z m 0.20412,0.009 c -0.0296,4e-5 -0.0688,0.002 -0.0873,0.009 -0.0162,0.005 -0.0321,0.0116 -0.0481,0.0176 0.0556,-0.005 0.11088,-0.0102 0.16536,-0.0202 0.0193,-0.004 -5.3e-4,-0.006 -0.03,-0.006 z m -35.51722,0.0698 c 0.0369,0.0182 0.0737,0.0361 0.11059,0.0543 -0.037,-0.0176 -0.0705,-0.0481 -0.11059,-0.0543 z m 35.22835,0.0196 -5.3e-4,5.3e-4 c 5.3e-4,-9e-5 8e-4,-1.6e-4 0.002,-5.3e-4 z m -10e-4,5.3e-4 c -0.0498,0.022 -0.0995,0.0436 -0.14934,0.0656 -10e-4,0.008 -0.002,0.0187 -0.002,0.0284 -0.0265,0.002 -0.0529,0.003 -0.0786,0.006 -0.0207,0.009 -0.0416,0.0169 -0.0625,0.0248 0.0395,5.3e-4 0.0744,5.3e-4 0.14262,10e-4 0.001,0.0263 0.001,0.0585 -0.007,0.108 0.0228,-0.0378 0.0448,-0.0738 0.0677,-0.10852 -0.0203,0 -0.0439,1.5e-4 -0.0615,0 -5.3e-4,-0.0114 -1.9e-4,-0.0229 -5.3e-4,-0.0315 0.0286,-0.002 0.057,-0.004 0.0858,-0.005 0.0213,-0.0311 0.0431,-0.0606 0.0651,-0.0889 z m -35.0883,0.0341 c -0.15568,-0.002 -0.38757,0.0124 -0.23048,0.0104 0.0783,-5.3e-4 0.15687,-0.003 0.23513,-0.006 0,0 0,-5.3e-4 0,-5.3e-4 -0.003,-0.001 -0.003,-0.003 -0.005,-0.004 z m 0.077,0.003 c -0.0241,7.9e-4 -0.0479,7.9e-4 -0.0718,0.002 0.26755,0.20756 0.52602,0.43009 0.82836,0.5793 0.141,0.0696 -0.15634,-0.23734 -0.29869,-0.35864 -0.0917,-0.003 -0.1824,-0.012 -0.26871,-0.0408 -0.0849,-0.0285 0.0457,-0.0241 0.19172,-0.0176 -0.10472,-0.0669 -0.22778,-0.10574 -0.34158,-0.1571 -0.007,-0.003 -0.0206,-0.005 -0.0393,-0.007 z m -4.99761,0.0351 0.003,5.3e-4 c 0,0 0,-5.3e-4 0,-5.3e-4 z m 0.003,0 v 5.3e-4 c 0,-2.6e-4 0.003,-2e-4 0.004,-5.3e-4 0,1e-5 -0.003,-2e-5 -0.004,0 z m -0.003,5.3e-4 c -0.003,9e-5 -0.003,2.6e-4 -0.005,5.2e-4 v 0.001 c 0.003,-1.2e-4 0.003,-0.001 0.005,-0.002 z m 39.94484,0.017 c -0.008,0.0114 -0.0149,0.0244 -0.0227,0.0362 0.0918,1.4e-4 0.20254,0.001 0.36328,-0.006 0.15161,-0.005 -0.0876,-0.036 -0.34003,-0.0305 z m -44.24744,0.14367 c -0.0587,-0.002 -0.11438,0.003 -0.16431,0.0232 0.0481,0.23331 0.10766,0.51424 0.14674,0.70952 0.003,-0.001 0.005,-0.002 0.008,-0.004 0.0334,-0.24059 0.0669,-0.48119 0.0992,-0.72192 -0.0303,-0.004 -0.0602,-0.006 -0.0894,-0.007 z m 10.00562,0.0331 c 0.35276,0.26853 0.67024,0.60036 1.07743,0.77204 0.20775,0.0876 -0.2594,-0.37476 -0.42839,-0.52399 -0.0952,-0.0842 -0.2318,-0.10311 -0.3452,-0.16072 0.12938,0.0741 0.27078,0.17996 0.19225,0.13436 -0.15087,-0.0876 -0.25405,-0.15019 -0.33539,-0.19792 -0.0527,-0.0129 -0.10623,-0.0201 -0.1607,-0.0238 z m 33.62326,0.0708 c -0.007,0.001 -0.0142,0.003 -0.0217,0.004 -0.003,0.002 -0.005,0.005 -0.008,0.007 0.01,-0.003 0.0204,-0.007 0.03,-0.0108 z m -0.28112,0.0863 c -5.3e-4,2.4e-4 -8e-5,1.4e-4 -0.002,5.3e-4 -5.3e-4,8e-4 -5.3e-4,8e-4 -0.001,0.002 0.001,-7.9e-4 0.002,-0.001 0.003,-0.002 z m -0.007,0.003 c -0.0525,0.0198 -0.0888,0.0327 -0.16485,0.0615 -0.0176,0.007 -0.0404,0.0233 -0.0646,0.0429 0.079,-0.03 0.15323,-0.0584 0.21446,-0.0822 0.005,-0.008 0.0105,-0.015 0.0155,-0.0222 z m 8.19019,0.0481 c -0.006,-7.9e-4 -0.0131,2.6e-4 -0.0176,0.001 -0.0223,0.005 -0.0451,0.009 -0.0677,0.0134 0.031,0.006 0.0644,0.0123 0.093,0.0176 7.9e-4,-0.008 0.002,-0.0163 0.003,-0.0238 5.3e-4,-0.005 -0.004,-0.008 -0.0103,-0.008 z m -39.97791,0.47077 c 0.0701,0.0932 0.14137,0.19434 0.20979,0.29352 0.0161,0.002 0.0313,0.006 0.0439,0.015 -0.0606,-0.10109 -0.073,-0.12131 -0.16071,-0.2682 -0.0306,-0.0141 -0.0619,-0.0271 -0.093,-0.0403 z m 30.79191,0.21033 c -0.0126,0.0242 -0.0251,0.0481 -0.0382,0.0723 0.0931,-0.0105 0.17315,-0.0195 0.23926,-0.0258 0.0237,-0.0125 0.0459,-0.0241 0.0687,-0.0351 -0.0463,-0.002 -0.19412,-0.008 -0.26923,-0.0114 z m -0.7183,0.10386 c -0.0367,0.0285 -0.0732,0.057 -0.11007,0.0853 0.0259,-0.005 0.0514,-0.009 0.077,-0.0134 0.0108,-0.0242 0.0222,-0.0481 0.0341,-0.0718 z m -29.84779,0.003 c 0.003,0.003 0.004,0.005 0.006,0.008 0.0106,2.3e-4 0.0209,7.9e-4 0.0315,10e-4 -2.2e-4,-2.6e-4 0,-7.9e-4 0,-10e-4 -0.006,5.3e-4 -0.0198,-0.002 -0.0372,-0.008 z m 0.0103,0.0134 c 0.003,0.003 0.003,0.004 0.005,0.007 0.0143,0.007 0.0286,0.0143 0.0429,0.0212 -0.005,-0.009 -0.01,-0.0158 -0.0151,-0.0248 -0.014,-0.001 -0.0214,-0.003 -0.0326,-0.004 z m 0.0196,0.0279 c 0,8e-4 0.003,0.002 0.003,0.003 0.004,7.9e-4 0.003,5.3e-4 0.01,0.003 0.008,0.002 0.0151,0.004 0.0228,0.005 0,-0.002 -0.003,-0.004 -0.004,-0.006 -0.0106,-0.002 -0.0251,-0.004 -0.031,-0.005 z m 0.0419,0.007 v 5.2e-4 c 0,8e-5 0,5.3e-4 0.003,5.3e-4 0,-2.4e-4 0,-7.9e-4 -0.003,-0.001 z m 0.003,0.001 c 0.007,0.003 0.0135,0.006 0.0201,0.01 0.0109,0.002 0.022,0.005 0.0325,0.007 0.0101,-7.9e-4 0.0212,-0.002 0.0326,-0.002 -0.0359,-0.008 -0.0606,-0.0111 -0.0853,-0.015 z m 0.48834,0.10232 c 0.0912,0.0438 0.18198,0.0894 0.25993,0.13074 -0.0822,-0.0457 -0.16531,-0.0892 -0.25011,-0.12971 -0.003,-2.5e-4 -0.007,-7.9e-4 -0.01,-0.001 z m 1.19166,0.73743 v 5.3e-4 c 0,6e-5 0,-7e-5 0,0 0,-2.4e-4 0,-2.7e-4 0,-5.3e-4 z m 0,5.3e-4 c 0.0159,0.0123 0.0318,0.0249 0.0476,0.0372 0.0228,0.005 0.0443,0.0105 0.0512,0.0145 0.01,0.006 0.0204,0.0119 0.0305,0.0176 0.022,0.006 0.0442,0.0121 0.0661,0.0181 -0.0411,-0.0331 -0.0817,-0.0618 -0.1085,-0.0682 -0.0278,-0.007 -0.0571,-0.0131 -0.0868,-0.0191 z m 0.1292,0.0692 c -0.0222,-0.006 -0.0441,-0.0128 -0.0661,-0.0191 0.19167,0.15007 0.3801,0.30448 0.58706,0.43202 0.0791,0.0487 -0.11065,-0.15219 -0.18397,-0.20929 -0.0539,-0.042 -0.1121,-0.0777 -0.17158,-0.11162 0.0459,0.0536 0.0204,0.0314 -0.0419,-0.0238 -0.0411,-0.0227 -0.0826,-0.0453 -0.1235,-0.0682 z m -0.0661,-0.0191 c -0.005,-0.004 -0.0103,-0.008 -0.0156,-0.0124 -0.0365,-0.008 -0.0766,-0.0143 -0.0703,-0.0124 0.0284,0.009 0.0572,0.0166 0.0858,0.0248 z m 0.13332,0.25167 c 0.003,0.002 0.003,0.004 0.005,0.006 0.0106,0.007 0.0214,0.0134 0.032,0.0202 -0.009,-0.007 -0.0236,-0.0165 -0.0372,-0.0258 z m 0.24289,0.14056 c -0.01,-8e-4 -0.0151,-8e-4 -0.018,0.002 0.0385,0.034 0.009,0.008 0.0367,0.0331 0.0132,0.008 0.0268,0.0146 0.0403,0.0217 0.003,2.6e-4 0.006,2.5e-4 0.009,5.3e-4 0,-0.004 0.009,-0.003 0.019,0.002 0.0608,0.005 0.12184,0.0117 0.18243,0.0186 -0.10737,-0.042 -0.22162,-0.074 -0.26874,-0.0775 z m 0.0222,0.0382 v 5.3e-4 c 0.013,0.0116 0.007,0.006 0.018,0.016 0.006,5.2e-4 0.0116,5.2e-4 0.0164,0.002 -0.0114,-0.006 -0.023,-0.0123 -0.0346,-0.0181 z m 0.28577,0.0548 c 0.0254,0.0318 0.0499,0.0648 0.0739,0.0982 0.0489,0.0176 0.0979,0.0349 0.14624,0.0537 -0.0196,-0.0199 -0.0418,-0.0436 -0.0584,-0.0594 -0.0327,-0.0313 -0.0938,-0.0636 -0.16174,-0.0925 z m 0.41805,0.60926 c 0.003,0.003 0.004,0.006 0.006,0.009 0.0135,-2.6e-4 0.0272,-1.9e-4 0.0408,0.001 0.0645,0.007 0.12422,0.0131 0.1819,0.0202 -0.004,-0.004 -0.007,-0.009 -0.0109,-0.0134 -0.074,-0.007 -0.14745,-0.0129 -0.21809,-0.0165 z m 0.6315,0.0754 c 0.004,0.006 0.009,0.0117 0.0135,0.0176 0.20709,0.0405 0.35504,0.09 0.47955,0.15864 -0.0704,-0.0716 -0.26246,-0.13182 -0.49297,-0.17621 z m 0.36793,0.29455 v 5.3e-4 c 0.003,0.004 0.007,0.009 0.0103,0.0129 0.0254,0.0132 0.0376,0.019 0.0656,0.0336 0.013,-0.0113 0.0257,-0.0223 0.0393,-0.0346 -0.018,-0.002 -0.0358,-0.005 -0.0537,-0.006 -0.0143,-7.9e-4 -0.0393,-0.004 -0.0615,-0.006 z m -0.10543,5.3e-4 c -0.003,0.003 -0.004,0.007 0.004,0.0134 0.004,0.004 0.009,0.008 0.014,0.0119 -0.006,-0.009 -0.0114,-0.0172 -0.0175,-0.0253 z m 0.12454,0.0227 v 5.3e-4 c 0.004,0.005 0.007,0.01 0.0114,0.0145 0.0135,0.004 0.0272,0.009 0.0408,0.0129 0,-7.9e-4 0.003,-0.002 0.003,-0.003 -0.0191,-0.009 -0.037,-0.0168 -0.0553,-0.0248 z m 0.36433,0.0491 c 0.0938,0.0858 0.20013,0.19904 0.32557,0.32866 0.0238,0.0101 0.0466,0.0204 0.0692,0.0315 -0.13132,-0.11881 -0.25898,-0.24206 -0.39172,-0.35915 0,-2.6e-4 -0.003,-8e-4 -0.003,-0.001 z m -0.18553,0.17054 v 5.2e-4 c 0,0.001 0.003,0.002 0.003,0.003 0.004,0.003 0.007,0.005 0.0108,0.008 0.0183,0.004 0.0374,0.008 0.0553,0.0124 v -5.3e-4 c -0.009,-0.006 -0.0172,-0.013 -0.0264,-0.0191 -0.0143,-10e-4 -0.028,-0.004 -0.0424,-0.004 z m 0.0708,0.0243 c 0.0122,0.009 0.0249,0.0159 0.0372,0.0238 0.0114,-7.9e-4 0.0308,0.003 0.0476,0.005 -0.004,-0.003 -0.007,-0.007 -0.0114,-0.0103 -0.0243,-0.006 -0.0484,-0.0123 -0.0734,-0.0186 z m 0.79891,0.42117 c -0.0103,-0.002 -0.01,0.004 0.006,0.0202 0.005,0.005 0.0106,0.01 0.0156,0.015 0.0535,0.0239 0.10607,0.0492 0.15762,0.0765 -0.0719,-0.0531 -0.15426,-0.10649 -0.17881,-0.11162 z m 0.18087,0.0496 c 0.0143,0.029 0.0298,0.0574 0.0455,0.0858 0,2.6e-4 1.1e-4,7.9e-4 0.003,10e-4 -0.0361,-0.069 -0.0701,-0.13353 -0.047,-0.0868 z m 45.29027,0.92966 c -0.008,-0.005 -0.0216,0.01 -0.0377,0.0315 0.0162,0.02 0.033,0.0392 0.0486,0.0599 1.9e-4,-0.0173 0.001,-0.0341 5.3e-4,-0.0517 -7.9e-4,-0.0234 -0.004,-0.0361 -0.0103,-0.0398 z m -70.53625,2.94969 c -0.004,-0.002 -0.005,0.0997 0.0175,0.12661 0,5.3e-4 2.6e-4,0.001 0.003,0.002 -0.006,-0.0405 -0.0116,-0.081 -0.0164,-0.12144 0,-0.005 -0.003,-0.007 -0.003,-0.007 z m 41.39798,2.35335 c -0.0259,-0.002 -0.0472,0.0709 -0.0217,0.0739 0.006,7.9e-4 0.0116,0.001 0.0176,0.002 0.008,-0.0243 0.0161,-0.0511 0.0243,-0.0749 -0.006,-5.3e-4 -0.0127,-5.3e-4 -0.0191,-10e-4 z m -0.9524,2.55075 c -0.0131,0.0211 -0.0268,0.0447 -0.031,0.0594 -0.002,0.008 -0.004,0.0166 -0.006,0.0248 0.0131,-0.0229 0.0248,-0.0465 0.0372,-0.0698 -1.8e-4,-0.005 2e-4,-0.01 0,-0.0145 z m -10.78539,0.95601 c 0.029,0.10341 0.0337,0.10431 0.0284,0.0444 -0.009,-0.0149 -0.0185,-0.0299 -0.0284,-0.0444 z m 0.29353,0.86972 c 0.0169,0.0303 0.027,0.0401 0.0362,0.0475 -0.002,-0.006 -0.003,-0.012 -0.005,-0.0181 -0.01,-0.01 -0.0206,-0.0198 -0.031,-0.0294 z m 45.267,0.0506 c -0.27143,-5.3e-4 -0.57497,0.0796 -0.83923,0.0429 -0.0302,-0.004 -0.049,-0.008 -0.078,-0.0119 -0.0824,0.94674 -0.60671,1.83484 -1.24592,2.63395 0.0103,0.21126 0.007,0.40303 -0.0103,0.57929 0.2657,-0.30647 0.57612,-0.67992 0.971,-1.15652 0.51925,-0.62672 1.30339,-1.25842 1.29139,-2.07222 -4e-5,-0.004 -0.001,-0.006 -0.002,-0.009 -0.0291,-0.002 -0.0569,-0.006 -0.0868,-0.006 z m -35.39991,1.27227 c -0.002,1.2e-4 -0.006,0.004 -0.0114,0.0124 -0.0229,0.0365 -0.0264,0.13934 -0.0212,0.23513 0.006,-0.0686 0.0499,-0.24835 0.0326,-0.24753 z m -0.0279,0.3142 c 0.004,0.0381 0.009,0.0726 0.0155,0.0941 0.0209,0.0682 0.1093,0.26313 0.0868,0.19533 -0.0437,-0.13306 -0.0753,-0.21889 -0.10232,-0.28938 z m -9.16792,1.1529 c 0.0148,0.069 0.0292,0.13829 0.0465,0.2067 0.016,0.0629 0.0284,-0.15676 -0.0253,-0.19327 -0.007,-0.005 -0.0142,-0.009 -0.0212,-0.0134 z m -0.30747,5.92419 c -0.0163,0.0464 -0.0283,0.077 -0.0563,0.16588 -0.0129,0.0408 0.036,-0.0784 0.0465,-0.1199 0.004,-0.0151 0.007,-0.0306 0.0103,-0.046 z m 43.01908,1.15858 c 0.12221,0.24397 0.24416,0.48814 0.35966,0.73484 0.0445,0.0175 0.0891,0.0344 0.13281,0.0527 -0.12425,-0.28533 -0.25644,-0.5333 -0.38189,-0.67335 -0.0354,-0.0395 -0.0734,-0.0766 -0.11058,-0.1142 z m -33.09824,0.40359 c -0.0129,0.0113 -0.0195,0.0294 -0.03,0.0434 0.0101,-0.0146 0.0201,-0.029 0.0305,-0.0434 z m -0.03,0.0444 c -0.0143,0.0209 -0.0296,0.0417 -0.0434,0.0631 -0.003,0.004 -0.005,0.008 -0.007,0.0119 0.0127,-0.0296 0.0328,-0.0508 0.0506,-0.0749 z m -13.52114,7.10345 v 0.13022 c 0.006,-7.9e-4 0.0153,0.002 0.0217,0.001 -0.007,-0.0438 -0.0132,-0.0875 -0.0201,-0.13126 z m 3.09541,3.43855 c 1.4e-4,0.002 -7e-5,0.004 0,0.006 9e-5,-0.002 5.3e-4,-0.004 5.3e-4,-0.006 z m 0,0.006 c -2.6e-4,0.006 -2.6e-4,0.0114 -5.2e-4,0.017 2.6e-4,-0.003 5.2e-4,-0.007 0.002,-0.0103 h -5.3e-4 c -7e-5,-0.002 -5.3e-4,-0.004 -5.3e-4,-0.007 z m 10.41694,0.047 c -5.3e-4,-0.005 -0.0152,0.0368 -0.0315,0.0801 0.003,-7e-5 0.007,8e-5 0.0108,0 0.004,-0.0135 0.008,-0.0267 0.0124,-0.0403 0.007,-0.0241 0.0128,-0.0372 0.009,-0.0398 z m -10.43864,0.1695 c -0.0809,0.003 -0.16195,0.009 -0.24288,0.0129 0.0148,0.0334 0.0292,0.0668 0.0439,0.10025 0.009,-1.2e-4 0.0184,-5.3e-4 0.0274,-5.3e-4 0.001,-0.001 -0.002,-0.0139 5.3e-4,-0.0109 0.002,0.003 5.3e-4,0.008 0.002,0.0109 0.0448,-5.3e-4 0.0895,-0.001 0.13436,-0.002 0.0124,-0.035 0.027,-0.0654 0.0346,-0.11059 z m 0.76016,2.22208 c -9e-5,8e-4 2.7e-4,0.006 0.003,0.0124 0.0169,0.0647 0.0374,0.13047 0.0579,0.19741 -5.3e-4,-0.01 -8e-5,-0.0188 -0.002,-0.0248 -0.0131,-0.0513 -0.0578,-0.18984 -0.0584,-0.18448 z m 0.77101,5.95623 c -0.21378,0.60539 -0.009,0.057 -0.003,0.0217 7.9e-4,-0.005 0.002,-0.0148 0.003,-0.0217 z m -0.44596,2.66444 c -8e-4,0.0141 -5.3e-4,0.0286 -5.3e-4,0.0429 0.0337,0.11912 0.0603,0.2349 0.0801,0.33899 0.01,-0.14379 -0.0136,-0.28128 -0.0796,-0.38188 z m -30.18784,1.08055 c -0.26839,0.0797 -0.54705,0.13384 -0.82629,0.15141 0.0214,0.11726 0.0538,0.24641 0.0863,0.37466 0.0978,-0.0736 0.19759,-0.1447 0.29919,-0.21291 0.14417,-0.0968 0.35112,-0.11863 0.52244,-0.1757 -0.0287,-0.0445 -0.0545,-0.091 -0.0817,-0.13746 z m 38.94079,5.6379 c -0.005,-0.007 -0.0557,0.14109 -0.0744,0.19534 -0.038,0.11013 -0.0515,0.22512 -0.0465,0.33951 0.0225,-0.0567 0.0601,-0.18504 0.12092,-0.52193 10e-4,-0.008 0.002,-0.0114 5.3e-4,-0.0124 z m 0.53485,2.15439 c 2.7e-4,0.002 8e-4,0.003 0.001,0.005 -1.9e-4,-0.002 -1e-4,-0.003 -5.3e-4,-0.005 z m 0.001,0.007 c 2.6e-4,0.002 7.9e-4,0.003 10e-4,0.005 -1.2e-4,-0.002 -2.7e-4,-0.002 -5.3e-4,-0.004 z m 10e-4,0.005 c 0.003,0.0351 0.002,0.0588 0.005,0.0894 0.003,0.002 0.007,0.006 0.0103,0.008 -0.006,-0.033 -0.01,-0.0618 -0.0155,-0.0971 z m 0.29559,0.23616 c 0.0118,0.13437 0.019,0.23965 0.0243,0.32918 0.01,0.0144 0.0208,0.0339 0.031,0.0501 -0.0177,-0.12659 -0.0348,-0.25329 -0.0553,-0.3793 z m 0.0357,0.66404 c -7.9e-4,0.0985 0.003,0.0749 0.10387,0.23254 -0.01,-0.0507 -0.0194,-0.1015 -0.0279,-0.15244 -0.0301,-0.0301 -0.0529,-0.0544 -0.076,-0.0801 z m 1.00098,0.31936 c -0.0192,0.08 -0.0329,0.16754 -0.0372,0.2744 -0.0223,0.55664 0.14154,0.6674 0.39687,0.56793 -0.0221,-0.0473 -0.0452,-0.0936 -0.0651,-0.1447 -0.0915,-0.23477 -0.18729,-0.46889 -0.29455,-0.69763 z m 0.13539,1.13172 c 0.0442,0.0353 -0.0454,-0.0148 0.33383,0.12815 -0.10917,-0.0465 -0.22417,-0.0825 -0.33383,-0.12815 z m 2.63912,0.40927 c -0.005,7.9e-4 -0.008,0.001 -0.0124,0.002 0.0226,0.14431 0.0548,0.24901 0.061,0.14108 -0.0146,-0.0482 -0.0309,-0.0956 -0.047,-0.14315 z m 1.5229,0.5271 c 0.0398,0.25626 0.095,0.46772 0.18552,0.57413 -0.0226,-0.0665 -0.0486,-0.13206 -0.0703,-0.19896 -0.0403,-0.12446 -0.0767,-0.25016 -0.11524,-0.37517 z m 5.28495,2.94142 c -0.003,0.0116 -0.006,0.0231 -0.009,0.0346 0.05,0.003 0.0989,0.008 0.14625,0.0176 -0.0457,-0.0169 -0.0915,-0.034 -0.13695,-0.0522 z" />
    </clipPath>
  </defs>
  <g
     inkscape:label="Layer 1"
     inkscape:groupmode="layer"
     id="layer1">
    <path
       id="path23062" class="circle"
       style="fill:#808080;stroke-width:0.204645;fill-opacity:1"
       d="M 135.46664,67.733336 A 67.733322,67.733334 0 0 1 67.733316,135.46667 67.733322,67.733334 0 0 1 0,67.733336 67.733322,67.733334 0 0 1 67.733316,0 67.733322,67.733334 0 0 1 135.46664,67.733336 Z" />
    <path
       id="path29367"
       style="opacity:0.206;fill:#000000;stroke:none;stroke-width:0.204645px;stroke-linecap:butt;stroke-linejoin:miter;stroke-opacity:1"
       d="m 105.58316,33.541438 -69.352309,15.957128 31.465785,31.466193 -1.68981,40.769961 12.63045,12.8223 a 67.73332,67.733333 0 0 0 56.829394,-66.823846 67.73332,67.733333 0 0 0 -0.15172,-4.460628 z" />
    <path
       style="fill:#ffffff;stroke:none;stroke-width:0.164584"
       d="m -259.38195,197.66223 c -0.45102,-0.36484 -0.38705,0.92308 -0.63431,-12.77011 -0.1187,-6.57413 -0.23005,-9.3802 -0.42774,-10.78025 -0.18727,-1.32618 -0.27788,-3.32136 -0.30273,-6.66564 -0.0292,-3.93657 -0.11589,-5.50836 -0.49445,-8.96983 -0.60022,-5.48825 -0.7626,-13.35816 -0.35445,-17.17914 1.42421,-13.33315 -3.71539,-22.81692 -13.56346,-25.0278 -13.72064,-3.08027 -26.60226,-13.17625 -29.93559,-23.462024 -2.47945,-7.650932 -1.98941,-9.433075 3.04632,-11.07871 29.14457,-9.524185 58.65479,-9.607466 88.36135,-0.249368 5.18858,1.634498 5.73328,2.233233 5.26615,5.788646 -1.31409,10.001845 -7.07473,17.650646 -17.78218,23.610606 -3.82141,2.12706 -10.10326,4.68794 -12.23542,4.98792 -10.8625,1.52827 -17.03848,11.33734 -15.58464,24.75252 0.59993,5.53578 0.51765,9.91822 -0.34606,18.4334 -0.3288,3.24157 -0.42554,5.01748 -0.39898,7.32398 0.0193,1.67464 0.0293,3.89653 0.0222,4.93752 -0.007,1.04099 -0.0295,7.32421 -0.0499,13.96269 l -0.0371,12.06998 -0.38854,0.31496 c -0.57236,0.46396 -3.5871,0.46443 -4.16043,4.7e-4 z m -19.58436,-80.57499 c 11.52092,0.83868 17.73079,10.23525 15.98642,24.19015 -0.17314,1.38513 -0.24186,3.40054 -0.23009,6.74794 0.0162,4.61587 0.0916,5.8162 0.82183,13.08442 -6.68889,42.68578 -54.65647,-41.52556 -16.57816,-44.02251 z m 31.09855,58.16537 c -5.31122,-0.7233 -6.35223,-4.0702 -5.0902,-16.36525 0.69569,-6.77763 0.87714,-12.70424 0.50391,-16.45839 -0.75548,-7.59869 -0.37077,-11.3934 1.60886,-15.86971 4.38705,-9.91987 18.49284,-12.87207 25.03141,-5.23881 6.66943,7.78605 7.60883,26.38943 1.91204,37.86504 -5.04458,10.16178 -15.56055,17.21182 -23.96602,16.06712 z"
       id="path25066"
       sodipodi:nodetypes="cssssssssscssssssscscccssccsssssss"
       clip-path="url(#clipPath28729)"
       transform="matrix(0.77346195,0,0,0.77346211,266.6287,-31.149371)" />
  </g>
</svg>
