<?xml version="1.0" encoding="UTF-8" standalone="no"?>
<!-- Created with Inkscape (http://www.inkscape.org/) -->

<svg
   width="512"
   height="512"
   viewBox="0 0 135.46666 135.46667"
   version="1.1"
   id="svg37484"
   inkscape:version="1.1.2 (b8e25be833, 2022-02-05)"
   sodipodi:docname="ureter.svg"
   xmlns:inkscape="http://www.inkscape.org/namespaces/inkscape"
   xmlns:sodipodi="http://sodipodi.sourceforge.net/DTD/sodipodi-0.dtd"
   xmlns="http://www.w3.org/2000/svg"
   xmlns:svg="http://www.w3.org/2000/svg">
  <sodipodi:namedview
     id="namedview37486"
     pagecolor="#ffffff"
     bordercolor="#666666"
     borderopacity="1.0"
     inkscape:pageshadow="2"
     inkscape:pageopacity="0.0"
     inkscape:pagecheckerboard="0"
     inkscape:document-units="mm"
     showgrid="false"
     units="px"
     inkscape:zoom="0.64052329"
     inkscape:cx="658.0557"
     inkscape:cy="402.79566"
     inkscape:window-width="1920"
     inkscape:window-height="1009"
     inkscape:window-x="-8"
     inkscape:window-y="-8"
     inkscape:window-maximized="1"
     inkscape:current-layer="layer1"
     showguides="true"
     inkscape:guide-bbox="true" />
  <defs
     id="defs37481">
    <clipPath
       clipPathUnits="userSpaceOnUse"
       id="clipPath31914">
      <path
         id="path31916"
         style="fill:#ff0000;fill-opacity:1;fill-rule:nonzero;stroke:none;stroke-width:0.311682"
         d="m 39.026769,164.28358 c -0.0065,0.0673 -0.01387,0.16489 -0.01948,0.21854 -0.06203,0.59457 -0.183524,1.18131 -0.257502,1.77452 -0.08862,0.7108 -0.146213,1.1943 -0.201499,1.66372 0.324002,0.23077 0.646789,0.46163 0.969744,0.68607 -0.06895,-0.16218 -0.129142,-0.32697 -0.174102,-0.49614 -0.474925,-1.78693 0.141189,-0.29493 0.529616,0.73964 0.146378,0.0991 0.292632,0.19676 0.439518,0.29159 0.224458,0.14498 0.04317,0.53737 0.0036,0.80173 -0.01128,0.0755 -0.02525,0.15046 -0.03713,0.22584 0.103441,0.25571 0.182144,0.51759 0.211847,0.7926 0.257053,2.38106 -0.423208,3.0835 -1.430572,4.78541 -0.02855,0.0309 -0.05568,0.0632 -0.08401,0.0944 -0.07757,0.29005 -0.155012,0.58015 -0.231935,0.87052 0.07319,-0.0111 0.142538,-0.0233 0.217934,-0.0341 1.025031,-0.073 2.052044,0.009 3.076638,0.0597 -0.0025,-0.0361 0.171989,0.009 0.129666,0.007 -0.0432,-0.002 -0.08646,-0.005 -0.129666,-0.007 7.2e-5,9.4e-4 -9.35e-4,9.4e-4 -6.23e-4,0.002 0.385513,1.27199 0.787691,2.53869 1.194374,3.8041 0.164923,-0.10262 0.332196,-0.20155 0.50344,-0.29402 0.379897,-0.20517 1.049118,-0.45983 1.291167,-0.10228 1.390378,2.05381 2.694438,4.24717 3.460761,6.60559 l 0.325682,-0.85408 c 0.02238,-0.0846 -0.0201,-0.26269 0.06697,-0.25385 0.09,0.009 0.0424,0.1762 0.05418,0.26602 0.04076,0.32524 0.07622,0.65148 0.101665,0.97827 0.180152,2.31547 -0.622226,1.77108 -2.701648,5.40207 -1.634611,1.6338 -3.578374,2.92334 -5.66993,3.8942 -0.64197,0.84202 -1.35138,1.45372 -2.049064,1.34961 -5.980293,-0.89235 -6.328382,-2.09582 -6.026655,-4.6801 -0.621712,-0.22727 -1.244807,-0.4495 -1.874354,-0.63676 -0.184263,-0.75964 -0.475115,-1.50137 -0.552746,-2.27917 -0.06147,-0.61573 -0.0022,-1.24916 0.140622,-1.85122 0.05171,-0.21792 0.108493,-0.43479 0.169841,-0.65075 -0.307446,-0.11417 -0.639917,-0.23424 -1.023313,-0.361 -0.496899,-0.50144 -1.043429,-0.95815 -1.490839,-1.50422 -1.160432,-1.4163 -1.780672,-3.31562 -2.218906,-5.02831 -0.09893,-0.38663 -0.185039,-0.87159 0.04627,-1.19681 0.117495,-0.16521 0.247117,-0.32203 0.382296,-0.47543 9.35e-4,-0.0262 0.0012,-0.0524 -0.0019,-0.0785 -0.171808,-1.43284 -0.221409,0.0733 -0.234369,-2.26517 -0.0016,-0.2575 0.06414,-0.51153 0.09618,-0.76703 0.05875,-0.2833 0.120266,-0.56679 0.181411,-0.85043 -0.0051,-0.10702 -0.0039,-0.21077 0.0043,-0.31046 -0.223186,-0.62569 -0.473528,-1.25597 -0.917999,-2.30657 V 311.45517 H 157.87849 V 185.4061 c -1.03795,1.53017 -1.75729,3.35158 -3.17039,4.53887 -0.36168,0.30389 -0.77484,0.41385 -1.20715,0.40543 0.21835,0.25053 0.43301,0.50462 0.6404,0.76581 0.31807,0.40058 0.63365,0.80315 0.94418,1.20959 0.0331,0.0433 0.13238,0.16881 0.0864,0.1394 -0.19784,-0.1266 -0.36863,-0.29183 -0.55274,-0.43769 0.86797,0.73518 1.16535,0.88808 1.80556,2.09411 0.23414,0.44109 0.58754,0.94066 0.46387,1.42449 -0.43553,1.70389 -0.88835,3.54972 -2.06854,4.85359 -1.40828,1.55583 -3.55071,0.61784 -5.0344,0.21428 -1.52199,-0.91744 -0.89601,-0.4484 -2.20125,-1.90601 -0.1786,-1.6e-4 -0.35683,-0.008 -0.53388,-0.0359 -1.90545,-0.30012 -2.53026,-0.85942 -3.9642,-1.78122 -2.15389,-1.51947 -3.49674,-2.41516 -5.564,-4.08838 -1.25867,-1.01876 -2.49279,-2.06832 -3.71157,-3.13448 -0.0383,-0.0335 0.10348,0.0368 0.15158,0.0201 0.0788,-0.0273 0.27594,-0.0995 0.20515,-0.14367 -0.32957,-0.20555 -0.72778,-0.27277 -1.09149,-0.40908 h -6.3e-4 c -6.81813,-2.55732 -3.56061,-11.24513 3.25805,-8.68813 0.18716,0.0702 0.38222,0.12518 0.57284,0.18811 -0.13433,-0.65768 -0.26259,-1.34066 -0.41822,-2.13125 -0.27249,-3.07963 -0.51096,-6.19203 -0.25993,-9.2841 0.0324,-0.39846 0.14372,-0.78808 0.17714,-1.18646 0.0209,-0.24853 -0.013,-0.49815 -0.0146,-0.74755 -0.002,-0.31757 0.002,-0.63572 0.004,-0.95331 0.0131,-0.69905 0.0783,-1.37711 0.17532,-2.04906 z m 0.846777,4.58635 c -0.118476,-0.0802 -0.23719,-0.16129 -0.355514,-0.2435 0.180679,0.42491 0.422491,0.83161 0.622148,1.24855 0.0065,-0.074 0.01053,-0.14811 0.0067,-0.2222 -0.0019,-0.0383 -0.121322,-0.37798 -0.273329,-0.78285 z m 114.460834,-4.58635 c 0.0119,0.0199 0.024,0.0397 0.0359,0.0597 0.39962,0.10813 0.84453,0.22064 1.3417,0.33542 -0.021,-0.13599 -0.0365,-0.26192 -0.056,-0.39508 z M 26.822482,176.93165 c -0.07728,0.0607 -0.150105,0.11521 -0.216715,0.16193 -0.130205,0.5816 -0.260017,1.16308 -0.390213,1.74468 0.326842,-0.36341 0.694084,-0.6995 1.069579,-1.02879 -0.154151,-0.23436 -0.306735,-0.52792 -0.462651,-0.87782 z m 0.525356,0.68911 c -0.0051,0.0514 -0.01203,0.10194 -0.02132,0.15218 0.02556,-0.0223 0.05111,-0.0447 0.0767,-0.067 -0.01727,-0.0268 -0.03706,-0.0565 -0.0554,-0.0852 z m 11.971133,0.014 c -0.0036,-0.004 -0.09149,0.0678 -0.289768,0.22767 0.0066,0.0181 0.0134,0.0344 0.0201,0.0524 0.145543,-0.14827 0.273407,-0.2762 0.269676,-0.28003 z m -12.007659,0.21063 c -0.338739,1.5124 -2.356679,2.40992 0.725024,0.68789 -0.253543,-0.1181 -0.490955,-0.34154 -0.725024,-0.68789 z M 148.01431,180.586 c -0.86447,0.40902 -1.62181,0.78834 -1.02636,0.7932 0.51764,0.004 0.97146,-0.0146 1.37091,-0.0517 -0.0416,-0.14742 -0.0841,-0.29427 -0.12723,-0.44135 -0.0785,-0.103 -0.1505,-0.20135 -0.21732,-0.30011 z m -102.382566,3.56242 c -9.35e-4,2e-4 -0.0028,0.002 -0.0073,0.008 -0.04654,0.0599 -0.09153,0.12115 -0.13758,0.18141 0.01393,-0.0134 0.02877,-0.026 0.04261,-0.0396 0.03556,-0.0348 0.108063,-0.15116 0.102272,-0.14976 z m -9.760144,4.00073 c -0.01562,-2.5e-4 -0.16608,0.0855 -0.127837,0.0706 0.03326,-0.013 0.0671,-0.0271 0.100443,-0.0402 0.0083,-0.008 0.01664,-0.0162 0.02497,-0.0243 0.0042,-0.004 0.0046,-0.006 0.0025,-0.006 z m 113.44909,0.44439 c 0.19074,0.12395 0.36976,0.21559 0.51136,0.24472 -0.0787,-0.0719 -0.15755,-0.14355 -0.2362,-0.2155 -0.0935,-0.01 -0.18606,-0.0194 -0.27516,-0.0292 z m -114.111414,0.20028 c -0.08038,0.0393 -0.157574,0.0907 -0.23315,0.14853 0.007,0.0183 0.01424,0.0365 0.02132,0.0548 0.07065,-0.0677 0.141304,-0.13547 0.211844,-0.20332 z m -0.413343,0.30316 c -0.04083,0.0392 -0.08117,0.0807 -0.121141,0.12357 9.35e-4,0.0278 0.0025,0.054 0.0036,0.081 0.03684,-0.0352 0.07397,-0.0701 0.110794,-0.10532 0.0025,-0.0331 0.0046,-0.0661 0.0067,-0.0992 z m 116.051507,0.42064 c 0.009,0.004 0.0234,0.0132 0.031,0.0171 0.20318,0.10235 0.85879,0.30135 0.64528,0.22281 -0.22442,-0.0826 -0.45063,-0.16084 -0.67633,-0.23985 z m -107.774896,2.48007 c -0.0051,-0.005 -0.03241,0.0322 -0.0554,0.0609 -0.01106,0.0334 -0.02338,0.0664 -0.03409,0.0998 -0.01802,0.0564 0.07833,-0.0948 0.09009,-0.1528 9.35e-4,-0.004 3.12e-4,-0.007 -6.23e-4,-0.008 z m 106.220756,6.59584 c -0.30294,0.006 -0.60662,0.0393 -0.91009,0.0688 0.0158,0.0242 0.0305,0.0476 0.0457,0.0706 0.57653,0.0515 1.27255,-0.12887 1.18524,-0.13392 -0.10667,-0.006 -0.21383,-0.008 -0.32081,-0.005 z m -0.98314,0.0755 c -0.0544,0.005 -0.10881,0.009 -0.16314,0.014 0.0684,0.0194 0.14115,0.0332 0.21732,0.0426 -0.018,-0.0188 -0.0362,-0.0377 -0.0542,-0.0566 z m 0.26968,0.28125 c 0.0332,0.0468 0.0837,0.12236 0.10471,0.15036 0.11069,0.14777 0.27028,0.25164 0.40542,0.37743 -0.16823,-0.17762 -0.33958,-0.35228 -0.51013,-0.52779 z" />
    </clipPath>
  </defs>
  <g
     inkscape:label="Layer 1"
     inkscape:groupmode="layer"
     id="layer1">
    <path
       id="path23062" class="circle"
       style="fill:#808080;stroke-width:0.204645;fill-opacity:1"
       d="M 135.46667,67.733338 A 67.733334,67.733333 0 0 1 67.733338,135.46667 67.733334,67.733333 0 0 1 0,67.733338 67.733334,67.733333 0 0 1 67.733338,0 67.733334,67.733333 0 0 1 135.46667,67.733338 Z" />
    <path
       id="path67415"
       style="fill:#000000;stroke:#000000;stroke-width:0.999999px;stroke-linecap:butt;stroke-linejoin:miter;stroke-opacity:1;opacity:0.20512821"
       d="M 370.99609 97.009766 L 364.78711 99.597656 L 358.88672 111.23633 L 343.07812 130.36133 L 319.26953 138.94922 L 302.48633 153.58594 L 293.31445 184.22461 L 295.65625 219.74219 L 295.20312 235.03906 L 202.35352 142.18945 L 185.88281 138.26562 L 165.00195 133.875 L 139.48242 116.02344 L 127.57617 104.11914 L 117.67578 116.01953 L 132.36133 130.70508 L 114.16406 138.62109 L 113.25781 140.71875 L 124.66797 158.89062 L 205.85156 240.07422 L 194.76172 303.46289 L 194.95703 334.29688 L 208.0957 382.79492 L 209.19922 399.90625 L 203.66211 406.58203 L 304.30078 507.2207 A 256 256 0 0 0 512 256 A 256 256 0 0 0 511.03516 234.01172 L 379.82812 102.80469 L 378.79297 104.80664 L 370.99609 97.009766 z "
       transform="scale(0.26458333)" />
    <path
       style="opacity:0.955916;fill:#ffffff;fill-opacity:1;stroke:#ffffff;stroke-width:0.758491;stroke-miterlimit:4;stroke-dasharray:none;stroke-opacity:1"
       d="m 75.245199,107.7033 c -1.951037,-0.4831 -2.253685,-0.5185 -4.579934,-0.53573 -2.095887,-0.014 -2.756887,0.0361 -4.168564,0.32583 -2.037247,0.41808 -3.507564,0.36951 -5.794832,-0.19155 -1.991975,-0.48849 -3.738767,-0.59416 -5.383491,-0.32569 -0.707056,0.11549 -1.304689,0.19519 -1.328067,0.17729 -0.02517,-0.0168 0.1524,-0.41576 0.390286,-0.88393 0.507088,-0.99745 0.676351,-2.62267 0.395794,-3.80063 -0.09815,-0.41203 -0.544532,-1.60226 -0.992086,-2.644976 -2.33889,-5.44959 -3.263696,-10.155447 -3.267023,-16.624367 -0.0025,-5.754971 0.418305,-8.617221 2.72291,-18.499384 1.491178,-6.394248 1.9974,-10.031402 1.997651,-14.353597 3.36e-4,-4.640665 -0.384357,-6.793866 -1.616705,-9.050237 -1.582535,-2.897483 -4.749141,-4.75858 -8.105478,-4.763784 -1.686531,-0.0028 -2.725872,0.432549 -3.861107,1.616629 -1.531281,1.59719 -1.824839,2.708605 -1.298536,4.916583 0.211127,0.885598 0.210005,0.891941 -0.161627,0.955879 -0.439701,0.0757 -1.725376,-0.09407 -2.346046,-0.309781 l -0.435674,-0.151422 0.705235,-1.199589 c 0.387857,-0.659769 0.900705,-1.791592 1.139626,-2.515165 0.389837,-1.180568 0.411651,-1.358237 0.212519,-1.73126 -0.307931,-0.576877 -0.911519,-0.852997 -1.607563,-0.735411 -0.455526,0.07695 -0.709151,0.273707 -1.322694,1.02618 -0.770474,0.944945 -2.032271,3.185982 -2.032271,3.60948 0,0.127541 -0.06014,0.231929 -0.133102,0.231929 -0.271252,0 -1.571104,-0.864596 -1.897435,-1.262052 C 32.0921,40.515767 31.405987,39.343389 31.48322,39.2865 c 0.02829,-0.02069 0.593751,-0.184112 1.256624,-0.362882 1.435308,-0.387069 2.393055,-0.869464 3.328121,-1.676284 0.558482,-0.481854 0.68941,-0.692351 0.68941,-1.108392 0,-0.594958 -0.241045,-0.821434 -0.990044,-0.930712 -0.747046,-0.108973 -3.215151,0.44088 -4.495458,1.001493 l -1.066215,0.466878 -0.179246,-0.69908 c -0.200219,-0.780555 -0.224267,-1.498295 -0.07688,-2.299405 l 0.09872,-0.537073 0.582614,0.225608 c 1.242021,0.480982 2.31403,0.766293 3.22955,0.859568 0.917092,0.09343 0.973021,0.07978 1.456087,-0.355189 0.431282,-0.388361 0.486336,-0.518836 0.389301,-0.922357 -0.0621,-0.258494 -0.259214,-0.656175 -0.437848,-0.883711 -0.367692,-0.46834 -2.28316,-1.354084 -3.224572,-1.491116 -0.339031,-0.04938 -0.653758,-0.177372 -0.699391,-0.284522 -0.117167,-0.274601 0.607504,-1.324258 1.377502,-1.995663 0.459298,-0.40047 0.670594,-0.506837 0.718631,-0.361774 0.372729,1.124966 0.746621,1.75084 1.440898,2.411882 0.746655,0.710928 0.848132,0.760152 1.567043,0.760152 1.002965,0 1.273766,-0.247169 1.273766,-1.162588 0,-0.90477 -0.477281,-2.049694 -1.289897,-3.094349 l -0.640361,-0.823162 0.844632,-0.346117 c 0.464496,-0.190347 1.206148,-0.388448 1.648082,-0.440181 l 0.803502,-0.09404 0.01402,2.075792 c 0.01121,1.767568 0.06405,2.176466 0.347975,2.753852 0.690887,1.405425 2.692399,2.66536 6.637174,4.178083 3.482089,1.335273 5.953665,2.707768 7.232992,4.016546 1.35575,1.386966 2.46903,4.174361 3.131791,7.841319 0.227063,1.257325 0.259221,2.131078 0.186236,5.06485 -0.126674,5.067169 -0.71206,9.194959 -2.365062,16.672991 -1.344369,6.081936 -2.021448,12.560523 -1.87959,17.985067 0.117167,4.479318 0.6301,7.268568 1.866839,10.15061 1.085008,2.52849 2.196974,3.53593 4.239199,3.84066 1.097676,0.16378 1.954923,0.0489 4.612679,-0.618 1.526187,-0.38298 4.510164,-0.52476 6.040603,-0.287 0.610805,0.0949 1.747406,0.36387 2.525824,0.59774 1.134756,0.34094 1.693857,0.42522 2.820867,0.42522 2.236459,0 3.344397,-0.64183 4.418249,-2.55944 1.757977,-3.139421 2.515897,-6.966965 2.51173,-12.684574 -0.0025,-3.707409 -0.109896,-5.306434 -0.65082,-9.718471 C 80.437091,72.094421 80.294394,71.277 79.287906,66.340838 78.133045,60.676955 77.357087,55.049042 77.06062,50.186398 c -0.173653,-2.849769 -0.164984,-3.265088 0.09955,-4.630724 0.638405,-3.297855 1.742038,-5.746637 3.251783,-7.215069 1.500265,-1.459233 4.631946,-3.171223 7.528313,-4.115506 2.720114,-0.886824 3.463494,-1.247933 4.526411,-2.198881 1.636029,-1.463685 2.205562,-2.792812 2.216044,-5.171872 l 0.0085,-1.572468 0.980428,0.08174 c 0.539224,0.04491 1.283464,0.190934 1.653864,0.32437 0.60206,0.216941 0.64912,0.267583 0.44401,0.477769 -0.60843,0.62356 -1.71234,3.215137 -1.71234,4.020011 0,0.194542 0.11017,0.545841 0.24524,0.780658 0.20497,0.357051 0.34316,0.426859 0.84369,0.426403 1.28782,-0.0012 2.30308,-0.987067 3.277917,-3.183076 l 0.16051,-0.361775 0.71995,0.711999 c 0.39598,0.391606 0.85632,0.952697 1.02298,1.246881 l 0.30304,0.534874 -0.78331,0.08353 c -0.82129,0.08761 -2.137997,0.614107 -3.011267,1.204113 -0.58972,0.398471 -0.83588,1.168796 -0.55244,1.728985 0.23461,0.463767 1.10279,0.927991 1.736657,0.928662 0.52963,5.68e-4 1.93662,-0.367973 3.00982,-0.78837 l 0.62509,-0.244876 -0.0792,1.364604 c -0.0436,0.750536 -0.12807,1.435704 -0.18791,1.522592 -0.0738,0.107603 -0.27349,0.07162 -0.62621,-0.112944 -1.25028,-0.654235 -3.750927,-1.02005 -4.652917,-0.680672 -1.87277,0.704628 -0.60337,2.315413 2.642427,3.353038 1.38081,0.441417 1.38472,0.452949 0.55298,1.621776 -0.40911,0.574894 -1.505767,1.588236 -1.602137,1.480426 -0.0307,-0.03431 -0.22455,-0.476822 -0.43055,-0.983259 -0.40874,-1.004457 -1.41011,-2.32751 -2.23417,-2.951912 -1.273001,-0.964583 -2.669914,-0.0467 -2.629623,1.727866 0.01954,0.813867 0.366544,1.634815 1.245435,2.937673 0.310478,0.460261 0.564498,0.871765 0.564498,0.914454 0,0.167221 -1.568074,0.363631 -2.29655,0.287635 l -0.769947,-0.08031 0.116326,-0.667884 c 0.06405,-0.367336 0.116886,-1.221398 0.117166,-1.897919 0.0017,-1.492394 -0.325048,-2.24767 -1.359051,-3.147785 -0.945468,-0.823069 -1.48052,-0.960803 -3.349093,-0.862117 -3.350969,0.17698 -5.372948,0.845493 -6.977825,2.307052 -2.338972,2.13006 -3.158804,4.955298 -3.157574,10.880895 6.15e-4,4.58978 0.364084,7.025674 2.40698,16.146214 1.880848,8.397016 2.414026,12.168871 2.412908,17.06853 -0.0013,6.351328 -1.112217,11.377476 -3.951176,17.878941 -0.383798,0.87893 -0.44378,1.22362 -0.453147,2.60478 -0.0084,1.56864 -0.002,1.60729 0.600346,2.65581 0.336149,0.58517 0.573698,1.0977 0.527894,1.13893 -0.132267,0.11912 -1.905093,0.47018 -2.347865,0.46503 -0.220911,-0.003 -1.341853,-0.23742 -2.49087,-0.52194 z"
       id="path66674" />
  </g>
</svg>
